<svg xmlns="http://www.w3.org/2000/svg" width="327.509" height="339.165" viewBox="0 0 327.509 339.165">
  <g id="Group_196" data-name="Group 196" transform="translate(-950 1326)">
    <path id="Path_751" data-name="Path 751" d="M964.875,831.505,946.9,1123.852l292.347,17.976,17.976-292.347Zm24.1,23.057a3.1,3.1,0,0,1-3.281,2.9l-10.023-.616a3.1,3.1,0,0,1-2.9-3.281l.616-10.022a3.1,3.1,0,0,1,3.281-2.9l10.022.616a3.1,3.1,0,0,1,2.9,3.281Zm28.634,1.76a3.1,3.1,0,0,1-3.281,2.9l-10.022-.616a3.1,3.1,0,0,1-2.9-3.281l.617-10.023a3.1,3.1,0,0,1,3.28-2.9l10.023.616a3.1,3.1,0,0,1,2.9,3.281Zm28.635,1.761a3.1,3.1,0,0,1-3.281,2.9l-10.023-.617a3.1,3.1,0,0,1-2.9-3.28l.616-10.023a3.1,3.1,0,0,1,3.281-2.9l10.022.616a3.1,3.1,0,0,1,2.9,3.28Zm28.634,1.761a3.1,3.1,0,0,1-3.281,2.9l-10.022-.616a3.1,3.1,0,0,1-2.9-3.281l.616-10.022a3.1,3.1,0,0,1,3.281-2.9l10.023.617a3.1,3.1,0,0,1,2.9,3.28Zm28.635,1.761a3.1,3.1,0,0,1-3.281,2.9l-10.023-.616a3.1,3.1,0,0,1-2.9-3.281l.616-10.022a3.1,3.1,0,0,1,3.281-2.9l10.022.616a3.1,3.1,0,0,1,2.9,3.281Zm28.634,1.76a3.1,3.1,0,0,1-3.28,2.9l-10.023-.617a3.1,3.1,0,0,1-2.9-3.28l.616-10.023a3.1,3.1,0,0,1,3.281-2.9l10.023.616a3.1,3.1,0,0,1,2.9,3.281Zm28.635,1.761a3.1,3.1,0,0,1-3.281,2.9l-10.023-.616a3.1,3.1,0,0,1-2.9-3.28l.616-10.023a3.1,3.1,0,0,1,3.281-2.9l10.022.617a3.1,3.1,0,0,1,2.9,3.28Zm28.634,1.761a3.1,3.1,0,0,1-3.281,2.9l-10.022-.616a3.1,3.1,0,0,1-2.9-3.281l.616-10.022a3.1,3.1,0,0,1,3.281-2.9l10.023.616a3.1,3.1,0,0,1,2.9,3.281Zm28.635,1.76a3.1,3.1,0,0,1-3.281,2.9l-10.023-.616a3.1,3.1,0,0,1-2.9-3.281l.616-10.023a3.1,3.1,0,0,1,3.281-2.9l10.022.616a3.1,3.1,0,0,1,2.9,3.281Zm28.634,1.761a3.1,3.1,0,0,1-3.281,2.9l-10.022-.617a3.1,3.1,0,0,1-2.9-3.28l.616-10.023a3.1,3.1,0,0,1,3.281-2.9l10.023.617a3.1,3.1,0,0,1,2.9,3.28Z" transform="translate(20.287 -2128.663)" fill="#cfd0d2"/>
    <path id="Path_752" data-name="Path 752" d="M959.875,826.505,941.9,1118.852l292.347,17.976,17.976-292.347Zm24.1,23.057a3.1,3.1,0,0,1-3.281,2.9l-10.023-.616a3.1,3.1,0,0,1-2.9-3.281l.616-10.022a3.1,3.1,0,0,1,3.281-2.9l10.022.616a3.1,3.1,0,0,1,2.9,3.281Zm28.634,1.76a3.1,3.1,0,0,1-3.281,2.9l-10.022-.616a3.1,3.1,0,0,1-2.9-3.281l.617-10.023a3.1,3.1,0,0,1,3.28-2.9l10.023.616a3.1,3.1,0,0,1,2.9,3.281Zm28.635,1.761a3.1,3.1,0,0,1-3.281,2.9l-10.023-.617a3.1,3.1,0,0,1-2.9-3.28l.616-10.023a3.1,3.1,0,0,1,3.281-2.9l10.022.616a3.1,3.1,0,0,1,2.9,3.28Zm28.634,1.761a3.1,3.1,0,0,1-3.281,2.9l-10.022-.616a3.1,3.1,0,0,1-2.9-3.281l.616-10.022a3.1,3.1,0,0,1,3.281-2.9l10.023.617a3.1,3.1,0,0,1,2.9,3.28Zm28.635,1.761a3.1,3.1,0,0,1-3.281,2.9l-10.023-.616a3.1,3.1,0,0,1-2.9-3.281l.616-10.022a3.1,3.1,0,0,1,3.281-2.9l10.022.616a3.1,3.1,0,0,1,2.9,3.281Zm28.634,1.76a3.1,3.1,0,0,1-3.28,2.9l-10.023-.617a3.1,3.1,0,0,1-2.9-3.28l.616-10.023a3.1,3.1,0,0,1,3.281-2.9l10.023.616a3.1,3.1,0,0,1,2.9,3.281Zm28.635,1.761a3.1,3.1,0,0,1-3.281,2.9l-10.023-.616a3.1,3.1,0,0,1-2.9-3.28l.616-10.023a3.1,3.1,0,0,1,3.281-2.9l10.022.617a3.1,3.1,0,0,1,2.9,3.28Zm28.634,1.761a3.1,3.1,0,0,1-3.281,2.9l-10.022-.616a3.1,3.1,0,0,1-2.9-3.281l.616-10.022a3.1,3.1,0,0,1,3.281-2.9l10.023.616a3.1,3.1,0,0,1,2.9,3.281Zm28.635,1.76a3.1,3.1,0,0,1-3.281,2.9l-10.023-.616a3.1,3.1,0,0,1-2.9-3.281l.616-10.023a3.1,3.1,0,0,1,3.281-2.9l10.022.616a3.1,3.1,0,0,1,2.9,3.281Zm28.634,1.761a3.1,3.1,0,0,1-3.281,2.9l-10.022-.617a3.1,3.1,0,0,1-2.9-3.28l.616-10.023a3.1,3.1,0,0,1,3.281-2.9l10.023.617a3.1,3.1,0,0,1,2.9,3.28Z" transform="translate(20.287 -2128.663)" fill="#b8565a"/>
    <g id="Group_191" data-name="Group 191" transform="translate(20.287 -2128.663)">
      <path id="Path_753" data-name="Path 753" d="M972.384,897.6l2.645.163h0l2.134.131h0l2.645.163h0l3.156.194h0l2.645.163h0l2.134.131h0l2.646.163h0l2.645.163h0l3.156.194h0l2.134.131h0l2.829.174,2.461.151h0l3.156.194h0l2.644.162h0l2.135.131h0l2.645.163h0l3.156.194h0l2.134.131h0l2.645.163h0l2.645.163h0l3.156.194h0l2.134.131h0l3.156.194h0l2.135.131h0l3.156.194h0l2.134.131h0l2.645.163h0l2.645.163h0l3.156.194h0l2.134.131h0l2.645.163h0l3.156.194h0l2.134.131h0l2.645.163h0l2.645.163h0l3.156.194h0l2.134.131h0l2.646.163h0l2.645.163h0l.327.02.184.011h0l2.645.163h0l2.134.131h0l3.156.194h0l2.135.131h0l3.156.194h0l2.134.131h0l3.156.194h0l2.135.131h0l3.156.194h0l2.134.131h0l2.645.163h0l2.645.163h0l3.156.194h0l2.134.131h0l2.645.163h0l2.645.163h0l3.156.194h0l2.134.131h0l2.645.163h0l2.646.163h0l3.156.194h0l2.644.163h0l2.135.131h0l3.156.194h0l2.134.131h0l3.156.194h0l2.135.131h0l3.156.194h0l2.134.131h0l2.646.163h0l3.156.194h0l2.645.163h0l2.134.131h0l2.645.163h0l2.646.163h0l3.156.194h0l2.134.131h0l2.645.163h0l2.645.163h0l3.156.194h0l2.645.163h0l2.135.131h0l2.645.163h0l3.156.194h0l2.645.163h0l2.134.131h0l2.646.163h0l3.156.194h0l2.134.131h0l2.645.163h0l2.645.163h0l3.156.194h0l2.134.131h0l2.645.163h0l3.156.194h0l2.134.131h0l2.645.163h0l2.645.163h0l3.156.194h0l2.644.163.04-.648-3.156-.194h0l-2.644-.163h0l-2.135-.131h0l-2.645-.163h0l-3.156-.194h0l-2.134-.131h0l-2.646-.163h0l-3.156-.194h0l-2.133-.131h0l-2.646-.163h0l-3.156-.194h0l-2.645-.163h0l-2.134-.131h0l-2.645-.163h0l-2.646-.163h0l-3.156-.194h0l-2.134-.131h0l-2.645-.163h0l-2.645-.163h0l-3.156-.194h0l-2.644-.163h0l-2.135-.131h0l-2.645-.163h0l-3.156-.194h0l-2.134-.131h0l-.327-.02-.184-.011h0l-2.135-.131h0l-2.646-.163h0l-3.156-.194h0l-2.134-.131h0l-2.645-.163h0l-2.645-.163h0l-3.156-.194h0l-2.134-.131h0l-2.646-.163h0l-2.645-.163h0l-3.156-.194h0l-2.134-.131h0l-2.645-.163h0l-3.156-.194h0l-2.644-.163h0l-2.135-.131h0l-3.156-.194h0l-2.645-.163h0l-2.645-.163h0l-2.135-.131h0l-2.645-.163h0l-3.156-.194h0l-2.134-.131h0l-2.646-.163h0l-2.645-.163h0l-3.156-.194h0l-2.134-.131h0l-3.156-.194h0l-2.135-.131h0l-3.156-.194h0l-2.134-.131h0l-.327-.02-.184-.011h0l-2.135-.131h0l-2.645-.163h0l-3.156-.194h0l-2.134-.131h0l-2.646-.163h0l-2.645-.163h0l-3.156-.194h0l-2.134-.131h0l-2.645-.163h0l-2.645-.163h0l-2.645-.163h0l-2.645-.163h0l-2.645-.163h0l-3.156-.194h0l-2.134-.131h0l-2.646-.163h0l-2.645-.163h0l-3.156-.194h0l-2.134-.131h0l-2.645-.163h0l-2.645-.163h0l-3.156-.194h0l-2.134-.131h0l-2.645-.163h0l-2.646-.163h0l-3.156-.194h0l-2.134-.131h0l-3.156-.194h0l-2.135-.131h0l-2.645-.162h0l-3.156-.194h0l-2.135-.131h0l-2.646-.163h0l-2.644-.163h0l-2.645-.163h0l-2.646-.163h0l-2.645-.163h0l-2.645-.163h0L983,897.6h0l-2.645-.163h0l-2.645-.163h0l-2.644-.163h0l-2.645-.163h0l-3.156-.194-.04.648,3.156.194Z" fill="#ff886b"/>
      <path id="Path_754" data-name="Path 754" d="M970.523,919.525l2.644.163h0l2.646.163h0l3.156.194h0l2.135.131h0l2.645.163h0l3.156.194h0l2.135.131h0l2.646.163h0l3.156.194h0l2.134.131h0l2.645.163h0l2.645.163h0l3.156.194h0l2.134.131h0l2.645.163h0l2.646.163h0l3.156.194h0l2.134.131h0l2.645.163h0l2.829.174,2.972.183h0l2.134.131h0l2.645.163h0l2.646.163h0l3.156.194h0l2.134.131h0l2.645.163h0l3.156.194h0l2.645.163h0l2.134.131h0l2.645.163h0l3.156.194h0l2.134.131h0l3.156.194h0l2.135.131h0l3.156.194h0l2.645.163h0l2.135.131h0l2.645.163h0l3.156.194h0l2.134.131h0l2.645.163h0l2.646.163h0l3.156.194h0l2.134.131h0l2.645.163h0l2.645.163h0l3.156.194h0l2.134.131h0l2.646.163h0l3.156.194h0l2.645.163h0l2.134.131h0l2.645.163h0l2.645.163h0l3.156.194h0l2.133.131h0l2.646.163h0l2.645.163h0l3.156.194h0l2.134.131h0l2.83.174,2.972.183h0l2.134.131h0l3.156.194h0l2.135.131h0l3.156.194h0l2.134.131h0l2.645.163h0l3.156.194h0l2.646.163h0l2.134.131h0l2.645.163h0l3.156.194h0l2.646.163h0l2.134.131h0l2.645.163h0l2.646.163h0l3.156.194h0l2.134.131h0l2.645.163h0l2.645.163h0l3.156.194h0l2.134.131h0l2.645.163h0l2.645.163h0l3.156.194h0l2.134.131h0l3.156.194h0l2.135.131h0l.327.02.184.011h0l2.645.163h0l2.134.131h0l3.156.194h0l2.645.163h0l2.134.131h0l2.645.163h0l2.646.163h0l3.156.194h0l2.644.163.04-.648-2.645-.163h0l-3.156-.194h0l-2.135-.131h0l-2.646-.163h0l-2.644-.163h0l-2.646-.163h0l-2.645-.163h0l-3.156-.194h0l-2.134-.131h0l-2.645-.163h0l-2.646-.163h0l-3.156-.194h0l-2.134-.131h0l-2.646-.163h0l-2.645-.163h0l-3.156-.194h0l-2.134-.131h0l-2.645-.163h0l-3.156-.194h0l-2.134-.131h0l-2.646-.163h0l-2.645-.163h0l-2.645-.163h0l-2.644-.162h0l-2.645-.163h0l-2.646-.163h0l-2.645-.163h0l-2.644-.163h0l-2.646-.163h0l-2.645-.163h0l-2.645-.163h0l-2.644-.163h0l-3.156-.194h0l-2.135-.131h0l-2.645-.163h0l-2.644-.163h0l-2.645-.163h0l-2.646-.163h0l-2.644-.162h0l-2.645-.163h0l-2.645-.163h0l-2.645-.163h0l-2.645-.163h0l-2.645-.163h0l-2.645-.163h0l-2.645-.163h0l-2.644-.163h0l-2.646-.163h0l-2.645-.163h0l-2.645-.163h0l-2.644-.163h0l-2.645-.163h0l-2.645-.163h0l-2.645-.163h0l-2.645-.163h0l-2.645-.163h0l-2.645-.163h0l-2.646-.163h0l-2.644-.163h0l-2.646-.163h0l-3.156-.194h0l-2.135-.131h0l-2.644-.162h0l-3.156-.194h0l-2.135-.131h0l-2.645-.163h0l-2.644-.163h0l-2.645-.163h0l-2.645-.163h0l-2.644-.162h0l-2.645-.163h0l-2.646-.163h0l-2.645-.163h0l-2.644-.163h0l-2.646-.163h0l-2.645-.163h0l-2.645-.163h0l-2.644-.163h0l-2.645-.163h0l-2.645-.163h0l-2.645-.163h0l-2.645-.163h0l-2.646-.163h0l-2.645-.163h0l-2.645-.163h0l-2.644-.163h0l-2.645-.163h0l-2.645-.163h0l-3.156-.194h0l-2.134-.131h0l-2.646-.163h0l-3.156-.194h0l-2.135-.131h0l-2.644-.163h0l-2.645-.163h0l-2.645-.163h0l-2.646-.163h0l-2.644-.163h0l-2.646-.163h0l-3.156-.194-.04.648,2.645.163Z" fill="#ff886b"/>
      <path id="Path_755" data-name="Path 755" d="M969.173,941.484l2.644.163h0l2.645.163h0l2.646.163h0l2.645.163h0l2.644.163h0l2.645.163h0l2.645.163h0l2.646.163h0l2.644.163h0l2.645.163h0l2.646.163h0l3.156.194h0l2.134.131h0l2.645.163h0l2.645.163h0l2.646.163h0l2.644.163h0l2.645.163h0l2.646.163h0l2.645.163h0l2.644.162h0l2.645.163h0l2.645.163h0l2.645.163h0l2.645.163h0l3.156.194h0l2.135.131h0l2.645.163h0l2.644.162h0l2.645.163h0l2.645.163h0l2.644.163h0l2.646.163h0l2.645.163h0l2.645.163h0l2.644.162h0l2.646.163h0l2.645.163h0l2.645.163h0l2.644.163h0l2.645.163h0l2.646.163h0l3.156.194h0l2.134.131h0l2.645.163h0l2.645.163h0l2.646.163h0l2.644.163h0l2.645.163h0l2.645.163h0l2.645.163h0l2.645.163h0l2.645.163h0l3.156.194h0l2.135.131h0l3.156.194h0l2.645.163h0l2.134.131h0l2.646.163h0l3.156.194h0l2.134.131h0l2.646.163h0l2.644.163h0l2.646.163h0l2.645.163h0l2.645.163h0l2.644.163h0l2.645.163h0l2.646.163h0l2.645.163h0l2.644.163h0l2.645.163h0l2.645.163h0l2.645.163h0l2.644.162h0l2.646.163h0l2.645.163h0l2.645.163h0l3.156.194h0l2.134.131h0l2.646.163h0l2.645.163h0l3.156.194h0l2.134.131h0l3.156.194h0l2.135.131h0l3.156.194h0l2.644.163h0l2.135.131h0l2.645.163h0l3.156.194h0l2.134.131h0l2.645.163h0l2.644.163h0l2.645.163h0l2.646.163h0l2.645.163h0l3.156.194h0l2.644.163.04-.648-2.644-.162h0l-2.645-.163h0l-2.646-.163h0l-2.645-.163h0l-2.645-.163h0l-2.646-.163h0l-2.645-.163h0l-2.644-.163h0l-2.645-.163h0l-3.156-.194h0l-2.135-.131h0l-2.644-.163h0l-3.156-.194h0l-2.135-.131h0l-2.646-.163h0l-2.644-.162h0l-2.646-.163h0l-2.645-.163h0l-2.645-.163h0l-2.645-.163h0l-2.645-.163h0l-2.646-.163h0l-2.645-.163h0l-2.644-.163h0l-2.645-.163h0l-2.645-.163h0l-2.646-.163h0l-2.644-.163h0l-2.645-.163h0l-2.645-.163h0l-2.645-.163h0l-2.645-.163h0l-2.645-.163h0l-2.645-.163h0l-2.645-.163h0l-2.644-.163h0l-2.646-.163h0l-3.156-.194h0l-2.134-.131h0l-2.645-.163h0l-3.156-.194h0l-2.135-.131h0l-2.644-.163h0l-2.645-.163h0l-2.645-.163h0l-2.646-.163h0l-2.644-.163h0l-2.645-.163h0L1101.98,949h0l-2.645-.163h0l-2.644-.163h0l-2.645-.163h0l-2.645-.163h0l-2.646-.163h0l-2.644-.162h0l-2.645-.163h0l-2.645-.163h0l-2.645-.163h0l-3.156-.194h0l-2.134-.131h0l-2.646-.163h0l-2.645-.163h0l-3.156-.194h0l-2.134-.131h0l-2.645-.163h0l-2.829-.174-2.972-.183h0l-2.134-.131h0l-3.156-.194h0l-2.134-.131h0l-2.645-.163h0l-2.645-.163h0l-2.645-.163h0l-2.645-.163h0l-2.645-.163h0l-2.646-.163h0l-2.645-.163h0l-2.644-.163h0l-2.645-.163h0l-2.646-.163h0l-2.645-.163h0l-3.156-.194h0l-2.644-.163h0l-2.135-.131h0l-2.645-.163h0l-3.156-.194h0l-2.134-.131h0l-2.645-.163h0l-2.645-.163h0l-3.156-.194h0l-2.134-.131h0l-2.645-.163h0l-2.645-.163h0l-3.156-.194h0l-2.134-.131h0l-2.645-.163h0l-2.829-.174L971.857,941h0l-2.134-.131h0l-3.156-.194-.04.648,2.646.163Z" fill="#ff886b"/>
      <path id="Path_756" data-name="Path 756" d="M967.823,963.442l3.156.194h0l2.134.131h0l2.645.163h0l3.156.194h0l2.645.163h0l2.134.131h0l3.156.194h0l2.135.131h0l3.156.194h0l2.134.131h0l2.646.163h0l2.645.163h0l3.156.194h0l2.134.131h0l2.645.163h0l2.645.163h0l2.644.163h0l2.645.163h0l2.645.163h0l2.645.163h0l2.644.163h0l2.646.163h0l2.645.163h0l2.645.163h0l2.645.163h0l2.645.163h0l2.645.163h0l2.645.163h0l2.644.163h0l2.646.163h0l2.645.163h0l3.156.194h0l2.134.131h0l2.645.163h0l3.156.194h0l2.134.131h0l2.645.163h0l2.646.163h0l2.645.163h0l2.644.163h0l2.645.163h0l2.645.163h0l2.646.163h0l2.644.162h0l2.646.163h0l2.645.163h0l2.645.163h0l2.645.163h0l3.156.194h0l2.135.131h0l2.645.163h0l2.644.162h0l2.646.163h0l2.645.163h0l2.645.163h0l2.644.163h0l2.645.163h0l2.645.163h0l2.645.163h0l2.645.163h0l2.645.163h0l2.645.163h0l2.644.163h0l2.645.163h0l2.646.163h0l2.645.163h0l2.644.163h0l2.645.163h0l2.645.163h0l2.646.163h0l2.644.163h0l2.645.163h0l2.645.163h0l2.646.163h0l2.644.163h0l2.645.163h0l3.156.194h0l2.135.131h0l2.645.163h0l3.156.194h0l2.135.131h0l2.646.163h0l2.644.162h0l2.645.163h0l2.645.163h0l2.645.163h0l2.645.163h0l2.645.163h0l2.646.163h0l2.645.163h0l2.644.163h0l2.646.163h0l2.645.163h0l2.644.163h0l2.645.163h0l2.646.163h0l2.645.163h0l2.644.162h0l3.156.194.04-.648-3.156-.194h0l-2.134-.131h0l-2.645-.163h0l-2.829-.174-2.972-.183h0l-2.134-.131h0l-2.645-.163h0l-2.644-.162h0l-2.646-.163h0l-2.645-.163h0l-2.646-.163h0l-3.156-.194h0l-2.133-.131h0l-2.646-.163h0l-2.829-.174-2.972-.183h0l-2.134-.131h0l-3.156-.194h0l-2.135-.131h0l-3.156-.194h0l-2.134-.131h0l-2.645-.163h0l-2.645-.163h0l-3.156-.194h0l-2.134-.131h0l-2.646-.163h0l-2.645-.163h0l-3.156-.194h0l-2.134-.131h0l-2.645-.163h0l-3.156-.194h0l-2.645-.163h0l-2.134-.131h0l-2.646-.163h0l-3.156-.194h0l-2.645-.163h0l-2.134-.131h0l-2.645-.163h0l-3.156-.194h0l-2.134-.131h0l-2.645-.163h0l-2.645-.163h0l-3.156-.194h0l-2.134-.131h0l-2.645-.163h0l-2.829-.174-2.972-.183h0l-2.134-.131h0l-3.156-.194h0l-2.135-.131h0l-3.156-.194h0l-2.134-.131h0l-2.646-.163h0l-3.156-.194h0l-2.645-.163h0l-2.134-.131h0l-2.645-.163h0l-2.645-.163h0l-3.156-.194h0l-2.644-.163h0l-2.135-.131h0l-2.646-.163h0l-3.156-.194h0l-2.134-.131h0l-2.645-.163h0l-2.645-.163h0l-3.156-.194h0l-2.134-.131h0l-2.645-.163h0l-3.156-.194h0l-2.134-.131h0l-2.645-.163h0l-3.156-.194h0l-2.645-.163h0l-2.134-.131h0l-2.645-.163h0l-3.156-.194h0l-2.645-.163h0l-2.134-.131h0l-2.645-.163h0l-2.645-.163h0l-3.156-.194h0l-2.134-.131h0l-2.645-.163h0l-2.645-.163h0l-3.156-.194h0l-2.134-.131h0l-2.646-.163h0l-2.645-.163h0l-3.156-.194h0l-2.318-.143-2.972-.183h0l-2.135-.131h0l-3.156-.194h0l-2.134-.131h0l-3.156-.194h0l-2.135-.131h0l-3.156-.194h0l-2.134-.131h0l-3.156-.194-.04.648,2.645.163Z" fill="#ff886b"/>
      <path id="Path_757" data-name="Path 757" d="M966.472,985.4l3.156.194h0l2.134.131h0l2.645.163h0l2.646.163h0l3.156.194h0l2.134.131h0l2.645.163h0l2.645.163h0l3.156.194h0l2.134.131h0l2.645.163h0l2.646.163h0l3.156.194h0l2.134.131h0l2.645.163h0l2.645.163h0l3.156.194h0l2.644.163h0l2.135.131h0l2.646.163h0l3.156.194h0l2.134.131h0l2.645.163h0l2.645.163h0l3.156.194h0l2.134.131h0l3.156.194h0l2.135.131h0l3.156.194h0l2.134.131h0l.327.02.184.011h0l2.135.131h0l3.156.194h0l2.134.131h0l2.645.163h0l2.645.163h0l3.156.194h0l2.644.163h0l2.135.131h0l2.646.163h0l3.156.194h0l2.644.163h0l2.135.131h0l2.645.163h0l3.156.194h0l2.134.131h0l2.645.163h0l2.645.163h0l3.156.194h0l2.134.131h0l2.645.163h0l2.645.163h0l3.156.194h0l2.133.131h0l2.646.163h0l3.156.194h0l2.645.163h0l2.134.131h0l3.156.194h0l2.135.131h0l3.156.194h0l2.134.131h0l2.645.163h0l3.156.194h0l2.134.131h0l2.645.163h0l2.646.163h0l3.156.194h0l2.134.131h0l2.645.163h0l2.645.163h0l3.156.194h0l2.134.131h0l.327.02.184.011h0l2.135.131h0l2.645.163h0l3.156.194h0l2.134.131h0l2.645.163h0l2.645.163h0l3.156.194h0l2.134.131h0l2.646.163h0l2.645.163h0l2.645.163h0l2.645.163h0l2.645.163h0l3.156.194h0l2.133.131h0l2.646.163h0l2.645.163h0l2.645.163h0l2.645.162h0l2.645.163h0l2.646.163h0l3.156.194h0l2.134.131h0l2.645.163h0l2.646.163h0l3.156.194h0l2.644.163.04-.648-3.156-.194h0l-2.134-.131h0l-3.156-.194h0l-2.135-.131h0l-3.156-.194h0l-2.134-.131h0l-3.156-.194h0l-2.645-.163h0l-2.644-.163h0l-2.135-.131h0l-2.645-.163h0l-3.156-.194h0l-2.134-.131h0l-2.645-.163h0l-2.645-.163h0l-3.156-.194h0l-2.134-.131h0l-2.645-.163h0l-2.645-.163h0l-3.156-.194h0l-2.134-.131h0l-2.646-.163h0l-2.645-.163h0l-.327-.02-.184-.011h0l-2.645-.163h0l-2.134-.131h0l-3.156-.194h0l-2.135-.131h0l-3.156-.194h0l-2.133-.131h0l-2.646-.163h0l-2.645-.163h0l-3.156-.194h0l-2.134-.131h0l-2.645-.163h0l-2.646-.163h0l-3.156-.194h0l-2.318-.142-2.461-.151h0l-3.156-.194h0l-2.645-.163h0l-2.135-.131h0l-2.646-.163h0l-3.156-.194h0l-2.134-.131h0l-3.156-.194h0l-2.134-.131h0l-3.156-.194h0l-2.134-.131h0l-3.156-.194h0l-2.135-.131h0l-3.156-.194h0l-2.134-.131h0l-2.645-.163h0l-3.156-.194h0l-2.645-.163h0l-2.134-.131h0l-2.645-.163h0l-2.645-.163h0l-3.156-.194h0l-2.134-.131h0l-2.645-.163h0l-2.645-.163h0l-3.156-.194h0l-2.645-.163h0l-2.135-.131h0l-2.645-.163h0l-3.156-.194h0l-2.644-.163h0l-2.135-.131h0l-3.156-.194h0l-2.318-.143-2.461-.151h0l-2.645-.163h0l-3.156-.194h0l-2.134-.131h0l-2.645-.163h0l-2.645-.163h0l-3.156-.194h0l-2.134-.131h0l-2.645-.163h0l-2.645-.163h0l-3.156-.194h0l-2.134-.131h0l-2.645-.163h0l-2.645-.163h0l-3.156-.194h0l-2.644-.163h0l-2.135-.131h0l-2.645-.163h0l-3.156-.194h0l-2.134-.131h0l-2.645-.163h0l-2.646-.163h0l-3.156-.194h0l-2.134-.131h0l-3.156-.194h0l-2.135-.131h0l-3.156-.194h0l-2.134-.131h0l-.327-.02-.184-.011h0l-2.645-.163-.04.648,2.645.163Z" fill="#ff886b"/>
      <path id="Path_758" data-name="Path 758" d="M965.122,1007.359l3.156.194h0l2.134.131h0l2.645.163h0l3.156.194h0l2.645.163h0l2.134.131h0l2.645.163h0l3.156.194h0l2.645.163h0l2.134.131h0l2.645.163h0l2.645.163h0l3.156.194h0l2.134.131h0l2.645.163h0l2.645.163h0l3.156.194h0l2.134.131h0l2.829.174,2.461.151h0l3.156.194h0l2.318.143,2.972.183h0l2.135.131h0l3.156.194h0l2.134.131h0l3.156.194h0l2.135.131h0l3.156.194h0l2.134.131h0l2.645.163h0l3.156.194h0l2.134.131h0l2.645.163h0l2.645.163h0l3.156.194h0l2.133.131h0l2.646.163h0l2.645.163h0l3.156.194h0l2.134.131h0l2.645.163h0l2.646.163h0l3.156.194h0l2.134.131h0l3.156.194h0l2.135.131h0l3.156.194h0l2.134.131h0l2.645.163h0l.327.02.184.011h0l2.135.131h0l3.156.194h0l2.318.143,2.461.151h0l2.646.163h0l3.156.194h0l2.134.131h0l2.645.163h0l2.645.163h0l3.156.194h0l2.134.131h0l2.645.163h0l3.156.194h0l2.318.142,2.972.183h0l2.135.131h0l3.156.194h0l2.134.131h0l3.156.194h0l2.135.131h0l3.156.194h0l2.134.131h0l2.645.163h0l2.645.163h0l3.156.194h0l2.134.131h0l2.646.163h0l3.156.194h0l2.645.163h0l2.134.131h0l2.645.163h0l.327.02.184.011h0l2.135.131h0l3.156.194h0l2.644.163h0l2.135.131h0l2.645.163h0l3.156.194h0l2.645.163h0l2.135.131h0l2.645.163h0l3.156.194h0l2.134.131h0l2.645.163h0l3.156.194h0l2.318.142,2.461.151h0l2.646.163h0l3.156.194h0l2.644.163.04-.648-3.156-.194h0l-2.134-.131h0l-3.156-.194h0l-2.135-.131h0L1213.8,1022h0l-2.134-.131h0l-2.645-.163h0l-3.156-.194h0l-2.134-.131h0l-2.646-.163h0l-2.645-.163h0l-3.156-.194h0l-2.134-.131h0l-2.646-.163h0l-2.645-.163h0l-3.156-.194h0l-2.645-.163h0l-2.134-.131h0l-2.646-.163h0l-3.156-.194h0l-2.644-.163h0l-2.135-.131h0l-2.645-.163h0l-3.156-.194h0l-2.134-.131h0l-2.646-.163h0l-2.645-.163h0l-3.156-.194h0l-2.134-.131h0l-2.645-.163h0l-3.156-.194h0l-2.646-.163h0l-2.134-.131h0l-2.645-.163h0l-2.645-.163h0l-3.156-.194h0l-2.134-.131h0l-2.646-.163h0l-3.156-.194h0l-2.644-.163h0l-2.135-.131h0l-2.645-.163h0l-3.156-.194h0l-2.134-.131h0l-3.156-.194h0l-2.135-.131h0l-3.156-.194h0l-2.134-.131h0l-.327-.02-.184-.011h0l-2.135-.131h0l-2.645-.163h0l-3.156-.194h0l-2.134-.131h0l-2.646-.163h0l-2.645-.163h0l-3.156-.194h0l-2.134-.131h0l-2.645-.163h0l-2.646-.163h0l-3.156-.194h0l-2.134-.131h0l-2.645-.163h0l-2.645-.163h0l-2.645-.163h0l-2.645-.163h0l-2.645-.163h0l-2.645-.163h0l-2.644-.163h0l-2.646-.163h0l-2.645-.163h0l-3.156-.194h0l-2.134-.131h0l-2.645-.163h0l-3.156-.194h0l-2.645-.163h0l-2.134-.131h0l-3.156-.194h0l-2.135-.131h0l-3.156-.194h0l-2.134-.131h0l-2.645-.163h0l-2.645-.163h0l-3.156-.194h0l-2.134-.131h0l-2.646-.163h0l-2.645-.163h0l-2.645-.163h0l-2.646-.163h0l-2.645-.163h0l-2.645-.163h0l-2.644-.163h0l-2.645-.163h0l-2.645-.163h0l-2.645-.163h0l-2.644-.162h0l-2.646-.163h0l-2.645-.163h0l-2.645-.163h0l-2.645-.163h0l-2.645-.163h0l-3.156-.194-.04.648,2.645.163Z" fill="#ff886b"/>
      <path id="Path_759" data-name="Path 759" d="M964.283,1029.349l2.134.131h0l2.645.163h0l2.645.163h0l2.646.162h0l2.644.163h0l2.645.163h0l2.646.163h0l2.645.163h0l2.644.163h0l2.645.163h0l2.645.163h0l2.645.163h0l3.156.194h0l2.645.163h0l2.135.131h0l2.645.163h0l3.156.194h0l2.134.131h0l2.645.163h0l2.645.163h0l3.156.194h0l2.134.131h0l2.645.163h0l2.645.163h0l3.156.194h0l2.134.131h0l2.645.163h0l2.829.174,2.972.183h0l2.134.131h0l2.645.163h0l3.156.194h0l2.134.131h0l2.645.163h0l2.645.163h0l3.156.194h0l2.134.131h0l2.645.163h0l2.646.163h0l3.156.194h0l2.134.131h0l3.156.194h0l2.135.131h0l3.156.194h0l2.644.162h0l2.135.131h0l2.645.163h0l3.156.194h0l2.134.131h0l2.645.163h0l3.156.194h0l2.646.163h0l2.134.131h0l2.645.162h0l3.156.194h0l2.646.163h0l2.134.131h0l2.645.163h0l2.645.163h0l.327.02.184.011h0l2.645.163h0l2.134.131h0l2.645.163h0l3.156.194h0l2.134.131h0l2.645.163h0l2.646.163h0l3.156.194h0l2.134.131h0l2.645.163h0l2.829.174,2.972.183h0l2.134.131h0l2.829.174,2.972.183h0l2.645.163h0l2.134.131h0l2.645.163h0l2.646.163h0l3.156.194h0l2.134.131h0l2.646.163h0l2.645.163h0l3.156.194h0l2.134.131h0l2.645.163h0l2.645.163h0l3.156.194h0l2.134.131h0l2.645.163h0l2.645.163h0l3.156.194h0l2.134.131h0l3.156.194h0l2.645.163h0l2.134.131h0l2.645.163h0l3.156.194h0l2.646.163h0l2.644.163.04-.648-2.645-.163h0l-2.645-.163h0l-2.645-.163h0l-2.645-.163h0l-2.645-.162h0l-2.645-.163h0l-2.645-.163h0l-3.156-.194h0l-2.134-.131h0l-2.645-.163h0l-2.646-.163h0l-3.156-.194h0l-2.134-.131h0l-2.645-.163h0l-2.646-.163h0l-2.644-.163h0l-2.645-.163h0l-2.646-.163h0l-2.645-.163h0l-2.645-.163h0l-2.645-.163h0l-3.156-.194h0l-2.135-.131h0l-2.644-.163h0l-3.156-.194h0l-2.135-.131h0l-2.645-.163h0l-2.644-.163h0l-2.645-.163h0l-2.646-.163h0l-2.645-.163h0l-2.644-.163h0l-2.645-.163h0l-2.645-.163h0l-2.646-.163h0l-2.644-.162h0l-2.645-.163h0l-2.645-.163h0l-2.644-.163h0l-2.646-.163h0l-2.645-.163h0l-2.646-.163h0l-2.644-.162h0l-2.645-.163h0l-2.645-.163h0l-2.645-.163h0l-2.645-.163h0l-2.645-.163h0l-2.645-.163h0l-3.156-.194h0l-2.134-.131h0l-2.646-.163h0l-3.156-.194h0l-2.135-.131h0l-2.644-.163h0l-2.645-.163h0l-2.646-.163h0l-2.645-.163h0l-2.645-.162h0l-2.645-.163h0l-2.645-.163h0l-2.646-.163h0l-2.644-.163h0l-2.646-.163h0l-2.645-.163h0l-2.645-.163h0l-2.644-.162h0l-2.645-.163h0l-2.645-.163h0l-2.644-.163h0l-2.646-.163h0l-2.645-.163h0l-2.645-.163h0l-2.644-.163h0l-2.645-.163h0l-2.645-.163h0l-2.645-.163h0l-2.645-.163h0l-2.645-.163h0l-2.645-.163h0l-3.156-.194h0l-2.134-.131h0l-2.645-.163h0l-3.156-.194h0l-2.135-.131h0l-2.645-.162h0l-2.645-.163h0l-2.645-.162h0l-2.645-.163h0l-2.644-.162h0l-2.645-.163h0l-2.646-.163h0l-2.645-.163h0l-2.645-.163h0l-3.156-.194h0l-2.135-.131h0l-2.645-.163h0l-2.644-.163h0l-2.645-.163h0l-3.156-.194-.04.648,3.156.194Z" fill="#ff886b"/>
      <path id="Path_760" data-name="Path 760" d="M962.422,1051.276l2.644.163h0l2.645.163h0l2.645.163h0l2.645.163h0l2.645.163h0l3.156.194h0l2.135.131h0l2.646.163h0l2.644.162h0l2.646.163h0l2.645.162h0l2.645.163h0l2.645.162h0l2.645.163h0l2.645.163h0l2.646.163h0l2.644.163h0l2.645.163h0l2.645.163h0l3.156.194h0l2.134.131h0l2.645.163h0l3.156.194h0l2.135.131h0l2.644.163h0l2.645.163h0l2.645.163h0l2.645.163h0l2.644.163h0l2.645.163h0l2.645.163h0l2.644.162h0l2.646.163h0l2.645.163h0l2.646.163h0l2.644.163h0l3.156.194h0l2.135.131h0l2.645.163h0l2.645.162h0l2.645.163h0l2.645.163h0l2.645.163h0l2.644.163h0l2.646.163h0l2.645.163h0l2.645.163h0l2.645.162h0l2.645.163h0l2.646.163h0l3.156.194h0l2.134.131h0l2.645.163h0l2.645.163h0l2.646.163h0l2.644.162h0l2.645.163h0l2.645.163h0l2.645.163h0l3.156.194h0l2.134.131h0l2.646.163h0l2.644.162h0l2.645.163h0l3.156.194h0l2.134.131h0l2.645.163h0l3.156.194h0l2.135.131h0l2.645.163h0l2.644.163h0l2.646.163h0l2.645.163h0l2.645.163h0l2.644.163h0l2.646.163h0l2.645.163h0l2.645.163h0l3.156.194h0l2.134.131h0l2.645.163h0l2.646.163h0l3.156.194h0l2.134.131h0l2.645.162h0l2.645.163h0l3.156.194h0l2.134.131h0l2.646.163h0l2.645.162h0l3.156.194h0l2.134.131h0l3.156.194h0l2.134.131h0l2.645.163h0l3.156.194h0l2.135.131h0l2.644.163h0l3.156.194.04-.648-2.644-.163h0l-3.156-.194h0l-2.135-.131h0l-2.646-.163h0l-2.644-.162h0l-2.645-.163h0l-2.646-.163h0l-2.644-.162h0l-2.646-.163h0l-2.645-.163h0l-2.645-.163h0l-2.644-.163h0l-2.645-.163h0l-2.645-.163h0l-2.646-.163h0l-2.644-.163h0l-2.646-.163h0l-2.645-.163h0l-2.645-.163h0l-2.645-.163h0l-2.645-.163h0l-2.645-.163h0l-2.645-.163h0l-2.645-.163h0l-2.645-.163h0l-2.645-.163h0l-2.646-.163h0l-2.644-.162h0l-2.646-.163h0l-3.156-.194h0l-2.135-.131h0l-2.644-.163h0l-3.156-.194h0l-2.135-.131h0l-2.645-.163h0l-2.645-.163h0l-2.645-.163h0l-2.645-.163h0l-2.645-.162h0l-2.645-.163h0l-2.646-.163h0l-2.645-.163h0l-2.644-.163h0l-3.156-.194h0l-2.135-.131h0l-2.646-.163h0l-2.644-.162h0l-2.645-.163h0l-2.645-.163h0l-2.645-.163h0l-2.645-.163h0l-2.645-.162h0l-2.645-.163h0l-2.645-.163h0l-2.645-.162h0l-2.645-.163h0l-2.645-.162h0l-2.83-.174-2.972-.183h0l-2.134-.131h0l-3.156-.194h0l-2.135-.131h0l-3.156-.194h0l-2.134-.131h0l-2.645-.163h0l-2.645-.163h0l-3.156-.194h0l-2.134-.131h0l-2.645-.163h0l-2.644-.163h0l-2.645-.163h0l-2.645-.163h0l-2.646-.163h0l-2.644-.162h0l-3.156-.194h0l-2.135-.131h0l-2.645-.163h0l-3.156-.194h0l-2.134-.131h0l-2.645-.163h0l-2.645-.162h0l-3.156-.194h0l-2.134-.131h0l-2.645-.163h0l-2.645-.163h0l-3.156-.194h0l-2.134-.131h0l-2.645-.163h0l-2.83-.174-2.972-.183h0l-2.134-.131h0l-2.645-.163h0l-2.645-.163h0l-3.156-.194h0l-2.134-.131h0l-2.645-.163h0l-3.156-.194h0l-2.645-.163h0l-2.134-.131h0l-3.156-.194-.04.648,2.645.163Z" fill="#ff886b"/>
      <path id="Path_761" data-name="Path 761" d="M961.072,1073.235l3.156.194h0l2.134.131h0l2.645.163h0l2.645.163h0l3.156.194h0l2.134.131h0l2.645.163h0l2.646.163h0l3.156.194h0l2.134.131h0l2.645.163h0l2.645.163h0l3.156.194h0l2.134.131h0l3.156.194h0l2.135.131h0l2.644.163h0l2.645.163h0l2.646.163h0l2.645.163h0l2.644.162h0l2.645.162h0l2.645.163h0l2.645.163h0l2.644.162h0l2.645.163h0l2.645.163h0l2.645.163h0l2.644.163h0l2.646.163h0l2.645.163h0l3.156.194h0l2.134.131h0l2.646.163h0l2.645.163h0l2.644.162h0l2.645.163h0l2.645.163h0l2.646.163h0l2.644.163h0l2.645.163h0l2.645.163h0l3.156.194h0l2.134.131h0l2.645.163h0l3.156.194h0l2.135.131h0l2.644.163h0l2.646.163h0l2.645.163h0l2.646.163h0l2.644.162h0l2.645.163h0l2.645.163h0l2.645.163h0l2.645.163h0l3.156.194h0l2.135.131h0l2.645.163h0l2.644.162h0l2.646.163h0l2.645.163h0l2.644.163h0l2.646.163h0l2.645.163h0l2.646.163h0l2.644.163h0l2.646.163h0l2.645.163h0l2.645.163h0l2.645.162h0l2.645.162h0l2.646.163h0l3.156.194h0l2.134.131h0l2.645.163h0l2.645.163h0l2.646.163h0l2.644.163h0l2.645.163h0l2.645.163h0l2.646.163h0l2.644.163h0l2.645.163h0l2.646.163h0l2.645.163h0l2.645.163h0l3.156.194h0l2.134.131h0l2.646.163h0l2.644.162h0l2.646.163h0l2.645.163h0l2.644.162h0l2.645.163h0l2.645.163h0l2.645.163h0l2.645.163h0l3.156.194.04-.648-3.156-.194h0l-2.134-.131h0l-2.646-.163h0l-2.645-.163h0l-3.156-.194h0l-2.134-.131h0l-3.156-.194h0l-2.134-.131h0l-2.645-.163h0l-3.156-.194h0l-2.135-.131h0l-3.156-.194h0l-2.134-.131h0l-2.646-.163h0l-2.646-.163h0l-3.156-.194h0l-2.134-.131h0l-2.646-.163h0l-2.645-.163h0l-3.156-.194h0l-2.645-.163h0l-2.135-.131h0l-2.646-.163h0l-3.156-.194h0l-2.134-.131h0l-2.645-.163h0l-2.645-.163h0l-3.156-.194h0l-2.134-.131h0l-2.646-.163h0l-3.156-.194h0l-2.645-.163h0l-2.134-.131h0l-2.645-.163h0L1130.4,1083h0l-2.645-.163h0l-2.134-.131h0l-2.829-.174-2.972-.183h0l-2.134-.131h0l-2.645-.163h0l-2.645-.163h0l-3.156-.194h0l-2.134-.131h0l-2.646-.163h0l-2.645-.162h0l-3.156-.194h0l-2.134-.131h0l-2.645-.163h0l-3.156-.194h0l-2.645-.163h0l-2.644-.162h0l-2.135-.131h0l-3.156-.194h0l-2.645-.163h0l-2.134-.131h0l-2.646-.163h0l-2.645-.163h0l-3.156-.194h0l-2.134-.131h0l-2.645-.163h0l-2.646-.163h0l-3.156-.194h0l-2.134-.131h0l-2.645-.163h0l-2.645-.163h0l-.327-.02-.184-.011h0l-2.645-.163h0l-2.134-.131h0l-3.156-.194h0l-2.645-.163h0l-2.134-.131h0l-2.645-.163h0l-3.156-.194h0l-2.645-.163h0l-2.134-.131h0l-2.645-.163h0l-2.645-.163h0l-3.156-.194h0l-2.134-.131h0l-2.83-.174-2.461-.151h0l-3.156-.194h0l-2.644-.163h0l-2.135-.131h0l-2.645-.163h0l-3.156-.194h0l-2.134-.131h0l-2.645-.163h0l-2.645-.163h0l-3.156-.194h0l-2.134-.131h0l-3.156-.194h0l-2.135-.131h0l-3.156-.194h0l-2.134-.131h0l-2.645-.163h0l-2.645-.163h0l-3.156-.194h0l-2.134-.131h0l-3.156-.194-.04.648,2.645.163Z" fill="#ff886b"/>
      <path id="Path_762" data-name="Path 762" d="M1219.456,1111.164l2.645.163.04-.648-3.156-.194h0l-2.134-.131h0l-3.156-.194h0l-2.135-.131h0l-3.156-.194h0l-2.134-.131h0l-3.156-.194h0l-2.646-.163h0l-2.134-.131h0l-2.645-.162h0l-2.645-.163h0l-3.156-.194h0l-2.134-.131h0l-2.645-.163h0l-2.645-.163h0l-.327-.02-.184-.011h0l-2.645-.163h0l-2.134-.131h0l-2.645-.163h0l-2.645-.163h0l-3.156-.194h0l-2.134-.131h0l-3.156-.194h0l-2.135-.131h0l-3.156-.194h0l-2.134-.131h0l-3.156-.194h0l-2.135-.131h0l-3.156-.194h0l-2.318-.143-2.461-.151h0l-2.645-.163h0l-3.156-.194h0l-2.134-.131h0l-2.646-.163h0l-2.645-.163h0l-3.156-.194h0l-2.134-.131h0l-2.645-.163h0l-3.156-.194h0l-2.134-.131h0l-3.156-.194h0l-2.135-.131h0l-3.156-.194h0l-2.134-.131h0l-3.156-.194h0l-2.135-.131h0l-3.156-.194h0l-2.134-.131h0l-2.646-.163h0l-2.645-.163h0l-3.156-.194h0l-2.134-.131h0l-2.645-.163h0l-2.645-.163h0l-3.156-.194h0l-2.134-.131h0l-2.645-.163h0l-.327-.02-.184-.011h0l-2.135-.131h0l-3.156-.194h0l-2.318-.142-2.461-.151h0l-2.645-.163h0l-3.156-.194h0l-2.645-.162h0l-2.135-.131h0l-2.645-.163h0l-3.156-.194h0l-2.134-.131h0l-2.645-.163h0l-3.156-.194h0l-2.134-.131h0l-2.645-.163h0l-2.645-.163h0l-3.156-.194h0l-2.134-.131h0l-2.645-.163h0l-2.645-.163h0l-3.156-.194h0l-2.134-.131h0l-2.645-.163h0l-2.645-.163h0l-3.156-.194h0l-2.644-.163h0l-2.135-.131h0l-3.156-.194h0l-2.645-.163h0l-2.644-.162h0l-2.135-.131h0l-.327-.02-.184-.011h0l-2.135-.131h0l-3.156-.194h0l-2.134-.131h0l-2.645-.163h0l-2.645-.163h0l-3.156-.194h0l-2.134-.131h0l-2.646-.163h0l-2.645-.163h0l-3.156-.194h0l-2.134-.131h0l-3.156-.194-.04.648,2.646.163h0l3.156.194h0l2.134.131h0l3.156.194h0l2.135.131h0l3.156.194h0l2.134.131h0l2.645.163h0l.327.02.184.011h0l2.135.131h0l3.156.194h0l2.318.142,2.461.151h0l2.645.163h0l3.156.194h0l2.134.131h0l2.645.163h0l2.645.163h0l3.156.194h0l2.644.163h0l2.135.131h0l2.645.163h0l3.156.194h0l2.644.163h0l2.135.131h0l3.156.194h0l2.645.163h0l2.134.131h0l2.645.163h0l2.645.163h0l3.156.194h0l2.134.131h0l2.646.163h0l3.156.194h0l2.134.131h0l2.645.163h0l3.156.194h0l2.645.163h0l2.644.163h0l2.135.131h0l.327.02.184.011h0l2.134.131h0l3.156.194h0l2.645.163h0l2.135.131h0l2.645.163h0l3.156.194h0l2.134.131h0l2.645.163h0l2.645.163h0l3.156.194h0l2.134.131h0l2.645.163h0l2.645.163h0l3.156.194h0l2.134.131h0l2.645.163h0l2.645.163h0l3.156.194h0l2.134.131h0l2.645.162h0l2.646.163h0l3.156.194h0l2.134.131h0l2.646.163h0l3.156.194h0l2.134.131h0l2.645.163h0l3.156.194h0l2.645.163h0l2.134.131h0l3.156.194h0l2.135.131h0l3.156.194h0l2.134.131h0l2.645.163h0l2.646.163h0l3.156.194h0l2.134.131h0l2.646.163h0l2.645.163h0l3.156.194h0l2.134.131h0l.327.02.184.011h0l2.135.131h0l2.645.163h0l3.156.194h0l2.134.131h0l2.645.163h0l2.645.163h0l2.645.163h0l2.645.163h0l2.645.163h0l2.645.163h0l2.644.163h0l2.645.163h0l2.646.163h0l3.156.194h0l2.134.131h0l2.646.163h0l3.156.194h0l2.645.163Z" fill="#ff886b"/>
    </g>
    <g id="Group_192" data-name="Group 192" transform="translate(20.287 -2128.663)">
      <path id="Path_763" data-name="Path 763" d="M1046.495,815.88c-1.877-3.186-4.226-6.057-6.133-9.222a21.352,21.352,0,0,1-2.134-3.995l-108.515,64.1c2.178,1.9,3.955,6.065,5.1,7.926,3.624,5.882,7.237,11.775,10.629,17.793l108.224-63.934C1050.647,824.832,1048.96,820.065,1046.495,815.88Z" fill="#ffc2c7" opacity="0.8"/>
    </g>
  </g>
</svg>
