<svg xmlns="http://www.w3.org/2000/svg" width="313.429" height="339.008" viewBox="0 0 313.429 339.008">
  <g id="Group_197" data-name="Group 197" transform="translate(-557.255 1325.488)">
    <path id="Path_135" data-name="Path 135" d="M1629.385,338.97h0l-16.1-257.414L1320.956,99.84l18.285,292.328,257.414-16.1,32.73-37.1Z" transform="translate(-758.701 -1378.648)" fill="#cfd0d2"/>
    <g id="Group_187" data-name="Group 187" transform="translate(-758.701 -1378.648)">
      <path id="Path_136" data-name="Path 136" d="M1608.284,76.555,1315.956,94.84l18.285,292.328,257.414-16.1,32.73-37.1Z" fill="#ff866b"/>
    </g>
    <g id="Group_188" data-name="Group 188" transform="translate(-758.701 -1378.648)">
      <path id="Path_137" data-name="Path 137" d="M1341.171,132.233a.946.946,0,0,1,.9-1.066,1.01,1.01,0,1,1-.9,1.066Z" fill="#e67960"/>
      <path id="Path_138" data-name="Path 138" d="M1346.074,131.927a.946.946,0,0,1,.9-1.066,1.01,1.01,0,0,1,.109,2.014A.944.944,0,0,1,1346.074,131.927Z" fill="#e67960"/>
      <path id="Path_139" data-name="Path 139" d="M1350.975,131.62a.946.946,0,0,1,.9-1.066,1.01,1.01,0,1,1-.9,1.066Z" fill="#e67960"/>
      <path id="Path_140" data-name="Path 140" d="M1355.878,131.314a.946.946,0,0,1,.9-1.067,1.01,1.01,0,1,1-.9,1.067Z" fill="#e67960"/>
      <path id="Path_141" data-name="Path 141" d="M1360.78,131.007a.946.946,0,0,1,.9-1.066,1.01,1.01,0,0,1,.11,2.014A.944.944,0,0,1,1360.78,131.007Z" fill="#e67960"/>
      <path id="Path_142" data-name="Path 142" d="M1365.682,130.7a.946.946,0,0,1,.9-1.066,1.01,1.01,0,0,1,.109,2.014A.944.944,0,0,1,1365.682,130.7Z" fill="#e67960"/>
      <path id="Path_143" data-name="Path 143" d="M1370.584,130.394a.947.947,0,0,1,.9-1.067,1.011,1.011,0,1,1-.9,1.067Z" fill="#e67960"/>
      <path id="Path_144" data-name="Path 144" d="M1375.487,130.087a.946.946,0,0,1,.9-1.066,1.01,1.01,0,0,1,.109,2.014A.943.943,0,0,1,1375.487,130.087Z" fill="#e67960"/>
      <path id="Path_145" data-name="Path 145" d="M1380.388,129.78a.946.946,0,0,1,.9-1.066,1.01,1.01,0,1,1-.9,1.066Z" fill="#e67960"/>
      <path id="Path_146" data-name="Path 146" d="M1385.291,129.474a.946.946,0,0,1,.9-1.066,1.01,1.01,0,0,1,.109,2.014A.944.944,0,0,1,1385.291,129.474Z" fill="#e67960"/>
      <path id="Path_147" data-name="Path 147" d="M1390.193,129.167a.947.947,0,0,1,.9-1.066,1.01,1.01,0,0,1,.109,2.014A.944.944,0,0,1,1390.193,129.167Z" fill="#e67960"/>
      <path id="Path_148" data-name="Path 148" d="M1395.095,128.861a.947.947,0,0,1,.9-1.067,1.01,1.01,0,1,1-.9,1.067Z" fill="#e67960"/>
      <path id="Path_149" data-name="Path 149" d="M1400,128.554a.947.947,0,0,1,.9-1.066A1.01,1.01,0,0,1,1401,129.5.944.944,0,0,1,1400,128.554Z" fill="#e67960"/>
      <path id="Path_150" data-name="Path 150" d="M1404.9,128.247a.946.946,0,0,1,.9-1.066,1.01,1.01,0,0,1,.109,2.014A.943.943,0,0,1,1404.9,128.247Z" fill="#e67960"/>
      <path id="Path_151" data-name="Path 151" d="M1409.8,127.941a.947.947,0,0,1,.9-1.067,1.011,1.011,0,0,1,.109,2.015A.944.944,0,0,1,1409.8,127.941Z" fill="#e67960"/>
      <path id="Path_152" data-name="Path 152" d="M1414.7,127.634a.946.946,0,0,1,.9-1.066,1.01,1.01,0,0,1,.11,2.014A.944.944,0,0,1,1414.7,127.634Z" fill="#e67960"/>
      <path id="Path_153" data-name="Path 153" d="M1419.606,127.327a.946.946,0,0,1,.9-1.066,1.01,1.01,0,1,1-.9,1.066Z" fill="#e67960"/>
      <path id="Path_154" data-name="Path 154" d="M1424.508,127.021a.947.947,0,0,1,.9-1.067,1.011,1.011,0,1,1-.9,1.067Z" fill="#e67960"/>
      <path id="Path_155" data-name="Path 155" d="M1429.411,126.714a.946.946,0,0,1,.9-1.066,1.01,1.01,0,0,1,.109,2.014A.944.944,0,0,1,1429.411,126.714Z" fill="#e67960"/>
      <path id="Path_156" data-name="Path 156" d="M1434.312,126.408a.947.947,0,0,1,.9-1.067,1.01,1.01,0,1,1-.9,1.067Z" fill="#e67960"/>
      <path id="Path_157" data-name="Path 157" d="M1439.215,126.1a.946.946,0,0,1,.9-1.066,1.01,1.01,0,0,1,.109,2.014A.944.944,0,0,1,1439.215,126.1Z" fill="#e67960"/>
      <path id="Path_158" data-name="Path 158" d="M1444.117,125.794a.946.946,0,0,1,.9-1.066,1.01,1.01,0,0,1,.11,2.014A.944.944,0,0,1,1444.117,125.794Z" fill="#e67960"/>
      <path id="Path_159" data-name="Path 159" d="M1449.019,125.488a.947.947,0,0,1,.9-1.067,1.011,1.011,0,1,1-.9,1.067Z" fill="#e67960"/>
      <path id="Path_160" data-name="Path 160" d="M1453.921,125.181a.947.947,0,0,1,.9-1.066,1.01,1.01,0,0,1,.109,2.014A.944.944,0,0,1,1453.921,125.181Z" fill="#e67960"/>
      <path id="Path_161" data-name="Path 161" d="M1458.824,124.874a.946.946,0,0,1,.9-1.066,1.01,1.01,0,0,1,.109,2.014A.944.944,0,0,1,1458.824,124.874Z" fill="#e67960"/>
      <path id="Path_162" data-name="Path 162" d="M1463.725,124.568a.947.947,0,0,1,.9-1.067,1.011,1.011,0,1,1-.9,1.067Z" fill="#e67960"/>
      <path id="Path_163" data-name="Path 163" d="M1468.628,124.261a.946.946,0,0,1,.9-1.066,1.01,1.01,0,1,1-.9,1.066Z" fill="#e67960"/>
      <path id="Path_164" data-name="Path 164" d="M1473.531,123.954a.946.946,0,0,1,.9-1.066,1.01,1.01,0,1,1-.9,1.066Z" fill="#e67960"/>
      <path id="Path_165" data-name="Path 165" d="M1478.432,123.648a.946.946,0,0,1,.9-1.066,1.01,1.01,0,0,1,.11,2.014A.944.944,0,0,1,1478.432,123.648Z" fill="#e67960"/>
      <path id="Path_166" data-name="Path 166" d="M1483.335,123.341a.946.946,0,0,1,.9-1.066,1.01,1.01,0,0,1,.109,2.014A.944.944,0,0,1,1483.335,123.341Z" fill="#e67960"/>
      <path id="Path_167" data-name="Path 167" d="M1488.236,123.035a.947.947,0,0,1,.9-1.067,1.011,1.011,0,0,1,.11,2.015A.944.944,0,0,1,1488.236,123.035Z" fill="#e67960"/>
      <path id="Path_168" data-name="Path 168" d="M1493.139,122.728a.946.946,0,0,1,.9-1.066,1.01,1.01,0,0,1,.109,2.014A.944.944,0,0,1,1493.139,122.728Z" fill="#e67960"/>
      <path id="Path_169" data-name="Path 169" d="M1498.041,122.421a.946.946,0,0,1,.9-1.066,1.01,1.01,0,0,1,.11,2.014A.944.944,0,0,1,1498.041,122.421Z" fill="#e67960"/>
      <path id="Path_170" data-name="Path 170" d="M1502.943,122.115a.947.947,0,0,1,.9-1.067,1.011,1.011,0,1,1-.9,1.067Z" fill="#e67960"/>
      <path id="Path_171" data-name="Path 171" d="M1507.845,121.808a.946.946,0,0,1,.9-1.066,1.01,1.01,0,0,1,.11,2.014A.944.944,0,0,1,1507.845,121.808Z" fill="#e67960"/>
      <path id="Path_172" data-name="Path 172" d="M1512.748,121.5a.946.946,0,0,1,.9-1.066,1.01,1.01,0,1,1-.9,1.066Z" fill="#e67960"/>
      <path id="Path_173" data-name="Path 173" d="M1517.649,121.195a.947.947,0,0,1,.9-1.066,1.01,1.01,0,0,1,.109,2.014A.944.944,0,0,1,1517.649,121.195Z" fill="#e67960"/>
      <path id="Path_174" data-name="Path 174" d="M1522.552,120.888a.946.946,0,0,1,.9-1.066,1.01,1.01,0,0,1,.109,2.014A.944.944,0,0,1,1522.552,120.888Z" fill="#e67960"/>
      <path id="Path_175" data-name="Path 175" d="M1527.454,120.582a.947.947,0,0,1,.9-1.067,1.01,1.01,0,1,1-.9,1.067Z" fill="#e67960"/>
      <path id="Path_176" data-name="Path 176" d="M1532.356,120.275a.946.946,0,0,1,.9-1.066,1.01,1.01,0,0,1,.109,2.014A.944.944,0,0,1,1532.356,120.275Z" fill="#e67960"/>
      <path id="Path_177" data-name="Path 177" d="M1537.259,119.968a.945.945,0,0,1,.9-1.066,1.01,1.01,0,1,1-.9,1.066Z" fill="#e67960"/>
      <path id="Path_178" data-name="Path 178" d="M1542.161,119.662a.947.947,0,0,1,.9-1.067,1.011,1.011,0,1,1-.9,1.067Z" fill="#e67960"/>
      <path id="Path_179" data-name="Path 179" d="M1547.063,119.355a.946.946,0,0,1,.9-1.066,1.01,1.01,0,0,1,.109,2.014A.944.944,0,0,1,1547.063,119.355Z" fill="#e67960"/>
      <path id="Path_180" data-name="Path 180" d="M1551.965,119.048a.946.946,0,0,1,.9-1.066,1.01,1.01,0,1,1-.9,1.066Z" fill="#e67960"/>
      <path id="Path_181" data-name="Path 181" d="M1556.868,118.742a.947.947,0,0,1,.9-1.067,1.011,1.011,0,1,1-.9,1.067Z" fill="#e67960"/>
      <path id="Path_182" data-name="Path 182" d="M1561.769,118.435a.946.946,0,0,1,.9-1.066,1.01,1.01,0,0,1,.11,2.014A.944.944,0,0,1,1561.769,118.435Z" fill="#e67960"/>
      <path id="Path_183" data-name="Path 183" d="M1566.672,118.129a.946.946,0,0,1,.9-1.067,1.01,1.01,0,1,1-.9,1.067Z" fill="#e67960"/>
      <path id="Path_184" data-name="Path 184" d="M1571.574,117.822a.946.946,0,0,1,.9-1.066,1.01,1.01,0,0,1,.11,2.014A.944.944,0,0,1,1571.574,117.822Z" fill="#e67960"/>
      <path id="Path_185" data-name="Path 185" d="M1576.476,117.515a.946.946,0,0,1,.9-1.066,1.01,1.01,0,0,1,.109,2.014A.944.944,0,0,1,1576.476,117.515Z" fill="#e67960"/>
      <path id="Path_186" data-name="Path 186" d="M1581.378,117.209a.947.947,0,0,1,.9-1.067,1.011,1.011,0,1,1-.9,1.067Z" fill="#e67960"/>
      <path id="Path_187" data-name="Path 187" d="M1586.28,116.9a.946.946,0,0,1,.9-1.066,1.01,1.01,0,0,1,.109,2.014A.944.944,0,0,1,1586.28,116.9Z" fill="#e67960"/>
      <path id="Path_188" data-name="Path 188" d="M1342.482,153.193a.947.947,0,0,1,.9-1.067,1.01,1.01,0,1,1-.9,1.067Z" fill="#e67960"/>
      <path id="Path_189" data-name="Path 189" d="M1347.385,152.886a.945.945,0,0,1,.9-1.066,1.01,1.01,0,0,1,.109,2.014A.944.944,0,0,1,1347.385,152.886Z" fill="#e67960"/>
      <path id="Path_190" data-name="Path 190" d="M1352.286,152.579a.946.946,0,0,1,.9-1.066,1.01,1.01,0,1,1-.9,1.066Z" fill="#e67960"/>
      <path id="Path_191" data-name="Path 191" d="M1357.189,152.273a.947.947,0,0,1,.9-1.067,1.011,1.011,0,1,1-.9,1.067Z" fill="#e67960"/>
      <path id="Path_192" data-name="Path 192" d="M1362.091,151.966a.947.947,0,0,1,.9-1.066,1.01,1.01,0,0,1,.11,2.014A.944.944,0,0,1,1362.091,151.966Z" fill="#e67960"/>
      <path id="Path_193" data-name="Path 193" d="M1366.993,151.659a.946.946,0,0,1,.9-1.066,1.01,1.01,0,0,1,.109,2.014A.943.943,0,0,1,1366.993,151.659Z" fill="#e67960"/>
      <path id="Path_194" data-name="Path 194" d="M1371.9,151.353a.947.947,0,0,1,.9-1.067,1.011,1.011,0,1,1-.9,1.067Z" fill="#e67960"/>
      <path id="Path_195" data-name="Path 195" d="M1376.8,151.046a.946.946,0,0,1,.9-1.066,1.01,1.01,0,0,1,.109,2.014A.944.944,0,0,1,1376.8,151.046Z" fill="#e67960"/>
      <path id="Path_196" data-name="Path 196" d="M1381.7,150.74a.947.947,0,0,1,.9-1.067,1.01,1.01,0,1,1-.9,1.067Z" fill="#e67960"/>
      <path id="Path_197" data-name="Path 197" d="M1386.6,150.433a.946.946,0,0,1,.9-1.066,1.01,1.01,0,0,1,.109,2.014A.943.943,0,0,1,1386.6,150.433Z" fill="#e67960"/>
      <path id="Path_198" data-name="Path 198" d="M1391.5,150.126a.946.946,0,0,1,.9-1.066,1.01,1.01,0,0,1,.11,2.014A.944.944,0,0,1,1391.5,150.126Z" fill="#e67960"/>
      <path id="Path_199" data-name="Path 199" d="M1396.406,149.82a.947.947,0,0,1,.9-1.067,1.01,1.01,0,1,1-.9,1.067Z" fill="#e67960"/>
      <path id="Path_200" data-name="Path 200" d="M1401.308,149.513a.946.946,0,0,1,.9-1.066,1.01,1.01,0,0,1,.11,2.014A.944.944,0,0,1,1401.308,149.513Z" fill="#e67960"/>
      <path id="Path_201" data-name="Path 201" d="M1406.21,149.206a.946.946,0,0,1,.9-1.066,1.01,1.01,0,0,1,.109,2.014A.944.944,0,0,1,1406.21,149.206Z" fill="#e67960"/>
      <path id="Path_202" data-name="Path 202" d="M1411.112,148.9a.947.947,0,0,1,.9-1.067,1.011,1.011,0,1,1-.9,1.067Z" fill="#e67960"/>
      <path id="Path_203" data-name="Path 203" d="M1416.015,148.593a.946.946,0,0,1,.9-1.066,1.01,1.01,0,0,1,.11,2.014A.944.944,0,0,1,1416.015,148.593Z" fill="#e67960"/>
      <path id="Path_204" data-name="Path 204" d="M1420.917,148.286a.946.946,0,0,1,.9-1.066,1.01,1.01,0,1,1-.9,1.066Z" fill="#e67960"/>
      <path id="Path_205" data-name="Path 205" d="M1425.819,147.98a.946.946,0,0,1,.9-1.066,1.01,1.01,0,0,1,.11,2.014A.944.944,0,0,1,1425.819,147.98Z" fill="#e67960"/>
      <path id="Path_206" data-name="Path 206" d="M1430.722,147.673a.946.946,0,0,1,.9-1.066,1.01,1.01,0,0,1,.109,2.014A.943.943,0,0,1,1430.722,147.673Z" fill="#e67960"/>
      <path id="Path_207" data-name="Path 207" d="M1435.623,147.367a.947.947,0,0,1,.9-1.067,1.01,1.01,0,1,1-.9,1.067Z" fill="#e67960"/>
      <path id="Path_208" data-name="Path 208" d="M1440.526,147.06a.946.946,0,0,1,.9-1.066,1.01,1.01,0,0,1,.109,2.014A.944.944,0,0,1,1440.526,147.06Z" fill="#e67960"/>
      <path id="Path_209" data-name="Path 209" d="M1445.428,146.753a.946.946,0,0,1,.9-1.066,1.01,1.01,0,0,1,.11,2.014A.944.944,0,0,1,1445.428,146.753Z" fill="#e67960"/>
      <path id="Path_210" data-name="Path 210" d="M1450.33,146.447a.947.947,0,0,1,.9-1.067,1.011,1.011,0,1,1-.9,1.067Z" fill="#e67960"/>
      <path id="Path_211" data-name="Path 211" d="M1455.232,146.14a.946.946,0,0,1,.9-1.066,1.01,1.01,0,0,1,.11,2.014A.944.944,0,0,1,1455.232,146.14Z" fill="#e67960"/>
      <path id="Path_212" data-name="Path 212" d="M1460.135,145.833a.946.946,0,0,1,.9-1.066,1.01,1.01,0,0,1,.109,2.014A.944.944,0,0,1,1460.135,145.833Z" fill="#e67960"/>
      <path id="Path_213" data-name="Path 213" d="M1465.036,145.527a.946.946,0,0,1,.9-1.066,1.01,1.01,0,0,1,.11,2.014A.944.944,0,0,1,1465.036,145.527Z" fill="#e67960"/>
      <path id="Path_214" data-name="Path 214" d="M1469.939,145.22a.946.946,0,0,1,.9-1.066,1.01,1.01,0,1,1-.9,1.066Z" fill="#e67960"/>
      <path id="Path_215" data-name="Path 215" d="M1474.842,144.914a.946.946,0,0,1,.9-1.067,1.01,1.01,0,1,1-.9,1.067Z" fill="#e67960"/>
      <path id="Path_216" data-name="Path 216" d="M1479.743,144.607a.946.946,0,0,1,.9-1.066,1.01,1.01,0,1,1-.9,1.066Z" fill="#e67960"/>
      <path id="Path_217" data-name="Path 217" d="M1484.646,144.3a.946.946,0,0,1,.9-1.066,1.01,1.01,0,1,1-.9,1.066Z" fill="#e67960"/>
      <path id="Path_218" data-name="Path 218" d="M1489.547,143.994a.947.947,0,0,1,.9-1.067,1.011,1.011,0,1,1-.9,1.067Z" fill="#e67960"/>
      <path id="Path_219" data-name="Path 219" d="M1494.45,143.687a.946.946,0,0,1,.9-1.066,1.01,1.01,0,0,1,.109,2.014A.944.944,0,0,1,1494.45,143.687Z" fill="#e67960"/>
      <path id="Path_220" data-name="Path 220" d="M1499.352,143.38a.946.946,0,0,1,.9-1.066,1.01,1.01,0,0,1,.11,2.014A.944.944,0,0,1,1499.352,143.38Z" fill="#e67960"/>
      <path id="Path_221" data-name="Path 221" d="M1504.254,143.074a.947.947,0,0,1,.9-1.067,1.011,1.011,0,1,1-.9,1.067Z" fill="#e67960"/>
      <path id="Path_222" data-name="Path 222" d="M1509.156,142.767a.946.946,0,0,1,.9-1.066,1.01,1.01,0,0,1,.11,2.014A.944.944,0,0,1,1509.156,142.767Z" fill="#e67960"/>
      <path id="Path_223" data-name="Path 223" d="M1514.059,142.461a.946.946,0,0,1,.9-1.067,1.01,1.01,0,1,1-.9,1.067Z" fill="#e67960"/>
      <path id="Path_224" data-name="Path 224" d="M1518.96,142.154a.946.946,0,0,1,.9-1.066,1.01,1.01,0,0,1,.11,2.014A.944.944,0,0,1,1518.96,142.154Z" fill="#e67960"/>
      <path id="Path_225" data-name="Path 225" d="M1523.863,141.847a.946.946,0,0,1,.9-1.066,1.01,1.01,0,0,1,.109,2.014A.944.944,0,0,1,1523.863,141.847Z" fill="#e67960"/>
      <path id="Path_226" data-name="Path 226" d="M1528.765,141.541a.947.947,0,0,1,.9-1.067,1.011,1.011,0,0,1,.109,2.015A.944.944,0,0,1,1528.765,141.541Z" fill="#e67960"/>
      <path id="Path_227" data-name="Path 227" d="M1533.667,141.234a.946.946,0,0,1,.9-1.066,1.01,1.01,0,1,1-.9,1.066Z" fill="#e67960"/>
      <path id="Path_228" data-name="Path 228" d="M1538.569,140.927a.947.947,0,0,1,.9-1.066,1.01,1.01,0,0,1,.109,2.014A.944.944,0,0,1,1538.569,140.927Z" fill="#e67960"/>
      <path id="Path_229" data-name="Path 229" d="M1543.472,140.621a.947.947,0,0,1,.9-1.067,1.011,1.011,0,0,1,.109,2.015A.943.943,0,0,1,1543.472,140.621Z" fill="#e67960"/>
      <path id="Path_230" data-name="Path 230" d="M1548.373,140.314a.947.947,0,0,1,.9-1.066,1.01,1.01,0,0,1,.109,2.014A.944.944,0,0,1,1548.373,140.314Z" fill="#e67960"/>
      <path id="Path_231" data-name="Path 231" d="M1553.276,140.008a.947.947,0,0,1,.9-1.067,1.01,1.01,0,1,1-.9,1.067Z" fill="#e67960"/>
      <path id="Path_232" data-name="Path 232" d="M1558.179,139.7a.946.946,0,0,1,.9-1.066,1.01,1.01,0,0,1,.109,2.014A.944.944,0,0,1,1558.179,139.7Z" fill="#e67960"/>
      <path id="Path_233" data-name="Path 233" d="M1563.08,139.394a.946.946,0,0,1,.9-1.066,1.01,1.01,0,0,1,.11,2.014A.944.944,0,0,1,1563.08,139.394Z" fill="#e67960"/>
      <path id="Path_234" data-name="Path 234" d="M1567.983,139.088a.946.946,0,0,1,.9-1.067,1.01,1.01,0,1,1-.9,1.067Z" fill="#e67960"/>
      <path id="Path_235" data-name="Path 235" d="M1572.885,138.781a.946.946,0,0,1,.9-1.066,1.01,1.01,0,0,1,.11,2.014A.944.944,0,0,1,1572.885,138.781Z" fill="#e67960"/>
      <path id="Path_236" data-name="Path 236" d="M1577.787,138.474a.946.946,0,0,1,.9-1.066,1.01,1.01,0,0,1,.109,2.014A.944.944,0,0,1,1577.787,138.474Z" fill="#e67960"/>
      <path id="Path_237" data-name="Path 237" d="M1582.689,138.168a.947.947,0,0,1,.9-1.067,1.011,1.011,0,1,1-.9,1.067Z" fill="#e67960"/>
      <path id="Path_238" data-name="Path 238" d="M1587.591,137.861a.946.946,0,0,1,.9-1.066,1.01,1.01,0,0,1,.109,2.014A.944.944,0,0,1,1587.591,137.861Z" fill="#e67960"/>
      <path id="Path_239" data-name="Path 239" d="M1343.793,174.152a.947.947,0,0,1,.9-1.067,1.01,1.01,0,1,1-.9,1.067Z" fill="#e67960"/>
      <path id="Path_240" data-name="Path 240" d="M1348.695,173.845a.947.947,0,0,1,.9-1.066,1.01,1.01,0,0,1,.109,2.014A.944.944,0,0,1,1348.695,173.845Z" fill="#e67960"/>
      <path id="Path_241" data-name="Path 241" d="M1353.6,173.538a.946.946,0,0,1,.9-1.066,1.01,1.01,0,0,1,.11,2.014A.944.944,0,0,1,1353.6,173.538Z" fill="#e67960"/>
      <path id="Path_242" data-name="Path 242" d="M1358.5,173.232a.947.947,0,0,1,.9-1.067,1.011,1.011,0,1,1-.9,1.067Z" fill="#e67960"/>
      <path id="Path_243" data-name="Path 243" d="M1363.4,172.925a.946.946,0,0,1,.9-1.066,1.01,1.01,0,1,1-.9,1.066Z" fill="#e67960"/>
      <path id="Path_244" data-name="Path 244" d="M1368.3,172.618a.946.946,0,0,1,.9-1.066,1.01,1.01,0,0,1,.109,2.014A.944.944,0,0,1,1368.3,172.618Z" fill="#e67960"/>
      <path id="Path_245" data-name="Path 245" d="M1373.206,172.312a.947.947,0,0,1,.9-1.067,1.011,1.011,0,1,1-.9,1.067Z" fill="#e67960"/>
      <path id="Path_246" data-name="Path 246" d="M1378.109,172.005a.946.946,0,0,1,.9-1.066,1.01,1.01,0,0,1,.109,2.014A.944.944,0,0,1,1378.109,172.005Z" fill="#e67960"/>
      <path id="Path_247" data-name="Path 247" d="M1383.01,171.7a.947.947,0,0,1,.9-1.067,1.01,1.01,0,1,1-.9,1.067Z" fill="#e67960"/>
      <path id="Path_248" data-name="Path 248" d="M1387.913,171.392a.946.946,0,0,1,.9-1.066,1.01,1.01,0,0,1,.109,2.014A.944.944,0,0,1,1387.913,171.392Z" fill="#e67960"/>
      <path id="Path_249" data-name="Path 249" d="M1392.815,171.085a.947.947,0,0,1,.9-1.066,1.01,1.01,0,0,1,.11,2.014A.944.944,0,0,1,1392.815,171.085Z" fill="#e67960"/>
      <path id="Path_250" data-name="Path 250" d="M1397.717,170.779a.947.947,0,0,1,.9-1.067,1.011,1.011,0,1,1-.9,1.067Z" fill="#e67960"/>
      <path id="Path_251" data-name="Path 251" d="M1402.619,170.472a.946.946,0,0,1,.9-1.066,1.01,1.01,0,0,1,.11,2.014A.944.944,0,0,1,1402.619,170.472Z" fill="#e67960"/>
      <path id="Path_252" data-name="Path 252" d="M1407.521,170.165a.946.946,0,0,1,.9-1.066,1.01,1.01,0,1,1-.9,1.066Z" fill="#e67960"/>
      <path id="Path_253" data-name="Path 253" d="M1412.424,169.859a.947.947,0,0,1,.9-1.067,1.011,1.011,0,1,1-.9,1.067Z" fill="#e67960"/>
      <path id="Path_254" data-name="Path 254" d="M1417.326,169.552a.946.946,0,0,1,.9-1.066,1.01,1.01,0,0,1,.11,2.014A.944.944,0,0,1,1417.326,169.552Z" fill="#e67960"/>
      <path id="Path_255" data-name="Path 255" d="M1422.228,169.246a.946.946,0,0,1,.9-1.067,1.01,1.01,0,1,1-.9,1.067Z" fill="#e67960"/>
      <path id="Path_256" data-name="Path 256" d="M1427.13,168.939a.946.946,0,0,1,.9-1.066,1.01,1.01,0,0,1,.11,2.014A.944.944,0,0,1,1427.13,168.939Z" fill="#e67960"/>
      <path id="Path_257" data-name="Path 257" d="M1432.033,168.632a.946.946,0,0,1,.9-1.066,1.01,1.01,0,0,1,.109,2.014A.944.944,0,0,1,1432.033,168.632Z" fill="#e67960"/>
      <path id="Path_258" data-name="Path 258" d="M1436.934,168.326a.947.947,0,0,1,.9-1.067,1.011,1.011,0,1,1-.9,1.067Z" fill="#e67960"/>
      <path id="Path_259" data-name="Path 259" d="M1441.837,168.019a.946.946,0,0,1,.9-1.066,1.01,1.01,0,0,1,.109,2.014A.944.944,0,0,1,1441.837,168.019Z" fill="#e67960"/>
      <path id="Path_260" data-name="Path 260" d="M1446.739,167.712a.946.946,0,0,1,.9-1.066,1.01,1.01,0,0,1,.11,2.014A.944.944,0,0,1,1446.739,167.712Z" fill="#e67960"/>
      <path id="Path_261" data-name="Path 261" d="M1451.641,167.406a.947.947,0,0,1,.9-1.067,1.011,1.011,0,1,1-.9,1.067Z" fill="#e67960"/>
      <path id="Path_262" data-name="Path 262" d="M1456.543,167.1a.946.946,0,0,1,.9-1.066,1.01,1.01,0,0,1,.11,2.014A.944.944,0,0,1,1456.543,167.1Z" fill="#e67960"/>
      <path id="Path_263" data-name="Path 263" d="M1461.446,166.792a.946.946,0,0,1,.9-1.066,1.01,1.01,0,1,1-.9,1.066Z" fill="#e67960"/>
      <path id="Path_264" data-name="Path 264" d="M1466.347,166.486a.948.948,0,0,1,.9-1.067,1.011,1.011,0,1,1-.9,1.067Z" fill="#e67960"/>
      <path id="Path_265" data-name="Path 265" d="M1471.25,166.179a.946.946,0,0,1,.9-1.066,1.01,1.01,0,1,1-.9,1.066Z" fill="#e67960"/>
      <path id="Path_266" data-name="Path 266" d="M1476.152,165.873a.947.947,0,0,1,.9-1.067,1.01,1.01,0,1,1-.9,1.067Z" fill="#e67960"/>
      <path id="Path_267" data-name="Path 267" d="M1481.054,165.566a.946.946,0,0,1,.9-1.066,1.01,1.01,0,1,1-.9,1.066Z" fill="#e67960"/>
      <path id="Path_268" data-name="Path 268" d="M1485.957,165.259a.946.946,0,0,1,.9-1.066,1.01,1.01,0,0,1,.109,2.014A.944.944,0,0,1,1485.957,165.259Z" fill="#e67960"/>
      <path id="Path_269" data-name="Path 269" d="M1490.858,164.953a.947.947,0,0,1,.9-1.067,1.011,1.011,0,1,1-.9,1.067Z" fill="#e67960"/>
      <path id="Path_270" data-name="Path 270" d="M1495.761,164.646a.946.946,0,0,1,.9-1.066,1.01,1.01,0,0,1,.109,2.014A.944.944,0,0,1,1495.761,164.646Z" fill="#e67960"/>
      <path id="Path_271" data-name="Path 271" d="M1500.663,164.339a.946.946,0,0,1,.9-1.066,1.01,1.01,0,0,1,.11,2.014A.944.944,0,0,1,1500.663,164.339Z" fill="#e67960"/>
      <path id="Path_272" data-name="Path 272" d="M1505.565,164.033a.946.946,0,0,1,.9-1.066,1.01,1.01,0,0,1,.109,2.014A.944.944,0,0,1,1505.565,164.033Z" fill="#e67960"/>
      <path id="Path_273" data-name="Path 273" d="M1510.467,163.726a.946.946,0,0,1,.9-1.066,1.01,1.01,0,0,1,.11,2.014A.944.944,0,0,1,1510.467,163.726Z" fill="#e67960"/>
      <path id="Path_274" data-name="Path 274" d="M1515.37,163.42a.946.946,0,0,1,.9-1.067,1.01,1.01,0,1,1-.9,1.067Z" fill="#e67960"/>
      <path id="Path_275" data-name="Path 275" d="M1520.271,163.113a.946.946,0,0,1,.9-1.066,1.01,1.01,0,0,1,.11,2.014A.944.944,0,0,1,1520.271,163.113Z" fill="#e67960"/>
      <path id="Path_276" data-name="Path 276" d="M1525.174,162.806a.946.946,0,0,1,.9-1.066,1.01,1.01,0,0,1,.109,2.014A.944.944,0,0,1,1525.174,162.806Z" fill="#e67960"/>
      <path id="Path_277" data-name="Path 277" d="M1530.076,162.5a.947.947,0,0,1,.9-1.067,1.011,1.011,0,1,1-.9,1.067Z" fill="#e67960"/>
      <path id="Path_278" data-name="Path 278" d="M1534.978,162.193a.946.946,0,0,1,.9-1.066,1.01,1.01,0,0,1,.109,2.014A.944.944,0,0,1,1534.978,162.193Z" fill="#e67960"/>
      <path id="Path_279" data-name="Path 279" d="M1539.88,161.886a.947.947,0,0,1,.9-1.066,1.01,1.01,0,0,1,.109,2.014A.944.944,0,0,1,1539.88,161.886Z" fill="#e67960"/>
      <path id="Path_280" data-name="Path 280" d="M1544.783,161.58a.947.947,0,0,1,.9-1.067,1.011,1.011,0,1,1-.9,1.067Z" fill="#e67960"/>
      <path id="Path_281" data-name="Path 281" d="M1549.684,161.273a.947.947,0,0,1,.9-1.066,1.01,1.01,0,0,1,.109,2.014A.944.944,0,0,1,1549.684,161.273Z" fill="#e67960"/>
      <path id="Path_282" data-name="Path 282" d="M1554.587,160.967a.947.947,0,0,1,.9-1.067,1.01,1.01,0,1,1-.9,1.067Z" fill="#e67960"/>
      <path id="Path_283" data-name="Path 283" d="M1559.49,160.66a.946.946,0,0,1,.9-1.066,1.01,1.01,0,1,1-.9,1.066Z" fill="#e67960"/>
      <path id="Path_284" data-name="Path 284" d="M1564.391,160.353a.946.946,0,0,1,.9-1.066,1.01,1.01,0,0,1,.11,2.014A.944.944,0,0,1,1564.391,160.353Z" fill="#e67960"/>
      <path id="Path_285" data-name="Path 285" d="M1569.294,160.047a.947.947,0,0,1,.9-1.067,1.011,1.011,0,0,1,.109,2.015A.944.944,0,0,1,1569.294,160.047Z" fill="#e67960"/>
      <path id="Path_286" data-name="Path 286" d="M1574.2,159.74a.946.946,0,0,1,.9-1.066,1.01,1.01,0,0,1,.11,2.014A.944.944,0,0,1,1574.2,159.74Z" fill="#e67960"/>
      <path id="Path_287" data-name="Path 287" d="M1579.1,159.433a.946.946,0,0,1,.9-1.066,1.01,1.01,0,0,1,.109,2.014A.944.944,0,0,1,1579.1,159.433Z" fill="#e67960"/>
      <path id="Path_288" data-name="Path 288" d="M1584,159.127a.947.947,0,0,1,.9-1.067,1.011,1.011,0,1,1-.9,1.067Z" fill="#e67960"/>
      <path id="Path_289" data-name="Path 289" d="M1588.9,158.82a.946.946,0,0,1,.9-1.066,1.01,1.01,0,0,1,.109,2.014A.944.944,0,0,1,1588.9,158.82Z" fill="#e67960"/>
      <path id="Path_290" data-name="Path 290" d="M1345.1,195.111a.947.947,0,0,1,.9-1.067,1.01,1.01,0,1,1-.9,1.067Z" fill="#e67960"/>
      <path id="Path_291" data-name="Path 291" d="M1350.006,194.8a.947.947,0,0,1,.9-1.066,1.01,1.01,0,0,1,.109,2.014A.944.944,0,0,1,1350.006,194.8Z" fill="#e67960"/>
      <path id="Path_292" data-name="Path 292" d="M1354.908,194.5a.946.946,0,0,1,.9-1.066,1.01,1.01,0,0,1,.11,2.014A.944.944,0,0,1,1354.908,194.5Z" fill="#e67960"/>
      <path id="Path_293" data-name="Path 293" d="M1359.81,194.191a.947.947,0,0,1,.9-1.067,1.011,1.011,0,1,1-.9,1.067Z" fill="#e67960"/>
      <path id="Path_294" data-name="Path 294" d="M1364.713,193.884a.946.946,0,0,1,.9-1.066,1.01,1.01,0,1,1-.9,1.066Z" fill="#e67960"/>
      <path id="Path_295" data-name="Path 295" d="M1369.615,193.577a.946.946,0,0,1,.9-1.066,1.01,1.01,0,1,1-.9,1.066Z" fill="#e67960"/>
      <path id="Path_296" data-name="Path 296" d="M1374.517,193.271a.946.946,0,0,1,.9-1.066,1.01,1.01,0,0,1,.11,2.014A.944.944,0,0,1,1374.517,193.271Z" fill="#e67960"/>
      <path id="Path_297" data-name="Path 297" d="M1379.42,192.964a.946.946,0,0,1,.9-1.066,1.01,1.01,0,0,1,.109,2.014A.943.943,0,0,1,1379.42,192.964Z" fill="#e67960"/>
      <path id="Path_298" data-name="Path 298" d="M1384.321,192.658a.947.947,0,0,1,.9-1.067,1.01,1.01,0,1,1-.9,1.067Z" fill="#e67960"/>
      <path id="Path_299" data-name="Path 299" d="M1389.224,192.351a.946.946,0,0,1,.9-1.066,1.01,1.01,0,0,1,.109,2.014A.944.944,0,0,1,1389.224,192.351Z" fill="#e67960"/>
      <path id="Path_300" data-name="Path 300" d="M1394.126,192.044a.946.946,0,0,1,.9-1.066,1.01,1.01,0,0,1,.11,2.014A.944.944,0,0,1,1394.126,192.044Z" fill="#e67960"/>
      <path id="Path_301" data-name="Path 301" d="M1399.028,191.738a.947.947,0,0,1,.9-1.067,1.011,1.011,0,1,1-.9,1.067Z" fill="#e67960"/>
      <path id="Path_302" data-name="Path 302" d="M1403.93,191.431a.946.946,0,0,1,.9-1.066,1.01,1.01,0,0,1,.11,2.014A.944.944,0,0,1,1403.93,191.431Z" fill="#e67960"/>
      <path id="Path_303" data-name="Path 303" d="M1408.832,191.124a.946.946,0,0,1,.9-1.066,1.01,1.01,0,1,1-.9,1.066Z" fill="#e67960"/>
      <path id="Path_304" data-name="Path 304" d="M1413.734,190.818a.948.948,0,0,1,.9-1.067,1.011,1.011,0,1,1-.9,1.067Z" fill="#e67960"/>
      <path id="Path_305" data-name="Path 305" d="M1418.637,190.511a.946.946,0,0,1,.9-1.066,1.01,1.01,0,1,1-.9,1.066Z" fill="#e67960"/>
      <path id="Path_306" data-name="Path 306" d="M1423.539,190.205a.946.946,0,0,1,.9-1.067,1.01,1.01,0,1,1-.9,1.067Z" fill="#e67960"/>
      <path id="Path_307" data-name="Path 307" d="M1428.441,189.9a.946.946,0,0,1,.9-1.066,1.01,1.01,0,0,1,.11,2.014A.944.944,0,0,1,1428.441,189.9Z" fill="#e67960"/>
      <path id="Path_308" data-name="Path 308" d="M1433.344,189.591a.946.946,0,0,1,.9-1.066,1.01,1.01,0,1,1-.9,1.066Z" fill="#e67960"/>
      <path id="Path_309" data-name="Path 309" d="M1438.245,189.285a.947.947,0,0,1,.9-1.067,1.011,1.011,0,0,1,.11,2.015A.944.944,0,0,1,1438.245,189.285Z" fill="#e67960"/>
      <path id="Path_310" data-name="Path 310" d="M1443.148,188.978a.946.946,0,0,1,.9-1.066,1.01,1.01,0,0,1,.109,2.014A.944.944,0,0,1,1443.148,188.978Z" fill="#e67960"/>
      <path id="Path_311" data-name="Path 311" d="M1448.05,188.671a.946.946,0,0,1,.9-1.066,1.01,1.01,0,0,1,.11,2.014A.944.944,0,0,1,1448.05,188.671Z" fill="#e67960"/>
      <path id="Path_312" data-name="Path 312" d="M1452.952,188.365a.947.947,0,0,1,.9-1.067,1.011,1.011,0,1,1-.9,1.067Z" fill="#e67960"/>
      <path id="Path_313" data-name="Path 313" d="M1457.854,188.058a.946.946,0,0,1,.9-1.066,1.01,1.01,0,0,1,.11,2.014A.944.944,0,0,1,1457.854,188.058Z" fill="#e67960"/>
      <path id="Path_314" data-name="Path 314" d="M1462.757,187.752a.946.946,0,0,1,.9-1.067,1.01,1.01,0,1,1-.9,1.067Z" fill="#e67960"/>
      <path id="Path_315" data-name="Path 315" d="M1467.658,187.445a.947.947,0,0,1,.9-1.066,1.01,1.01,0,0,1,.109,2.014A.944.944,0,0,1,1467.658,187.445Z" fill="#e67960"/>
      <path id="Path_316" data-name="Path 316" d="M1472.561,187.138a.946.946,0,0,1,.9-1.066,1.01,1.01,0,0,1,.109,2.014A.944.944,0,0,1,1472.561,187.138Z" fill="#e67960"/>
      <path id="Path_317" data-name="Path 317" d="M1477.463,186.832a.947.947,0,0,1,.9-1.067,1.01,1.01,0,1,1-.9,1.067Z" fill="#e67960"/>
      <path id="Path_318" data-name="Path 318" d="M1482.365,186.525a.946.946,0,0,1,.9-1.066,1.01,1.01,0,0,1,.109,2.014A.944.944,0,0,1,1482.365,186.525Z" fill="#e67960"/>
      <path id="Path_319" data-name="Path 319" d="M1487.268,186.218a.945.945,0,0,1,.9-1.066,1.01,1.01,0,1,1-.9,1.066Z" fill="#e67960"/>
      <path id="Path_320" data-name="Path 320" d="M1492.169,185.912a.947.947,0,0,1,.9-1.067,1.011,1.011,0,1,1-.9,1.067Z" fill="#e67960"/>
      <path id="Path_321" data-name="Path 321" d="M1497.072,185.6a.946.946,0,0,1,.9-1.066,1.01,1.01,0,0,1,.109,2.014A.944.944,0,0,1,1497.072,185.6Z" fill="#e67960"/>
      <path id="Path_322" data-name="Path 322" d="M1501.974,185.3a.946.946,0,0,1,.9-1.066,1.01,1.01,0,1,1-.9,1.066Z" fill="#e67960"/>
      <path id="Path_323" data-name="Path 323" d="M1506.876,184.992a.946.946,0,0,1,.9-1.066,1.01,1.01,0,0,1,.109,2.014A.944.944,0,0,1,1506.876,184.992Z" fill="#e67960"/>
      <path id="Path_324" data-name="Path 324" d="M1511.778,184.685a.946.946,0,0,1,.9-1.066,1.01,1.01,0,0,1,.11,2.014A.944.944,0,0,1,1511.778,184.685Z" fill="#e67960"/>
      <path id="Path_325" data-name="Path 325" d="M1516.681,184.379a.946.946,0,0,1,.9-1.067,1.01,1.01,0,1,1-.9,1.067Z" fill="#e67960"/>
      <path id="Path_326" data-name="Path 326" d="M1521.582,184.072a.946.946,0,0,1,.9-1.066,1.01,1.01,0,0,1,.11,2.014A.944.944,0,0,1,1521.582,184.072Z" fill="#e67960"/>
      <path id="Path_327" data-name="Path 327" d="M1526.485,183.765a.946.946,0,0,1,.9-1.066,1.01,1.01,0,0,1,.109,2.014A.944.944,0,0,1,1526.485,183.765Z" fill="#e67960"/>
      <path id="Path_328" data-name="Path 328" d="M1531.387,183.459a.947.947,0,0,1,.9-1.067,1.011,1.011,0,1,1-.9,1.067Z" fill="#e67960"/>
      <path id="Path_329" data-name="Path 329" d="M1536.289,183.152a.946.946,0,0,1,.9-1.066,1.01,1.01,0,0,1,.109,2.014A.944.944,0,0,1,1536.289,183.152Z" fill="#e67960"/>
      <path id="Path_330" data-name="Path 330" d="M1541.191,182.845a.946.946,0,0,1,.9-1.066,1.01,1.01,0,1,1-.9,1.066Z" fill="#e67960"/>
      <path id="Path_331" data-name="Path 331" d="M1546.094,182.539a.947.947,0,0,1,.9-1.067,1.011,1.011,0,1,1-.9,1.067Z" fill="#e67960"/>
      <path id="Path_332" data-name="Path 332" d="M1551,182.232a.946.946,0,0,1,.9-1.066,1.01,1.01,0,1,1-.9,1.066Z" fill="#e67960"/>
      <path id="Path_333" data-name="Path 333" d="M1555.9,181.926a.947.947,0,0,1,.9-1.067,1.01,1.01,0,1,1-.9,1.067Z" fill="#e67960"/>
      <path id="Path_334" data-name="Path 334" d="M1560.8,181.619a.946.946,0,0,1,.9-1.066,1.01,1.01,0,1,1-.9,1.066Z" fill="#e67960"/>
      <path id="Path_335" data-name="Path 335" d="M1565.7,181.312a.946.946,0,0,1,.9-1.066,1.01,1.01,0,0,1,.11,2.014A.944.944,0,0,1,1565.7,181.312Z" fill="#e67960"/>
      <path id="Path_336" data-name="Path 336" d="M1570.6,181.006a.947.947,0,0,1,.9-1.067,1.011,1.011,0,1,1-.9,1.067Z" fill="#e67960"/>
      <path id="Path_337" data-name="Path 337" d="M1575.507,180.7a.946.946,0,0,1,.9-1.066,1.01,1.01,0,0,1,.11,2.014A.944.944,0,0,1,1575.507,180.7Z" fill="#e67960"/>
      <path id="Path_338" data-name="Path 338" d="M1580.409,180.392a.946.946,0,0,1,.9-1.066,1.01,1.01,0,1,1-.9,1.066Z" fill="#e67960"/>
      <path id="Path_339" data-name="Path 339" d="M1585.311,180.086a.947.947,0,0,1,.9-1.067,1.011,1.011,0,1,1-.9,1.067Z" fill="#e67960"/>
      <path id="Path_340" data-name="Path 340" d="M1590.213,179.779a.946.946,0,0,1,.9-1.066,1.01,1.01,0,0,1,.109,2.014A.944.944,0,0,1,1590.213,179.779Z" fill="#e67960"/>
      <path id="Path_341" data-name="Path 341" d="M1346.415,216.07a.947.947,0,0,1,.9-1.067,1.011,1.011,0,0,1,.109,2.015A.944.944,0,0,1,1346.415,216.07Z" fill="#e67960"/>
      <path id="Path_342" data-name="Path 342" d="M1351.317,215.763a.946.946,0,0,1,.9-1.066,1.01,1.01,0,0,1,.11,2.014A.944.944,0,0,1,1351.317,215.763Z" fill="#e67960"/>
      <path id="Path_343" data-name="Path 343" d="M1356.219,215.456a.946.946,0,0,1,.9-1.066,1.01,1.01,0,1,1-.9,1.066Z" fill="#e67960"/>
      <path id="Path_344" data-name="Path 344" d="M1361.121,215.15a.948.948,0,0,1,.9-1.067,1.011,1.011,0,1,1-.9,1.067Z" fill="#e67960"/>
      <path id="Path_345" data-name="Path 345" d="M1366.024,214.843a.946.946,0,0,1,.9-1.066,1.01,1.01,0,0,1,.11,2.014A.944.944,0,0,1,1366.024,214.843Z" fill="#e67960"/>
      <path id="Path_346" data-name="Path 346" d="M1370.926,214.537a.946.946,0,0,1,.9-1.067,1.01,1.01,0,1,1-.9,1.067Z" fill="#e67960"/>
      <path id="Path_347" data-name="Path 347" d="M1375.828,214.23a.946.946,0,0,1,.9-1.066,1.01,1.01,0,0,1,.11,2.014A.944.944,0,0,1,1375.828,214.23Z" fill="#e67960"/>
      <path id="Path_348" data-name="Path 348" d="M1380.731,213.923a.946.946,0,0,1,.9-1.066,1.01,1.01,0,0,1,.109,2.014A.944.944,0,0,1,1380.731,213.923Z" fill="#e67960"/>
      <path id="Path_349" data-name="Path 349" d="M1385.632,213.617a.947.947,0,0,1,.9-1.067,1.011,1.011,0,1,1-.9,1.067Z" fill="#e67960"/>
      <path id="Path_350" data-name="Path 350" d="M1390.535,213.31a.946.946,0,0,1,.9-1.066,1.01,1.01,0,0,1,.109,2.014A.944.944,0,0,1,1390.535,213.31Z" fill="#e67960"/>
      <path id="Path_351" data-name="Path 351" d="M1395.437,213a.946.946,0,0,1,.9-1.066,1.01,1.01,0,0,1,.11,2.014A.944.944,0,0,1,1395.437,213Z" fill="#e67960"/>
      <path id="Path_352" data-name="Path 352" d="M1400.339,212.7a.947.947,0,0,1,.9-1.067,1.011,1.011,0,1,1-.9,1.067Z" fill="#e67960"/>
      <path id="Path_353" data-name="Path 353" d="M1405.241,212.39a.946.946,0,0,1,.9-1.066,1.01,1.01,0,0,1,.11,2.014A.944.944,0,0,1,1405.241,212.39Z" fill="#e67960"/>
      <path id="Path_354" data-name="Path 354" d="M1410.143,212.084a.946.946,0,0,1,.9-1.067,1.01,1.01,0,1,1-.9,1.067Z" fill="#e67960"/>
      <path id="Path_355" data-name="Path 355" d="M1415.045,211.777a.947.947,0,0,1,.9-1.066,1.01,1.01,0,0,1,.109,2.014A.944.944,0,0,1,1415.045,211.777Z" fill="#e67960"/>
      <path id="Path_356" data-name="Path 356" d="M1419.948,211.47a.946.946,0,0,1,.9-1.066,1.01,1.01,0,1,1-.9,1.066Z" fill="#e67960"/>
      <path id="Path_357" data-name="Path 357" d="M1424.85,211.164a.946.946,0,0,1,.9-1.067,1.01,1.01,0,1,1-.9,1.067Z" fill="#e67960"/>
      <path id="Path_358" data-name="Path 358" d="M1429.752,210.857a.946.946,0,0,1,.9-1.066,1.01,1.01,0,1,1-.9,1.066Z" fill="#e67960"/>
      <path id="Path_359" data-name="Path 359" d="M1434.655,210.55a.946.946,0,0,1,.9-1.066,1.01,1.01,0,0,1,.109,2.014A.944.944,0,0,1,1434.655,210.55Z" fill="#e67960"/>
      <path id="Path_360" data-name="Path 360" d="M1439.556,210.244a.947.947,0,0,1,.9-1.067,1.011,1.011,0,1,1-.9,1.067Z" fill="#e67960"/>
      <path id="Path_361" data-name="Path 361" d="M1444.459,209.937a.946.946,0,0,1,.9-1.066,1.01,1.01,0,0,1,.109,2.014A.944.944,0,0,1,1444.459,209.937Z" fill="#e67960"/>
      <path id="Path_362" data-name="Path 362" d="M1449.361,209.63a.946.946,0,0,1,.9-1.066,1.01,1.01,0,0,1,.11,2.014A.944.944,0,0,1,1449.361,209.63Z" fill="#e67960"/>
      <path id="Path_363" data-name="Path 363" d="M1454.263,209.324a.946.946,0,0,1,.9-1.066,1.01,1.01,0,0,1,.109,2.014A.944.944,0,0,1,1454.263,209.324Z" fill="#e67960"/>
      <path id="Path_364" data-name="Path 364" d="M1459.165,209.017a.946.946,0,0,1,.9-1.066,1.01,1.01,0,0,1,.11,2.014A.944.944,0,0,1,1459.165,209.017Z" fill="#e67960"/>
      <path id="Path_365" data-name="Path 365" d="M1464.068,208.711a.946.946,0,0,1,.9-1.067,1.01,1.01,0,1,1-.9,1.067Z" fill="#e67960"/>
      <path id="Path_366" data-name="Path 366" d="M1468.969,208.4a.946.946,0,0,1,.9-1.066,1.01,1.01,0,0,1,.11,2.014A.944.944,0,0,1,1468.969,208.4Z" fill="#e67960"/>
      <path id="Path_367" data-name="Path 367" d="M1473.872,208.1a.946.946,0,0,1,.9-1.066,1.01,1.01,0,0,1,.109,2.014A.944.944,0,0,1,1473.872,208.1Z" fill="#e67960"/>
      <path id="Path_368" data-name="Path 368" d="M1478.774,207.791a.947.947,0,0,1,.9-1.067,1.011,1.011,0,0,1,.109,2.015A.944.944,0,0,1,1478.774,207.791Z" fill="#e67960"/>
      <path id="Path_369" data-name="Path 369" d="M1483.676,207.484a.946.946,0,0,1,.9-1.066,1.01,1.01,0,0,1,.109,2.014A.944.944,0,0,1,1483.676,207.484Z" fill="#e67960"/>
      <path id="Path_370" data-name="Path 370" d="M1488.578,207.177a.947.947,0,0,1,.9-1.066,1.01,1.01,0,0,1,.109,2.014A.944.944,0,0,1,1488.578,207.177Z" fill="#e67960"/>
      <path id="Path_371" data-name="Path 371" d="M1493.48,206.871a.946.946,0,0,1,.9-1.066,1.01,1.01,0,1,1-.9,1.066Z" fill="#e67960"/>
      <path id="Path_372" data-name="Path 372" d="M1498.382,206.564a.947.947,0,0,1,.9-1.066,1.01,1.01,0,0,1,.109,2.014A.944.944,0,0,1,1498.382,206.564Z" fill="#e67960"/>
      <path id="Path_373" data-name="Path 373" d="M1503.285,206.258a.947.947,0,0,1,.9-1.067,1.01,1.01,0,1,1-.9,1.067Z" fill="#e67960"/>
      <path id="Path_374" data-name="Path 374" d="M1508.187,205.951a.946.946,0,0,1,.9-1.066,1.01,1.01,0,0,1,.109,2.014A.944.944,0,0,1,1508.187,205.951Z" fill="#e67960"/>
      <path id="Path_375" data-name="Path 375" d="M1513.089,205.644a.946.946,0,0,1,.9-1.066,1.01,1.01,0,0,1,.11,2.014A.944.944,0,0,1,1513.089,205.644Z" fill="#e67960"/>
      <path id="Path_376" data-name="Path 376" d="M1517.992,205.338a.947.947,0,0,1,.9-1.067,1.01,1.01,0,1,1-.9,1.067Z" fill="#e67960"/>
      <path id="Path_377" data-name="Path 377" d="M1522.893,205.031a.946.946,0,0,1,.9-1.066,1.01,1.01,0,0,1,.11,2.014A.944.944,0,0,1,1522.893,205.031Z" fill="#e67960"/>
      <path id="Path_378" data-name="Path 378" d="M1527.8,204.724a.946.946,0,0,1,.9-1.066,1.01,1.01,0,0,1,.109,2.014A.944.944,0,0,1,1527.8,204.724Z" fill="#e67960"/>
      <path id="Path_379" data-name="Path 379" d="M1532.7,204.418a.947.947,0,0,1,.9-1.067,1.011,1.011,0,1,1-.9,1.067Z" fill="#e67960"/>
      <path id="Path_380" data-name="Path 380" d="M1537.6,204.111a.946.946,0,0,1,.9-1.066,1.01,1.01,0,0,1,.109,2.014A.944.944,0,0,1,1537.6,204.111Z" fill="#e67960"/>
      <path id="Path_381" data-name="Path 381" d="M1542.5,203.8a.947.947,0,0,1,.9-1.067,1.01,1.01,0,1,1-.9,1.067Z" fill="#e67960"/>
      <path id="Path_382" data-name="Path 382" d="M1547.405,203.5a.946.946,0,0,1,.9-1.066,1.01,1.01,0,0,1,.109,2.014A.944.944,0,0,1,1547.405,203.5Z" fill="#e67960"/>
      <path id="Path_383" data-name="Path 383" d="M1552.306,203.191a.947.947,0,0,1,.9-1.066,1.01,1.01,0,0,1,.109,2.014A.944.944,0,0,1,1552.306,203.191Z" fill="#e67960"/>
      <path id="Path_384" data-name="Path 384" d="M1557.209,202.885a.947.947,0,0,1,.9-1.067,1.01,1.01,0,1,1-.9,1.067Z" fill="#e67960"/>
      <path id="Path_385" data-name="Path 385" d="M1562.111,202.578a.947.947,0,0,1,.9-1.066,1.01,1.01,0,0,1,.109,2.014A.944.944,0,0,1,1562.111,202.578Z" fill="#e67960"/>
      <path id="Path_386" data-name="Path 386" d="M1567.013,202.271a.946.946,0,0,1,.9-1.066,1.01,1.01,0,0,1,.11,2.014A.944.944,0,0,1,1567.013,202.271Z" fill="#e67960"/>
      <path id="Path_387" data-name="Path 387" d="M1571.916,201.965a.947.947,0,0,1,.9-1.067,1.011,1.011,0,1,1-.9,1.067Z" fill="#e67960"/>
      <path id="Path_388" data-name="Path 388" d="M1576.818,201.658a.946.946,0,0,1,.9-1.066,1.01,1.01,0,0,1,.11,2.014A.944.944,0,0,1,1576.818,201.658Z" fill="#e67960"/>
      <path id="Path_389" data-name="Path 389" d="M1581.72,201.351a.946.946,0,0,1,.9-1.066,1.01,1.01,0,1,1-.9,1.066Z" fill="#e67960"/>
      <path id="Path_390" data-name="Path 390" d="M1586.622,201.045a.946.946,0,0,1,.9-1.066,1.01,1.01,0,0,1,.11,2.014A.944.944,0,0,1,1586.622,201.045Z" fill="#e67960"/>
      <path id="Path_391" data-name="Path 391" d="M1591.524,200.738a.946.946,0,0,1,.9-1.066,1.01,1.01,0,0,1,.109,2.014A.943.943,0,0,1,1591.524,200.738Z" fill="#e67960"/>
      <path id="Path_392" data-name="Path 392" d="M1347.726,237.029a.947.947,0,0,1,.9-1.067,1.011,1.011,0,0,1,.109,2.015A.944.944,0,0,1,1347.726,237.029Z" fill="#e67960"/>
      <path id="Path_393" data-name="Path 393" d="M1352.628,236.722a.946.946,0,0,1,.9-1.066,1.01,1.01,0,0,1,.11,2.014A.944.944,0,0,1,1352.628,236.722Z" fill="#e67960"/>
      <path id="Path_394" data-name="Path 394" d="M1357.53,236.415a.946.946,0,0,1,.9-1.066,1.01,1.01,0,0,1,.109,2.014A.944.944,0,0,1,1357.53,236.415Z" fill="#e67960"/>
      <path id="Path_395" data-name="Path 395" d="M1362.432,236.109a.948.948,0,0,1,.9-1.067,1.011,1.011,0,1,1-.9,1.067Z" fill="#e67960"/>
      <path id="Path_396" data-name="Path 396" d="M1367.335,235.8a.946.946,0,0,1,.9-1.066,1.01,1.01,0,0,1,.11,2.014A.944.944,0,0,1,1367.335,235.8Z" fill="#e67960"/>
      <path id="Path_397" data-name="Path 397" d="M1372.236,235.5a.948.948,0,0,1,.9-1.067,1.01,1.01,0,1,1-.9,1.067Z" fill="#e67960"/>
      <path id="Path_398" data-name="Path 398" d="M1377.139,235.189a.946.946,0,0,1,.9-1.066,1.01,1.01,0,0,1,.11,2.014A.944.944,0,0,1,1377.139,235.189Z" fill="#e67960"/>
      <path id="Path_399" data-name="Path 399" d="M1382.042,234.882a.946.946,0,0,1,.9-1.066,1.01,1.01,0,0,1,.109,2.014A.944.944,0,0,1,1382.042,234.882Z" fill="#e67960"/>
      <path id="Path_400" data-name="Path 400" d="M1386.943,234.576a.947.947,0,0,1,.9-1.067,1.011,1.011,0,0,1,.11,2.015A.944.944,0,0,1,1386.943,234.576Z" fill="#e67960"/>
      <path id="Path_401" data-name="Path 401" d="M1391.846,234.269a.946.946,0,0,1,.9-1.066,1.01,1.01,0,0,1,.109,2.014A.944.944,0,0,1,1391.846,234.269Z" fill="#e67960"/>
      <path id="Path_402" data-name="Path 402" d="M1396.748,233.962a.946.946,0,0,1,.9-1.066,1.01,1.01,0,0,1,.11,2.014A.944.944,0,0,1,1396.748,233.962Z" fill="#e67960"/>
      <path id="Path_403" data-name="Path 403" d="M1401.65,233.656a.947.947,0,0,1,.9-1.067,1.011,1.011,0,1,1-.9,1.067Z" fill="#e67960"/>
      <path id="Path_404" data-name="Path 404" d="M1406.552,233.349a.946.946,0,0,1,.9-1.066,1.01,1.01,0,0,1,.11,2.014A.944.944,0,0,1,1406.552,233.349Z" fill="#e67960"/>
      <path id="Path_405" data-name="Path 405" d="M1411.454,233.043a.946.946,0,0,1,.9-1.067,1.01,1.01,0,1,1-.9,1.067Z" fill="#e67960"/>
      <path id="Path_406" data-name="Path 406" d="M1416.356,232.736a.948.948,0,0,1,.9-1.067,1.011,1.011,0,1,1-.9,1.067Z" fill="#e67960"/>
      <path id="Path_407" data-name="Path 407" d="M1421.259,232.429a.946.946,0,0,1,.9-1.066,1.01,1.01,0,1,1-.9,1.066Z" fill="#e67960"/>
      <path id="Path_408" data-name="Path 408" d="M1426.161,232.123a.946.946,0,0,1,.9-1.067,1.011,1.011,0,1,1-.9,1.067Z" fill="#e67960"/>
      <path id="Path_409" data-name="Path 409" d="M1431.063,231.816a.946.946,0,0,1,.9-1.066,1.01,1.01,0,1,1-.9,1.066Z" fill="#e67960"/>
      <path id="Path_410" data-name="Path 410" d="M1435.966,231.509a.946.946,0,0,1,.9-1.066,1.01,1.01,0,0,1,.109,2.014A.944.944,0,0,1,1435.966,231.509Z" fill="#e67960"/>
      <path id="Path_411" data-name="Path 411" d="M1440.867,231.2a.947.947,0,0,1,.9-1.067,1.011,1.011,0,1,1-.9,1.067Z" fill="#e67960"/>
      <path id="Path_412" data-name="Path 412" d="M1445.77,230.9a.946.946,0,0,1,.9-1.066,1.01,1.01,0,0,1,.109,2.014A.944.944,0,0,1,1445.77,230.9Z" fill="#e67960"/>
      <path id="Path_413" data-name="Path 413" d="M1450.672,230.589a.946.946,0,0,1,.9-1.066,1.01,1.01,0,1,1-.9,1.066Z" fill="#e67960"/>
      <path id="Path_414" data-name="Path 414" d="M1455.574,230.283a.946.946,0,0,1,.9-1.066,1.01,1.01,0,0,1,.109,2.014A.944.944,0,0,1,1455.574,230.283Z" fill="#e67960"/>
      <path id="Path_415" data-name="Path 415" d="M1460.476,229.976a.946.946,0,0,1,.9-1.066,1.01,1.01,0,0,1,.11,2.014A.944.944,0,0,1,1460.476,229.976Z" fill="#e67960"/>
      <path id="Path_416" data-name="Path 416" d="M1465.379,229.669a.946.946,0,0,1,.9-1.066,1.01,1.01,0,1,1-.9,1.066Z" fill="#e67960"/>
      <path id="Path_417" data-name="Path 417" d="M1470.28,229.363a.946.946,0,0,1,.9-1.066,1.01,1.01,0,0,1,.11,2.014A.944.944,0,0,1,1470.28,229.363Z" fill="#e67960"/>
      <path id="Path_418" data-name="Path 418" d="M1475.183,229.056a.946.946,0,0,1,.9-1.066,1.01,1.01,0,0,1,.109,2.014A.944.944,0,0,1,1475.183,229.056Z" fill="#e67960"/>
      <path id="Path_419" data-name="Path 419" d="M1480.085,228.75a.947.947,0,0,1,.9-1.067,1.011,1.011,0,1,1-.9,1.067Z" fill="#e67960"/>
      <path id="Path_420" data-name="Path 420" d="M1484.987,228.443a.946.946,0,0,1,.9-1.066,1.01,1.01,0,1,1-.9,1.066Z" fill="#e67960"/>
      <path id="Path_421" data-name="Path 421" d="M1489.889,228.136a.947.947,0,0,1,.9-1.066,1.01,1.01,0,1,1-.9,1.066Z" fill="#e67960"/>
      <path id="Path_422" data-name="Path 422" d="M1494.791,227.83a.946.946,0,0,1,.9-1.066,1.01,1.01,0,1,1-.9,1.066Z" fill="#e67960"/>
      <path id="Path_423" data-name="Path 423" d="M1499.693,227.523a.947.947,0,0,1,.9-1.066,1.01,1.01,0,0,1,.109,2.014A.944.944,0,0,1,1499.693,227.523Z" fill="#e67960"/>
      <path id="Path_424" data-name="Path 424" d="M1504.6,227.217a.947.947,0,0,1,.9-1.067,1.01,1.01,0,1,1-.9,1.067Z" fill="#e67960"/>
      <path id="Path_425" data-name="Path 425" d="M1509.5,226.91a.946.946,0,0,1,.9-1.066,1.01,1.01,0,0,1,.109,2.014A.943.943,0,0,1,1509.5,226.91Z" fill="#e67960"/>
      <path id="Path_426" data-name="Path 426" d="M1514.4,226.6a.946.946,0,0,1,.9-1.066,1.01,1.01,0,0,1,.11,2.014A.944.944,0,0,1,1514.4,226.6Z" fill="#e67960"/>
      <path id="Path_427" data-name="Path 427" d="M1519.3,226.3a.947.947,0,0,1,.9-1.067,1.011,1.011,0,1,1-.9,1.067Z" fill="#e67960"/>
      <path id="Path_428" data-name="Path 428" d="M1524.2,225.99a.946.946,0,0,1,.9-1.066,1.01,1.01,0,0,1,.11,2.014A.944.944,0,0,1,1524.2,225.99Z" fill="#e67960"/>
      <path id="Path_429" data-name="Path 429" d="M1529.107,225.683a.946.946,0,0,1,.9-1.066,1.01,1.01,0,0,1,.109,2.014A.943.943,0,0,1,1529.107,225.683Z" fill="#e67960"/>
      <path id="Path_430" data-name="Path 430" d="M1534.009,225.377a.947.947,0,0,1,.9-1.067,1.011,1.011,0,1,1-.9,1.067Z" fill="#e67960"/>
      <path id="Path_431" data-name="Path 431" d="M1538.911,225.07a.946.946,0,0,1,.9-1.066,1.01,1.01,0,0,1,.109,2.014A.944.944,0,0,1,1538.911,225.07Z" fill="#e67960"/>
      <path id="Path_432" data-name="Path 432" d="M1543.813,224.764a.947.947,0,0,1,.9-1.067,1.01,1.01,0,1,1-.9,1.067Z" fill="#e67960"/>
      <path id="Path_433" data-name="Path 433" d="M1548.716,224.457a.946.946,0,0,1,.9-1.066,1.01,1.01,0,0,1,.109,2.014A.944.944,0,0,1,1548.716,224.457Z" fill="#e67960"/>
      <path id="Path_434" data-name="Path 434" d="M1553.617,224.15a.947.947,0,0,1,.9-1.066,1.01,1.01,0,0,1,.109,2.014A.944.944,0,0,1,1553.617,224.15Z" fill="#e67960"/>
      <path id="Path_435" data-name="Path 435" d="M1558.52,223.844a.947.947,0,0,1,.9-1.067,1.011,1.011,0,1,1-.9,1.067Z" fill="#e67960"/>
      <path id="Path_436" data-name="Path 436" d="M1563.423,223.537a.946.946,0,0,1,.9-1.066,1.01,1.01,0,1,1-.9,1.066Z" fill="#e67960"/>
      <path id="Path_437" data-name="Path 437" d="M1568.324,223.23a.946.946,0,0,1,.9-1.066,1.01,1.01,0,1,1-.9,1.066Z" fill="#e67960"/>
      <path id="Path_438" data-name="Path 438" d="M1573.227,222.924a.947.947,0,0,1,.9-1.067,1.011,1.011,0,1,1-.9,1.067Z" fill="#e67960"/>
      <path id="Path_439" data-name="Path 439" d="M1578.129,222.617a.946.946,0,0,1,.9-1.066,1.01,1.01,0,0,1,.11,2.014A.944.944,0,0,1,1578.129,222.617Z" fill="#e67960"/>
      <path id="Path_440" data-name="Path 440" d="M1583.031,222.311a.946.946,0,0,1,.9-1.067,1.01,1.01,0,1,1-.9,1.067Z" fill="#e67960"/>
      <path id="Path_441" data-name="Path 441" d="M1587.933,222a.946.946,0,0,1,.9-1.066,1.01,1.01,0,0,1,.11,2.014A.944.944,0,0,1,1587.933,222Z" fill="#e67960"/>
      <path id="Path_442" data-name="Path 442" d="M1592.835,221.7a.946.946,0,0,1,.9-1.066,1.01,1.01,0,0,1,.109,2.014A.944.944,0,0,1,1592.835,221.7Z" fill="#e67960"/>
      <path id="Path_443" data-name="Path 443" d="M1349.037,257.988a.947.947,0,0,1,.9-1.067,1.011,1.011,0,1,1-.9,1.067Z" fill="#e67960"/>
      <path id="Path_444" data-name="Path 444" d="M1353.939,257.681a.946.946,0,0,1,.9-1.066,1.01,1.01,0,0,1,.11,2.014A.944.944,0,0,1,1353.939,257.681Z" fill="#e67960"/>
      <path id="Path_445" data-name="Path 445" d="M1358.841,257.374a.946.946,0,0,1,.9-1.066,1.01,1.01,0,1,1-.9,1.066Z" fill="#e67960"/>
      <path id="Path_446" data-name="Path 446" d="M1363.743,257.068a.947.947,0,0,1,.9-1.066,1.01,1.01,0,0,1,.109,2.014A.944.944,0,0,1,1363.743,257.068Z" fill="#e67960"/>
      <path id="Path_447" data-name="Path 447" d="M1368.646,256.761a.946.946,0,0,1,.9-1.066,1.01,1.01,0,1,1-.9,1.066Z" fill="#e67960"/>
      <path id="Path_448" data-name="Path 448" d="M1373.548,256.455a.946.946,0,0,1,.9-1.067,1.01,1.01,0,1,1-.9,1.067Z" fill="#e67960"/>
      <path id="Path_449" data-name="Path 449" d="M1378.45,256.148a.946.946,0,0,1,.9-1.066,1.01,1.01,0,0,1,.11,2.014A.944.944,0,0,1,1378.45,256.148Z" fill="#e67960"/>
      <path id="Path_450" data-name="Path 450" d="M1383.353,255.841a.946.946,0,0,1,.9-1.066,1.01,1.01,0,0,1,.109,2.014A.944.944,0,0,1,1383.353,255.841Z" fill="#e67960"/>
      <path id="Path_451" data-name="Path 451" d="M1388.254,255.535a.947.947,0,0,1,.9-1.067,1.011,1.011,0,1,1-.9,1.067Z" fill="#e67960"/>
      <path id="Path_452" data-name="Path 452" d="M1393.157,255.228a.946.946,0,0,1,.9-1.066,1.01,1.01,0,0,1,.109,2.014A.944.944,0,0,1,1393.157,255.228Z" fill="#e67960"/>
      <path id="Path_453" data-name="Path 453" d="M1398.059,254.921a.946.946,0,0,1,.9-1.066,1.01,1.01,0,0,1,.11,2.014A.944.944,0,0,1,1398.059,254.921Z" fill="#e67960"/>
      <path id="Path_454" data-name="Path 454" d="M1402.961,254.615a.945.945,0,0,1,.9-1.066,1.01,1.01,0,1,1-.9,1.066Z" fill="#e67960"/>
      <path id="Path_455" data-name="Path 455" d="M1407.863,254.308a.946.946,0,0,1,.9-1.066,1.01,1.01,0,0,1,.11,2.014A.944.944,0,0,1,1407.863,254.308Z" fill="#e67960"/>
      <path id="Path_456" data-name="Path 456" d="M1412.765,254a.947.947,0,0,1,.9-1.067,1.01,1.01,0,1,1-.9,1.067Z" fill="#e67960"/>
      <path id="Path_457" data-name="Path 457" d="M1417.667,253.7a.947.947,0,0,1,.9-1.066,1.01,1.01,0,0,1,.109,2.014A.944.944,0,0,1,1417.667,253.7Z" fill="#e67960"/>
      <path id="Path_458" data-name="Path 458" d="M1422.57,253.388a.946.946,0,0,1,.9-1.066,1.01,1.01,0,0,1,.109,2.014A.944.944,0,0,1,1422.57,253.388Z" fill="#e67960"/>
      <path id="Path_459" data-name="Path 459" d="M1427.471,253.082a.948.948,0,0,1,.9-1.067,1.011,1.011,0,0,1,.109,2.015A.944.944,0,0,1,1427.471,253.082Z" fill="#e67960"/>
      <path id="Path_460" data-name="Path 460" d="M1432.374,252.775a.946.946,0,0,1,.9-1.066,1.01,1.01,0,0,1,.109,2.014A.944.944,0,0,1,1432.374,252.775Z" fill="#e67960"/>
      <path id="Path_461" data-name="Path 461" d="M1437.277,252.468a.945.945,0,0,1,.9-1.066,1.01,1.01,0,0,1,.109,2.014A.944.944,0,0,1,1437.277,252.468Z" fill="#e67960"/>
      <path id="Path_462" data-name="Path 462" d="M1442.178,252.162a.947.947,0,0,1,.9-1.067,1.011,1.011,0,1,1-.9,1.067Z" fill="#e67960"/>
      <path id="Path_463" data-name="Path 463" d="M1447.081,251.855a.946.946,0,0,1,.9-1.066,1.01,1.01,0,0,1,.109,2.014A.943.943,0,0,1,1447.081,251.855Z" fill="#e67960"/>
      <path id="Path_464" data-name="Path 464" d="M1451.983,251.549a.947.947,0,0,1,.9-1.067,1.01,1.01,0,1,1-.9,1.067Z" fill="#e67960"/>
      <path id="Path_465" data-name="Path 465" d="M1456.885,251.242a.946.946,0,0,1,.9-1.066,1.01,1.01,0,0,1,.109,2.014A.944.944,0,0,1,1456.885,251.242Z" fill="#e67960"/>
      <path id="Path_466" data-name="Path 466" d="M1461.787,250.935a.946.946,0,0,1,.9-1.066,1.01,1.01,0,0,1,.11,2.014A.944.944,0,0,1,1461.787,250.935Z" fill="#e67960"/>
      <path id="Path_467" data-name="Path 467" d="M1466.69,250.629a.946.946,0,0,1,.9-1.067,1.01,1.01,0,1,1-.9,1.067Z" fill="#e67960"/>
      <path id="Path_468" data-name="Path 468" d="M1471.591,250.322a.947.947,0,0,1,.9-1.066,1.01,1.01,0,0,1,.11,2.014A.944.944,0,0,1,1471.591,250.322Z" fill="#e67960"/>
      <path id="Path_469" data-name="Path 469" d="M1476.494,250.015a.946.946,0,0,1,.9-1.066,1.01,1.01,0,0,1,.109,2.014A.944.944,0,0,1,1476.494,250.015Z" fill="#e67960"/>
      <path id="Path_470" data-name="Path 470" d="M1481.4,249.709a.947.947,0,0,1,.9-1.067,1.011,1.011,0,1,1-.9,1.067Z" fill="#e67960"/>
      <path id="Path_471" data-name="Path 471" d="M1486.3,249.4a.946.946,0,0,1,.9-1.066,1.01,1.01,0,0,1,.109,2.014A.944.944,0,0,1,1486.3,249.4Z" fill="#e67960"/>
      <path id="Path_472" data-name="Path 472" d="M1491.2,249.1a.946.946,0,0,1,.9-1.066,1.01,1.01,0,1,1-.9,1.066Z" fill="#e67960"/>
      <path id="Path_473" data-name="Path 473" d="M1496.1,248.789a.946.946,0,0,1,.9-1.066,1.01,1.01,0,0,1,.109,2.014A.943.943,0,0,1,1496.1,248.789Z" fill="#e67960"/>
      <path id="Path_474" data-name="Path 474" d="M1501,248.482a.947.947,0,0,1,.9-1.066,1.01,1.01,0,0,1,.109,2.014A.944.944,0,0,1,1501,248.482Z" fill="#e67960"/>
      <path id="Path_475" data-name="Path 475" d="M1505.907,248.176a.947.947,0,0,1,.9-1.067,1.01,1.01,0,1,1-.9,1.067Z" fill="#e67960"/>
      <path id="Path_476" data-name="Path 476" d="M1510.809,247.869a.946.946,0,0,1,.9-1.066,1.01,1.01,0,1,1-.9,1.066Z" fill="#e67960"/>
      <path id="Path_477" data-name="Path 477" d="M1515.711,247.562a.946.946,0,0,1,.9-1.066,1.01,1.01,0,0,1,.11,2.014A.944.944,0,0,1,1515.711,247.562Z" fill="#e67960"/>
      <path id="Path_478" data-name="Path 478" d="M1520.614,247.256a.947.947,0,0,1,.9-1.067,1.011,1.011,0,1,1-.9,1.067Z" fill="#e67960"/>
      <path id="Path_479" data-name="Path 479" d="M1525.515,246.949a.946.946,0,0,1,.9-1.066,1.01,1.01,0,0,1,.11,2.014A.944.944,0,0,1,1525.515,246.949Z" fill="#e67960"/>
      <path id="Path_480" data-name="Path 480" d="M1530.418,246.642a.946.946,0,0,1,.9-1.066,1.01,1.01,0,1,1-.9,1.066Z" fill="#e67960"/>
      <path id="Path_481" data-name="Path 481" d="M1535.32,246.336a.946.946,0,0,1,.9-1.066,1.01,1.01,0,0,1,.11,2.014A.944.944,0,0,1,1535.32,246.336Z" fill="#e67960"/>
      <path id="Path_482" data-name="Path 482" d="M1540.222,246.029a.946.946,0,0,1,.9-1.066,1.01,1.01,0,0,1,.109,2.014A.943.943,0,0,1,1540.222,246.029Z" fill="#e67960"/>
      <path id="Path_483" data-name="Path 483" d="M1545.124,245.723a.947.947,0,0,1,.9-1.067,1.01,1.01,0,1,1-.9,1.067Z" fill="#e67960"/>
      <path id="Path_484" data-name="Path 484" d="M1550.027,245.416a.946.946,0,0,1,.9-1.066,1.01,1.01,0,0,1,.109,2.014A.944.944,0,0,1,1550.027,245.416Z" fill="#e67960"/>
      <path id="Path_485" data-name="Path 485" d="M1554.928,245.109a.946.946,0,0,1,.9-1.066,1.01,1.01,0,0,1,.11,2.014A.944.944,0,0,1,1554.928,245.109Z" fill="#e67960"/>
      <path id="Path_486" data-name="Path 486" d="M1559.831,244.8a.947.947,0,0,1,.9-1.067,1.011,1.011,0,1,1-.9,1.067Z" fill="#e67960"/>
      <path id="Path_487" data-name="Path 487" d="M1564.734,244.5a.946.946,0,0,1,.9-1.066,1.01,1.01,0,1,1-.9,1.066Z" fill="#e67960"/>
      <path id="Path_488" data-name="Path 488" d="M1569.635,244.189a.946.946,0,0,1,.9-1.066,1.01,1.01,0,1,1-.9,1.066Z" fill="#e67960"/>
      <path id="Path_489" data-name="Path 489" d="M1574.538,243.883a.947.947,0,0,1,.9-1.067,1.011,1.011,0,1,1-.9,1.067Z" fill="#e67960"/>
      <path id="Path_490" data-name="Path 490" d="M1579.44,243.576a.947.947,0,0,1,.9-1.066,1.01,1.01,0,1,1-.9,1.066Z" fill="#e67960"/>
      <path id="Path_491" data-name="Path 491" d="M1584.342,243.27a.946.946,0,0,1,.9-1.067,1.01,1.01,0,1,1-.9,1.067Z" fill="#e67960"/>
      <path id="Path_492" data-name="Path 492" d="M1589.244,242.963a.946.946,0,0,1,.9-1.066,1.01,1.01,0,0,1,.11,2.014A.944.944,0,0,1,1589.244,242.963Z" fill="#e67960"/>
      <path id="Path_493" data-name="Path 493" d="M1594.146,242.656a.946.946,0,0,1,.9-1.066,1.01,1.01,0,0,1,.109,2.014A.944.944,0,0,1,1594.146,242.656Z" fill="#e67960"/>
      <path id="Path_494" data-name="Path 494" d="M1350.348,278.947a.947.947,0,0,1,.9-1.067,1.011,1.011,0,1,1-.9,1.067Z" fill="#e67960"/>
      <path id="Path_495" data-name="Path 495" d="M1355.25,278.64a.946.946,0,0,1,.9-1.066,1.01,1.01,0,0,1,.11,2.014A.944.944,0,0,1,1355.25,278.64Z" fill="#e67960"/>
      <path id="Path_496" data-name="Path 496" d="M1360.152,278.334a.946.946,0,0,1,.9-1.067,1.01,1.01,0,1,1-.9,1.067Z" fill="#e67960"/>
      <path id="Path_497" data-name="Path 497" d="M1365.054,278.027a.946.946,0,0,1,.9-1.066,1.01,1.01,0,0,1,.11,2.014A.944.944,0,0,1,1365.054,278.027Z" fill="#e67960"/>
      <path id="Path_498" data-name="Path 498" d="M1369.957,277.72a.946.946,0,0,1,.9-1.066,1.01,1.01,0,1,1-.9,1.066Z" fill="#e67960"/>
      <path id="Path_499" data-name="Path 499" d="M1374.859,277.414a.947.947,0,0,1,.9-1.067,1.011,1.011,0,1,1-.9,1.067Z" fill="#e67960"/>
      <path id="Path_500" data-name="Path 500" d="M1379.761,277.107a.946.946,0,0,1,.9-1.066,1.01,1.01,0,1,1-.9,1.066Z" fill="#e67960"/>
      <path id="Path_501" data-name="Path 501" d="M1384.664,276.8a.946.946,0,0,1,.9-1.066,1.01,1.01,0,1,1-.9,1.066Z" fill="#e67960"/>
      <path id="Path_502" data-name="Path 502" d="M1389.565,276.494a.947.947,0,0,1,.9-1.067,1.011,1.011,0,1,1-.9,1.067Z" fill="#e67960"/>
      <path id="Path_503" data-name="Path 503" d="M1394.468,276.187a.946.946,0,0,1,.9-1.066,1.01,1.01,0,0,1,.109,2.014A.944.944,0,0,1,1394.468,276.187Z" fill="#e67960"/>
      <path id="Path_504" data-name="Path 504" d="M1399.37,275.88a.946.946,0,0,1,.9-1.066,1.01,1.01,0,1,1-.9,1.066Z" fill="#e67960"/>
      <path id="Path_505" data-name="Path 505" d="M1404.272,275.574a.946.946,0,0,1,.9-1.066,1.01,1.01,0,0,1,.109,2.014A.944.944,0,0,1,1404.272,275.574Z" fill="#e67960"/>
      <path id="Path_506" data-name="Path 506" d="M1409.174,275.267a.946.946,0,0,1,.9-1.066,1.01,1.01,0,0,1,.11,2.014A.944.944,0,0,1,1409.174,275.267Z" fill="#e67960"/>
      <path id="Path_507" data-name="Path 507" d="M1414.076,274.961a.947.947,0,0,1,.9-1.067,1.01,1.01,0,1,1-.9,1.067Z" fill="#e67960"/>
      <path id="Path_508" data-name="Path 508" d="M1418.978,274.654a.946.946,0,0,1,.9-1.066,1.01,1.01,0,0,1,.11,2.014A.944.944,0,0,1,1418.978,274.654Z" fill="#e67960"/>
      <path id="Path_509" data-name="Path 509" d="M1423.881,274.347a.946.946,0,0,1,.9-1.066,1.01,1.01,0,0,1,.109,2.014A.944.944,0,0,1,1423.881,274.347Z" fill="#e67960"/>
      <path id="Path_510" data-name="Path 510" d="M1428.782,274.041a.947.947,0,0,1,.9-1.067,1.011,1.011,0,1,1-.9,1.067Z" fill="#e67960"/>
      <path id="Path_511" data-name="Path 511" d="M1433.685,273.734a.946.946,0,0,1,.9-1.066,1.01,1.01,0,0,1,.109,2.014A.943.943,0,0,1,1433.685,273.734Z" fill="#e67960"/>
      <path id="Path_512" data-name="Path 512" d="M1438.587,273.427a.947.947,0,0,1,.9-1.066,1.01,1.01,0,0,1,.109,2.014A.944.944,0,0,1,1438.587,273.427Z" fill="#e67960"/>
      <path id="Path_513" data-name="Path 513" d="M1443.489,273.121a.946.946,0,0,1,.9-1.066,1.01,1.01,0,0,1,.11,2.014A.944.944,0,0,1,1443.489,273.121Z" fill="#e67960"/>
      <path id="Path_514" data-name="Path 514" d="M1448.391,272.814a.947.947,0,0,1,.9-1.066,1.01,1.01,0,0,1,.109,2.014A.944.944,0,0,1,1448.391,272.814Z" fill="#e67960"/>
      <path id="Path_515" data-name="Path 515" d="M1453.294,272.508a.947.947,0,0,1,.9-1.067,1.01,1.01,0,1,1-.9,1.067Z" fill="#e67960"/>
      <path id="Path_516" data-name="Path 516" d="M1458.2,272.2a.946.946,0,0,1,.9-1.066,1.01,1.01,0,0,1,.109,2.014A.943.943,0,0,1,1458.2,272.2Z" fill="#e67960"/>
      <path id="Path_517" data-name="Path 517" d="M1463.1,271.894a.946.946,0,0,1,.9-1.066,1.01,1.01,0,0,1,.11,2.014A.944.944,0,0,1,1463.1,271.894Z" fill="#e67960"/>
      <path id="Path_518" data-name="Path 518" d="M1468,271.588a.947.947,0,0,1,.9-1.067,1.01,1.01,0,1,1-.9,1.067Z" fill="#e67960"/>
      <path id="Path_519" data-name="Path 519" d="M1472.9,271.281a.946.946,0,0,1,.9-1.066,1.01,1.01,0,0,1,.11,2.014A.944.944,0,0,1,1472.9,271.281Z" fill="#e67960"/>
      <path id="Path_520" data-name="Path 520" d="M1477.805,270.974a.946.946,0,0,1,.9-1.066,1.01,1.01,0,1,1-.9,1.066Z" fill="#e67960"/>
      <path id="Path_521" data-name="Path 521" d="M1482.707,270.668a.947.947,0,0,1,.9-1.067,1.011,1.011,0,1,1-.9,1.067Z" fill="#e67960"/>
      <path id="Path_522" data-name="Path 522" d="M1487.609,270.361a.946.946,0,0,1,.9-1.066,1.01,1.01,0,0,1,.109,2.014A.944.944,0,0,1,1487.609,270.361Z" fill="#e67960"/>
      <path id="Path_523" data-name="Path 523" d="M1492.511,270.055a.947.947,0,0,1,.9-1.067,1.01,1.01,0,1,1-.9,1.067Z" fill="#e67960"/>
      <path id="Path_524" data-name="Path 524" d="M1497.413,269.748a.946.946,0,0,1,.9-1.066,1.01,1.01,0,0,1,.109,2.014A.944.944,0,0,1,1497.413,269.748Z" fill="#e67960"/>
      <path id="Path_525" data-name="Path 525" d="M1502.316,269.441a.946.946,0,0,1,.9-1.066,1.01,1.01,0,1,1-.9,1.066Z" fill="#e67960"/>
      <path id="Path_526" data-name="Path 526" d="M1507.218,269.135a.947.947,0,0,1,.9-1.067,1.011,1.011,0,0,1,.11,2.015A.944.944,0,0,1,1507.218,269.135Z" fill="#e67960"/>
      <path id="Path_527" data-name="Path 527" d="M1512.12,268.828a.946.946,0,0,1,.9-1.066,1.01,1.01,0,0,1,.109,2.014A.944.944,0,0,1,1512.12,268.828Z" fill="#e67960"/>
      <path id="Path_528" data-name="Path 528" d="M1517.022,268.521a.946.946,0,0,1,.9-1.066,1.01,1.01,0,0,1,.11,2.014A.944.944,0,0,1,1517.022,268.521Z" fill="#e67960"/>
      <path id="Path_529" data-name="Path 529" d="M1521.925,268.215a.947.947,0,0,1,.9-1.067,1.011,1.011,0,1,1-.9,1.067Z" fill="#e67960"/>
      <path id="Path_530" data-name="Path 530" d="M1526.826,267.908a.946.946,0,0,1,.9-1.066,1.01,1.01,0,0,1,.11,2.014A.944.944,0,0,1,1526.826,267.908Z" fill="#e67960"/>
      <path id="Path_531" data-name="Path 531" d="M1531.729,267.6a.946.946,0,0,1,.9-1.067,1.01,1.01,0,1,1-.9,1.067Z" fill="#e67960"/>
      <path id="Path_532" data-name="Path 532" d="M1536.631,267.3a.946.946,0,0,1,.9-1.066,1.01,1.01,0,0,1,.11,2.014A.944.944,0,0,1,1536.631,267.3Z" fill="#e67960"/>
      <path id="Path_533" data-name="Path 533" d="M1541.533,266.988a.946.946,0,0,1,.9-1.066,1.01,1.01,0,0,1,.109,2.014A.944.944,0,0,1,1541.533,266.988Z" fill="#e67960"/>
      <path id="Path_534" data-name="Path 534" d="M1546.435,266.682a.947.947,0,0,1,.9-1.067,1.011,1.011,0,1,1-.9,1.067Z" fill="#e67960"/>
      <path id="Path_535" data-name="Path 535" d="M1551.338,266.375a.946.946,0,0,1,.9-1.066,1.01,1.01,0,0,1,.109,2.014A.944.944,0,0,1,1551.338,266.375Z" fill="#e67960"/>
      <path id="Path_536" data-name="Path 536" d="M1556.239,266.068a.947.947,0,0,1,.9-1.066,1.01,1.01,0,0,1,.109,2.014A.944.944,0,0,1,1556.239,266.068Z" fill="#e67960"/>
      <path id="Path_537" data-name="Path 537" d="M1561.142,265.762a.947.947,0,0,1,.9-1.067,1.011,1.011,0,1,1-.9,1.067Z" fill="#e67960"/>
      <path id="Path_538" data-name="Path 538" d="M1566.044,265.455a.947.947,0,0,1,.9-1.066,1.01,1.01,0,0,1,.109,2.014A.944.944,0,0,1,1566.044,265.455Z" fill="#e67960"/>
      <path id="Path_539" data-name="Path 539" d="M1570.946,265.149a.947.947,0,0,1,.9-1.067,1.01,1.01,0,0,1,.109,2.014A.943.943,0,0,1,1570.946,265.149Z" fill="#e67960"/>
      <path id="Path_540" data-name="Path 540" d="M1575.849,264.842a.945.945,0,0,1,.9-1.066,1.01,1.01,0,0,1,.109,2.014A.944.944,0,0,1,1575.849,264.842Z" fill="#e67960"/>
      <path id="Path_541" data-name="Path 541" d="M1580.751,264.535a.946.946,0,0,1,.9-1.066,1.01,1.01,0,1,1-.9,1.066Z" fill="#e67960"/>
      <path id="Path_542" data-name="Path 542" d="M1585.653,264.229a.946.946,0,0,1,.9-1.067,1.01,1.01,0,1,1-.9,1.067Z" fill="#e67960"/>
      <path id="Path_543" data-name="Path 543" d="M1590.555,263.922a.946.946,0,0,1,.9-1.066,1.01,1.01,0,0,1,.11,2.014A.944.944,0,0,1,1590.555,263.922Z" fill="#e67960"/>
      <path id="Path_544" data-name="Path 544" d="M1595.457,263.615a.946.946,0,0,1,.9-1.066,1.01,1.01,0,0,1,.109,2.014A.944.944,0,0,1,1595.457,263.615Z" fill="#e67960"/>
      <path id="Path_545" data-name="Path 545" d="M1351.659,299.906a.947.947,0,0,1,.9-1.067,1.011,1.011,0,1,1-.9,1.067Z" fill="#e67960"/>
      <path id="Path_546" data-name="Path 546" d="M1356.561,299.6a.946.946,0,0,1,.9-1.066,1.01,1.01,0,0,1,.11,2.014A.944.944,0,0,1,1356.561,299.6Z" fill="#e67960"/>
      <path id="Path_547" data-name="Path 547" d="M1361.463,299.293a.947.947,0,0,1,.9-1.067,1.01,1.01,0,1,1-.9,1.067Z" fill="#e67960"/>
      <path id="Path_548" data-name="Path 548" d="M1366.365,298.986a.947.947,0,0,1,.9-1.066,1.01,1.01,0,0,1,.109,2.014A.944.944,0,0,1,1366.365,298.986Z" fill="#e67960"/>
      <path id="Path_549" data-name="Path 549" d="M1371.268,298.679a.946.946,0,0,1,.9-1.066,1.01,1.01,0,1,1-.9,1.066Z" fill="#e67960"/>
      <path id="Path_550" data-name="Path 550" d="M1376.17,298.373a.946.946,0,0,1,.9-1.067,1.011,1.011,0,1,1-.9,1.067Z" fill="#e67960"/>
      <path id="Path_551" data-name="Path 551" d="M1381.072,298.066a.946.946,0,0,1,.9-1.066,1.01,1.01,0,1,1-.9,1.066Z" fill="#e67960"/>
      <path id="Path_552" data-name="Path 552" d="M1385.975,297.759a.946.946,0,0,1,.9-1.066,1.01,1.01,0,0,1,.109,2.014A.944.944,0,0,1,1385.975,297.759Z" fill="#e67960"/>
      <path id="Path_553" data-name="Path 553" d="M1390.876,297.453a.947.947,0,0,1,.9-1.067,1.011,1.011,0,1,1-.9,1.067Z" fill="#e67960"/>
      <path id="Path_554" data-name="Path 554" d="M1395.779,297.146a.946.946,0,0,1,.9-1.066,1.01,1.01,0,1,1-.9,1.066Z" fill="#e67960"/>
      <path id="Path_555" data-name="Path 555" d="M1400.681,296.839a.946.946,0,0,1,.9-1.066,1.01,1.01,0,1,1-.9,1.066Z" fill="#e67960"/>
      <path id="Path_556" data-name="Path 556" d="M1405.583,296.533a.946.946,0,0,1,.9-1.066,1.01,1.01,0,0,1,.109,2.014A.944.944,0,0,1,1405.583,296.533Z" fill="#e67960"/>
      <path id="Path_557" data-name="Path 557" d="M1410.485,296.226a.946.946,0,0,1,.9-1.066,1.01,1.01,0,0,1,.11,2.014A.944.944,0,0,1,1410.485,296.226Z" fill="#e67960"/>
      <path id="Path_558" data-name="Path 558" d="M1415.387,295.92a.947.947,0,0,1,.9-1.067,1.011,1.011,0,0,1,.109,2.015A.944.944,0,0,1,1415.387,295.92Z" fill="#e67960"/>
      <path id="Path_559" data-name="Path 559" d="M1420.289,295.613a.947.947,0,0,1,.9-1.066,1.01,1.01,0,0,1,.11,2.014A.944.944,0,0,1,1420.289,295.613Z" fill="#e67960"/>
      <path id="Path_560" data-name="Path 560" d="M1425.192,295.306a.946.946,0,0,1,.9-1.066,1.01,1.01,0,0,1,.109,2.014A.944.944,0,0,1,1425.192,295.306Z" fill="#e67960"/>
      <path id="Path_561" data-name="Path 561" d="M1430.093,295a.947.947,0,0,1,.9-1.067,1.011,1.011,0,1,1-.9,1.067Z" fill="#e67960"/>
      <path id="Path_562" data-name="Path 562" d="M1435,294.693a.946.946,0,0,1,.9-1.066,1.01,1.01,0,0,1,.109,2.014A.944.944,0,0,1,1435,294.693Z" fill="#e67960"/>
      <path id="Path_563" data-name="Path 563" d="M1439.9,294.386a.947.947,0,0,1,.9-1.066,1.01,1.01,0,1,1-.9,1.066Z" fill="#e67960"/>
      <path id="Path_564" data-name="Path 564" d="M1444.8,294.08a.946.946,0,0,1,.9-1.066,1.01,1.01,0,0,1,.11,2.014A.944.944,0,0,1,1444.8,294.08Z" fill="#e67960"/>
      <path id="Path_565" data-name="Path 565" d="M1449.7,293.773a.947.947,0,0,1,.9-1.066,1.01,1.01,0,0,1,.109,2.014A.944.944,0,0,1,1449.7,293.773Z" fill="#e67960"/>
      <path id="Path_566" data-name="Path 566" d="M1454.6,293.467a.947.947,0,0,1,.9-1.067,1.01,1.01,0,1,1-.9,1.067Z" fill="#e67960"/>
      <path id="Path_567" data-name="Path 567" d="M1459.507,293.16a.946.946,0,0,1,.9-1.066,1.01,1.01,0,0,1,.109,2.014A.944.944,0,0,1,1459.507,293.16Z" fill="#e67960"/>
      <path id="Path_568" data-name="Path 568" d="M1464.409,292.853a.946.946,0,0,1,.9-1.066,1.01,1.01,0,0,1,.11,2.014A.944.944,0,0,1,1464.409,292.853Z" fill="#e67960"/>
      <path id="Path_569" data-name="Path 569" d="M1469.312,292.547a.947.947,0,0,1,.9-1.067,1.011,1.011,0,1,1-.9,1.067Z" fill="#e67960"/>
      <path id="Path_570" data-name="Path 570" d="M1474.213,292.24a.946.946,0,0,1,.9-1.066,1.01,1.01,0,0,1,.11,2.014A.944.944,0,0,1,1474.213,292.24Z" fill="#e67960"/>
      <path id="Path_571" data-name="Path 571" d="M1479.116,291.933a.946.946,0,0,1,.9-1.066,1.01,1.01,0,1,1-.9,1.066Z" fill="#e67960"/>
      <path id="Path_572" data-name="Path 572" d="M1484.018,291.627a.947.947,0,0,1,.9-1.067,1.011,1.011,0,1,1-.9,1.067Z" fill="#e67960"/>
      <path id="Path_573" data-name="Path 573" d="M1488.92,291.32a.946.946,0,0,1,.9-1.066,1.01,1.01,0,0,1,.109,2.014A.943.943,0,0,1,1488.92,291.32Z" fill="#e67960"/>
      <path id="Path_574" data-name="Path 574" d="M1493.822,291.014a.947.947,0,0,1,.9-1.067,1.01,1.01,0,1,1-.9,1.067Z" fill="#e67960"/>
      <path id="Path_575" data-name="Path 575" d="M1498.724,290.707a.946.946,0,0,1,.9-1.066,1.01,1.01,0,1,1-.9,1.066Z" fill="#e67960"/>
      <path id="Path_576" data-name="Path 576" d="M1503.626,290.4a.947.947,0,0,1,.9-1.066,1.01,1.01,0,0,1,.11,2.014A.944.944,0,0,1,1503.626,290.4Z" fill="#e67960"/>
      <path id="Path_577" data-name="Path 577" d="M1508.529,290.094a.947.947,0,0,1,.9-1.067,1.011,1.011,0,0,1,.109,2.015A.944.944,0,0,1,1508.529,290.094Z" fill="#e67960"/>
      <path id="Path_578" data-name="Path 578" d="M1513.43,289.787a.947.947,0,0,1,.9-1.066,1.01,1.01,0,0,1,.109,2.014A.944.944,0,0,1,1513.43,289.787Z" fill="#e67960"/>
      <path id="Path_579" data-name="Path 579" d="M1518.333,289.48a.946.946,0,0,1,.9-1.066,1.01,1.01,0,1,1-.9,1.066Z" fill="#e67960"/>
      <path id="Path_580" data-name="Path 580" d="M1523.236,289.174a.947.947,0,0,1,.9-1.067,1.011,1.011,0,1,1-.9,1.067Z" fill="#e67960"/>
      <path id="Path_581" data-name="Path 581" d="M1528.137,288.867a.946.946,0,0,1,.9-1.066,1.01,1.01,0,0,1,.11,2.014A.944.944,0,0,1,1528.137,288.867Z" fill="#e67960"/>
      <path id="Path_582" data-name="Path 582" d="M1533.04,288.561a.946.946,0,0,1,.9-1.067,1.01,1.01,0,1,1-.9,1.067Z" fill="#e67960"/>
      <path id="Path_583" data-name="Path 583" d="M1537.942,288.254a.946.946,0,0,1,.9-1.066,1.01,1.01,0,0,1,.11,2.014A.944.944,0,0,1,1537.942,288.254Z" fill="#e67960"/>
      <path id="Path_584" data-name="Path 584" d="M1542.844,287.947a.946.946,0,0,1,.9-1.066,1.01,1.01,0,0,1,.109,2.014A.944.944,0,0,1,1542.844,287.947Z" fill="#e67960"/>
      <path id="Path_585" data-name="Path 585" d="M1547.746,287.641a.947.947,0,0,1,.9-1.067,1.011,1.011,0,0,1,.11,2.015A.944.944,0,0,1,1547.746,287.641Z" fill="#e67960"/>
      <path id="Path_586" data-name="Path 586" d="M1552.649,287.334a.946.946,0,0,1,.9-1.066,1.01,1.01,0,0,1,.109,2.014A.943.943,0,0,1,1552.649,287.334Z" fill="#e67960"/>
      <path id="Path_587" data-name="Path 587" d="M1557.55,287.027a.946.946,0,0,1,.9-1.066,1.01,1.01,0,0,1,.109,2.014A.944.944,0,0,1,1557.55,287.027Z" fill="#e67960"/>
      <path id="Path_588" data-name="Path 588" d="M1562.453,286.721a.947.947,0,0,1,.9-1.067,1.011,1.011,0,1,1-.9,1.067Z" fill="#e67960"/>
      <path id="Path_589" data-name="Path 589" d="M1567.355,286.414a.947.947,0,0,1,.9-1.066,1.01,1.01,0,0,1,.109,2.014A.944.944,0,0,1,1567.355,286.414Z" fill="#e67960"/>
      <path id="Path_590" data-name="Path 590" d="M1572.257,286.108a.947.947,0,0,1,.9-1.067,1.01,1.01,0,0,1,.109,2.014A.943.943,0,0,1,1572.257,286.108Z" fill="#e67960"/>
      <path id="Path_591" data-name="Path 591" d="M1577.159,285.8a.946.946,0,0,1,.9-1.066,1.01,1.01,0,0,1,.109,2.014A.944.944,0,0,1,1577.159,285.8Z" fill="#e67960"/>
      <path id="Path_592" data-name="Path 592" d="M1582.062,285.494a.946.946,0,0,1,.9-1.066,1.01,1.01,0,0,1,.11,2.014A.944.944,0,0,1,1582.062,285.494Z" fill="#e67960"/>
      <path id="Path_593" data-name="Path 593" d="M1586.964,285.188a.947.947,0,0,1,.9-1.067,1.011,1.011,0,1,1-.9,1.067Z" fill="#e67960"/>
      <path id="Path_594" data-name="Path 594" d="M1591.866,284.881a.946.946,0,0,1,.9-1.066,1.01,1.01,0,0,1,.11,2.014A.944.944,0,0,1,1591.866,284.881Z" fill="#e67960"/>
      <path id="Path_595" data-name="Path 595" d="M1596.768,284.574a.946.946,0,0,1,.9-1.066,1.01,1.01,0,0,1,.109,2.014A.944.944,0,0,1,1596.768,284.574Z" fill="#e67960"/>
      <path id="Path_596" data-name="Path 596" d="M1352.97,320.865a.946.946,0,0,1,.9-1.066,1.01,1.01,0,0,1,.109,2.014A.944.944,0,0,1,1352.97,320.865Z" fill="#e67960"/>
      <path id="Path_597" data-name="Path 597" d="M1357.872,320.558a.946.946,0,0,1,.9-1.066,1.01,1.01,0,0,1,.11,2.014A.944.944,0,0,1,1357.872,320.558Z" fill="#e67960"/>
      <path id="Path_598" data-name="Path 598" d="M1362.774,320.252a.946.946,0,0,1,.9-1.067,1.01,1.01,0,1,1-.9,1.067Z" fill="#e67960"/>
      <path id="Path_599" data-name="Path 599" d="M1367.676,319.945a.947.947,0,0,1,.9-1.066,1.01,1.01,0,0,1,.109,2.014A.944.944,0,0,1,1367.676,319.945Z" fill="#e67960"/>
      <path id="Path_600" data-name="Path 600" d="M1372.579,319.638a.946.946,0,0,1,.9-1.066,1.01,1.01,0,0,1,.109,2.014A.944.944,0,0,1,1372.579,319.638Z" fill="#e67960"/>
      <path id="Path_601" data-name="Path 601" d="M1377.48,319.332a.947.947,0,0,1,.9-1.067,1.011,1.011,0,1,1-.9,1.067Z" fill="#e67960"/>
      <path id="Path_602" data-name="Path 602" d="M1382.383,319.025a.946.946,0,0,1,.9-1.066,1.01,1.01,0,0,1,.109,2.014A.943.943,0,0,1,1382.383,319.025Z" fill="#e67960"/>
      <path id="Path_603" data-name="Path 603" d="M1387.286,318.718a.945.945,0,0,1,.9-1.066,1.01,1.01,0,0,1,.109,2.014A.944.944,0,0,1,1387.286,318.718Z" fill="#e67960"/>
      <path id="Path_604" data-name="Path 604" d="M1392.187,318.412a.946.946,0,0,1,.9-1.066,1.01,1.01,0,0,1,.11,2.014A.944.944,0,0,1,1392.187,318.412Z" fill="#e67960"/>
      <path id="Path_605" data-name="Path 605" d="M1397.09,318.105a.946.946,0,0,1,.9-1.066,1.01,1.01,0,0,1,.109,2.014A.944.944,0,0,1,1397.09,318.105Z" fill="#e67960"/>
      <path id="Path_606" data-name="Path 606" d="M1401.992,317.8a.947.947,0,0,1,.9-1.067,1.01,1.01,0,1,1-.9,1.067Z" fill="#e67960"/>
      <path id="Path_607" data-name="Path 607" d="M1406.894,317.492a.946.946,0,0,1,.9-1.066,1.01,1.01,0,0,1,.109,2.014A.943.943,0,0,1,1406.894,317.492Z" fill="#e67960"/>
      <path id="Path_608" data-name="Path 608" d="M1411.8,317.185a.946.946,0,0,1,.9-1.066,1.01,1.01,0,0,1,.11,2.014A.944.944,0,0,1,1411.8,317.185Z" fill="#e67960"/>
      <path id="Path_609" data-name="Path 609" d="M1416.7,316.879a.947.947,0,0,1,.9-1.067,1.011,1.011,0,1,1-.9,1.067Z" fill="#e67960"/>
      <path id="Path_610" data-name="Path 610" d="M1421.6,316.572a.946.946,0,0,1,.9-1.066,1.01,1.01,0,0,1,.11,2.014A.944.944,0,0,1,1421.6,316.572Z" fill="#e67960"/>
      <path id="Path_611" data-name="Path 611" d="M1426.5,316.265a.946.946,0,0,1,.9-1.066,1.01,1.01,0,0,1,.109,2.014A.943.943,0,0,1,1426.5,316.265Z" fill="#e67960"/>
      <path id="Path_612" data-name="Path 612" d="M1431.4,315.959a.947.947,0,0,1,.9-1.067,1.011,1.011,0,1,1-.9,1.067Z" fill="#e67960"/>
      <path id="Path_613" data-name="Path 613" d="M1436.307,315.652a.946.946,0,0,1,.9-1.066,1.01,1.01,0,0,1,.109,2.014A.944.944,0,0,1,1436.307,315.652Z" fill="#e67960"/>
      <path id="Path_614" data-name="Path 614" d="M1441.209,315.346a.947.947,0,0,1,.9-1.067,1.01,1.01,0,1,1-.9,1.067Z" fill="#e67960"/>
      <path id="Path_615" data-name="Path 615" d="M1446.111,315.039a.946.946,0,0,1,.9-1.066,1.01,1.01,0,1,1-.9,1.066Z" fill="#e67960"/>
      <path id="Path_616" data-name="Path 616" d="M1451.014,314.732a.946.946,0,0,1,.9-1.066,1.01,1.01,0,0,1,.109,2.014A.944.944,0,0,1,1451.014,314.732Z" fill="#e67960"/>
      <path id="Path_617" data-name="Path 617" d="M1455.916,314.426a.947.947,0,0,1,.9-1.067,1.01,1.01,0,1,1-.9,1.067Z" fill="#e67960"/>
      <path id="Path_618" data-name="Path 618" d="M1460.818,314.119a.946.946,0,0,1,.9-1.066,1.01,1.01,0,1,1-.9,1.066Z" fill="#e67960"/>
      <path id="Path_619" data-name="Path 619" d="M1465.72,313.812a.946.946,0,0,1,.9-1.066,1.01,1.01,0,0,1,.11,2.014A.944.944,0,0,1,1465.72,313.812Z" fill="#e67960"/>
      <path id="Path_620" data-name="Path 620" d="M1470.623,313.506a.947.947,0,0,1,.9-1.067,1.011,1.011,0,1,1-.9,1.067Z" fill="#e67960"/>
      <path id="Path_621" data-name="Path 621" d="M1475.524,313.2a.946.946,0,0,1,.9-1.066,1.01,1.01,0,0,1,.11,2.014A.944.944,0,0,1,1475.524,313.2Z" fill="#e67960"/>
      <path id="Path_622" data-name="Path 622" d="M1480.427,312.893a.946.946,0,0,1,.9-1.067,1.01,1.01,0,1,1-.9,1.067Z" fill="#e67960"/>
      <path id="Path_623" data-name="Path 623" d="M1485.329,312.586a.946.946,0,0,1,.9-1.066,1.01,1.01,0,0,1,.11,2.014A.944.944,0,0,1,1485.329,312.586Z" fill="#e67960"/>
      <path id="Path_624" data-name="Path 624" d="M1490.231,312.279a.946.946,0,0,1,.9-1.066,1.01,1.01,0,0,1,.109,2.014A.944.944,0,0,1,1490.231,312.279Z" fill="#e67960"/>
      <path id="Path_625" data-name="Path 625" d="M1495.133,311.973a.947.947,0,0,1,.9-1.067,1.01,1.01,0,1,1-.9,1.067Z" fill="#e67960"/>
      <path id="Path_626" data-name="Path 626" d="M1500.035,311.666a.946.946,0,0,1,.9-1.066,1.01,1.01,0,0,1,.109,2.014A.944.944,0,0,1,1500.035,311.666Z" fill="#e67960"/>
      <path id="Path_627" data-name="Path 627" d="M1504.937,311.359a.947.947,0,0,1,.9-1.066,1.01,1.01,0,0,1,.109,2.014A.944.944,0,0,1,1504.937,311.359Z" fill="#e67960"/>
      <path id="Path_628" data-name="Path 628" d="M1509.84,311.053a.947.947,0,0,1,.9-1.067,1.011,1.011,0,1,1-.9,1.067Z" fill="#e67960"/>
      <path id="Path_629" data-name="Path 629" d="M1514.742,310.746a.945.945,0,0,1,.9-1.066,1.01,1.01,0,0,1,.109,2.014A.944.944,0,0,1,1514.742,310.746Z" fill="#e67960"/>
      <path id="Path_630" data-name="Path 630" d="M1519.644,310.439a.946.946,0,0,1,.9-1.066,1.01,1.01,0,1,1-.9,1.066Z" fill="#e67960"/>
      <path id="Path_631" data-name="Path 631" d="M1524.547,310.133a.946.946,0,0,1,.9-1.066,1.01,1.01,0,0,1,.109,2.014A.944.944,0,0,1,1524.547,310.133Z" fill="#e67960"/>
      <path id="Path_632" data-name="Path 632" d="M1529.448,309.826a.946.946,0,0,1,.9-1.066,1.01,1.01,0,0,1,.11,2.014A.944.944,0,0,1,1529.448,309.826Z" fill="#e67960"/>
      <path id="Path_633" data-name="Path 633" d="M1534.351,309.52a.946.946,0,0,1,.9-1.067,1.01,1.01,0,1,1-.9,1.067Z" fill="#e67960"/>
      <path id="Path_634" data-name="Path 634" d="M1539.253,309.213a.946.946,0,0,1,.9-1.066,1.01,1.01,0,0,1,.11,2.014A.944.944,0,0,1,1539.253,309.213Z" fill="#e67960"/>
      <path id="Path_635" data-name="Path 635" d="M1544.155,308.906a.946.946,0,0,1,.9-1.066,1.01,1.01,0,0,1,.109,2.014A.944.944,0,0,1,1544.155,308.906Z" fill="#e67960"/>
      <path id="Path_636" data-name="Path 636" d="M1549.057,308.6a.947.947,0,0,1,.9-1.067,1.011,1.011,0,1,1-.9,1.067Z" fill="#e67960"/>
      <path id="Path_637" data-name="Path 637" d="M1553.96,308.293a.946.946,0,0,1,.9-1.066,1.01,1.01,0,0,1,.109,2.014A.944.944,0,0,1,1553.96,308.293Z" fill="#e67960"/>
      <path id="Path_638" data-name="Path 638" d="M1558.861,307.986a.946.946,0,0,1,.9-1.066,1.01,1.01,0,1,1-.9,1.066Z" fill="#e67960"/>
      <path id="Path_639" data-name="Path 639" d="M1563.764,307.68a.947.947,0,0,1,.9-1.067,1.011,1.011,0,1,1-.9,1.067Z" fill="#e67960"/>
      <path id="Path_640" data-name="Path 640" d="M1568.666,307.373a.947.947,0,0,1,.9-1.066,1.01,1.01,0,0,1,.109,2.014A.944.944,0,0,1,1568.666,307.373Z" fill="#e67960"/>
      <path id="Path_641" data-name="Path 641" d="M1573.568,307.067a.947.947,0,0,1,.9-1.067,1.01,1.01,0,1,1-.9,1.067Z" fill="#e67960"/>
      <path id="Path_642" data-name="Path 642" d="M1578.47,306.76a.947.947,0,0,1,.9-1.066,1.01,1.01,0,0,1,.109,2.014A.944.944,0,0,1,1578.47,306.76Z" fill="#e67960"/>
      <path id="Path_643" data-name="Path 643" d="M1583.373,306.453a.946.946,0,0,1,.9-1.066,1.01,1.01,0,0,1,.109,2.014A.943.943,0,0,1,1583.373,306.453Z" fill="#e67960"/>
      <path id="Path_644" data-name="Path 644" d="M1588.274,306.147a.948.948,0,0,1,.9-1.067,1.011,1.011,0,0,1,.109,2.015A.944.944,0,0,1,1588.274,306.147Z" fill="#e67960"/>
      <path id="Path_645" data-name="Path 645" d="M1593.177,305.84a.946.946,0,0,1,.9-1.066,1.01,1.01,0,1,1-.9,1.066Z" fill="#e67960"/>
      <path id="Path_646" data-name="Path 646" d="M1598.079,305.533a.946.946,0,0,1,.9-1.066,1.01,1.01,0,1,1-.9,1.066Z" fill="#e67960"/>
      <path id="Path_647" data-name="Path 647" d="M1354.281,341.824a.946.946,0,0,1,.9-1.066,1.01,1.01,0,0,1,.109,2.014A.944.944,0,0,1,1354.281,341.824Z" fill="#e67960"/>
      <path id="Path_648" data-name="Path 648" d="M1359.183,341.517a.946.946,0,0,1,.9-1.066,1.01,1.01,0,0,1,.11,2.014A.944.944,0,0,1,1359.183,341.517Z" fill="#e67960"/>
      <path id="Path_649" data-name="Path 649" d="M1364.085,341.211a.947.947,0,0,1,.9-1.067,1.011,1.011,0,0,1,.109,2.015A.944.944,0,0,1,1364.085,341.211Z" fill="#e67960"/>
      <path id="Path_650" data-name="Path 650" d="M1368.987,340.9a.946.946,0,0,1,.9-1.066,1.01,1.01,0,0,1,.11,2.014A.944.944,0,0,1,1368.987,340.9Z" fill="#e67960"/>
      <path id="Path_651" data-name="Path 651" d="M1373.89,340.6a.946.946,0,0,1,.9-1.066,1.01,1.01,0,0,1,.109,2.014A.944.944,0,0,1,1373.89,340.6Z" fill="#e67960"/>
      <path id="Path_652" data-name="Path 652" d="M1378.791,340.291a.947.947,0,0,1,.9-1.067,1.011,1.011,0,1,1-.9,1.067Z" fill="#e67960"/>
      <path id="Path_653" data-name="Path 653" d="M1383.694,339.984a.946.946,0,0,1,.9-1.066,1.01,1.01,0,0,1,.109,2.014A.944.944,0,0,1,1383.694,339.984Z" fill="#e67960"/>
      <path id="Path_654" data-name="Path 654" d="M1388.6,339.677a.947.947,0,0,1,.9-1.066,1.01,1.01,0,1,1-.9,1.066Z" fill="#e67960"/>
      <path id="Path_655" data-name="Path 655" d="M1393.5,339.371a.946.946,0,0,1,.9-1.066,1.01,1.01,0,1,1-.9,1.066Z" fill="#e67960"/>
      <path id="Path_656" data-name="Path 656" d="M1398.4,339.064a.947.947,0,0,1,.9-1.066,1.01,1.01,0,0,1,.109,2.014A.944.944,0,0,1,1398.4,339.064Z" fill="#e67960"/>
      <path id="Path_657" data-name="Path 657" d="M1403.3,338.758a.947.947,0,0,1,.9-1.067,1.01,1.01,0,1,1-.9,1.067Z" fill="#e67960"/>
      <path id="Path_658" data-name="Path 658" d="M1408.2,338.451a.946.946,0,0,1,.9-1.066,1.01,1.01,0,0,1,.109,2.014A.944.944,0,0,1,1408.2,338.451Z" fill="#e67960"/>
      <path id="Path_659" data-name="Path 659" d="M1413.107,338.144a.946.946,0,0,1,.9-1.066,1.01,1.01,0,0,1,.11,2.014A.944.944,0,0,1,1413.107,338.144Z" fill="#e67960"/>
      <path id="Path_660" data-name="Path 660" d="M1418.009,337.838a.947.947,0,0,1,.9-1.067,1.011,1.011,0,1,1-.9,1.067Z" fill="#e67960"/>
      <path id="Path_661" data-name="Path 661" d="M1422.911,337.531a.946.946,0,0,1,.9-1.066,1.01,1.01,0,0,1,.11,2.014A.944.944,0,0,1,1422.911,337.531Z" fill="#e67960"/>
      <path id="Path_662" data-name="Path 662" d="M1427.814,337.224a.946.946,0,0,1,.9-1.066,1.01,1.01,0,1,1-.9,1.066Z" fill="#e67960"/>
      <path id="Path_663" data-name="Path 663" d="M1432.715,336.918a.946.946,0,0,1,.9-1.066,1.01,1.01,0,0,1,.11,2.014A.944.944,0,0,1,1432.715,336.918Z" fill="#e67960"/>
      <path id="Path_664" data-name="Path 664" d="M1437.618,336.611a.946.946,0,0,1,.9-1.066,1.01,1.01,0,0,1,.109,2.014A.943.943,0,0,1,1437.618,336.611Z" fill="#e67960"/>
      <path id="Path_665" data-name="Path 665" d="M1442.52,336.3a.947.947,0,0,1,.9-1.067,1.01,1.01,0,1,1-.9,1.067Z" fill="#e67960"/>
      <path id="Path_666" data-name="Path 666" d="M1447.422,336a.946.946,0,0,1,.9-1.066,1.01,1.01,0,1,1-.9,1.066Z" fill="#e67960"/>
      <path id="Path_667" data-name="Path 667" d="M1452.324,335.691a.947.947,0,0,1,.9-1.066,1.01,1.01,0,0,1,.109,2.014A.944.944,0,0,1,1452.324,335.691Z" fill="#e67960"/>
      <path id="Path_668" data-name="Path 668" d="M1457.227,335.385a.947.947,0,0,1,.9-1.067,1.011,1.011,0,0,1,.11,2.015A.944.944,0,0,1,1457.227,335.385Z" fill="#e67960"/>
      <path id="Path_669" data-name="Path 669" d="M1462.128,335.078a.947.947,0,0,1,.9-1.066,1.01,1.01,0,0,1,.109,2.014A.944.944,0,0,1,1462.128,335.078Z" fill="#e67960"/>
      <path id="Path_670" data-name="Path 670" d="M1467.031,334.771a.946.946,0,0,1,.9-1.066,1.01,1.01,0,0,1,.11,2.014A.944.944,0,0,1,1467.031,334.771Z" fill="#e67960"/>
      <path id="Path_671" data-name="Path 671" d="M1471.934,334.465a.947.947,0,0,1,.9-1.067,1.011,1.011,0,1,1-.9,1.067Z" fill="#e67960"/>
      <path id="Path_672" data-name="Path 672" d="M1476.835,334.158a.946.946,0,0,1,.9-1.066,1.01,1.01,0,0,1,.11,2.014A.944.944,0,0,1,1476.835,334.158Z" fill="#e67960"/>
      <path id="Path_673" data-name="Path 673" d="M1481.738,333.852a.946.946,0,0,1,.9-1.067,1.01,1.01,0,1,1-.9,1.067Z" fill="#e67960"/>
      <path id="Path_674" data-name="Path 674" d="M1486.64,333.545a.946.946,0,0,1,.9-1.066,1.01,1.01,0,0,1,.11,2.014A.944.944,0,0,1,1486.64,333.545Z" fill="#e67960"/>
      <path id="Path_675" data-name="Path 675" d="M1491.542,333.238a.946.946,0,0,1,.9-1.066,1.01,1.01,0,0,1,.109,2.014A.944.944,0,0,1,1491.542,333.238Z" fill="#e67960"/>
      <path id="Path_676" data-name="Path 676" d="M1496.444,332.932a.947.947,0,0,1,.9-1.067,1.011,1.011,0,0,1,.11,2.015A.944.944,0,0,1,1496.444,332.932Z" fill="#e67960"/>
      <path id="Path_677" data-name="Path 677" d="M1501.346,332.625a.946.946,0,0,1,.9-1.066,1.01,1.01,0,0,1,.109,2.014A.944.944,0,0,1,1501.346,332.625Z" fill="#e67960"/>
      <path id="Path_678" data-name="Path 678" d="M1506.248,332.318a.946.946,0,0,1,.9-1.066,1.01,1.01,0,0,1,.109,2.014A.944.944,0,0,1,1506.248,332.318Z" fill="#e67960"/>
      <path id="Path_679" data-name="Path 679" d="M1511.151,332.012a.947.947,0,0,1,.9-1.067,1.011,1.011,0,1,1-.9,1.067Z" fill="#e67960"/>
      <path id="Path_680" data-name="Path 680" d="M1516.052,331.7a.947.947,0,0,1,.9-1.066,1.01,1.01,0,0,1,.109,2.014A.944.944,0,0,1,1516.052,331.7Z" fill="#e67960"/>
      <path id="Path_681" data-name="Path 681" d="M1520.955,331.4a.947.947,0,0,1,.9-1.067,1.01,1.01,0,0,1,.11,2.014A.943.943,0,0,1,1520.955,331.4Z" fill="#e67960"/>
      <path id="Path_682" data-name="Path 682" d="M1525.858,331.092a.945.945,0,0,1,.9-1.066,1.01,1.01,0,0,1,.109,2.014A.944.944,0,0,1,1525.858,331.092Z" fill="#e67960"/>
      <path id="Path_683" data-name="Path 683" d="M1530.759,330.785a.946.946,0,0,1,.9-1.066,1.01,1.01,0,0,1,.11,2.014A.944.944,0,0,1,1530.759,330.785Z" fill="#e67960"/>
      <path id="Path_684" data-name="Path 684" d="M1535.662,330.479a.947.947,0,0,1,.9-1.067,1.011,1.011,0,1,1-.9,1.067Z" fill="#e67960"/>
      <path id="Path_685" data-name="Path 685" d="M1540.564,330.172a.946.946,0,0,1,.9-1.066,1.01,1.01,0,0,1,.11,2.014A.944.944,0,0,1,1540.564,330.172Z" fill="#e67960"/>
      <path id="Path_686" data-name="Path 686" d="M1545.466,329.865a.946.946,0,0,1,.9-1.066,1.01,1.01,0,0,1,.109,2.014A.944.944,0,0,1,1545.466,329.865Z" fill="#e67960"/>
      <path id="Path_687" data-name="Path 687" d="M1550.368,329.559a.947.947,0,0,1,.9-1.067,1.011,1.011,0,1,1-.9,1.067Z" fill="#e67960"/>
      <path id="Path_688" data-name="Path 688" d="M1555.271,329.252a.946.946,0,0,1,.9-1.066,1.01,1.01,0,0,1,.109,2.014A.944.944,0,0,1,1555.271,329.252Z" fill="#e67960"/>
      <path id="Path_689" data-name="Path 689" d="M1560.172,328.946a.947.947,0,0,1,.9-1.067,1.01,1.01,0,1,1-.9,1.067Z" fill="#e67960"/>
      <path id="Path_690" data-name="Path 690" d="M1565.075,328.639a.946.946,0,0,1,.9-1.066,1.01,1.01,0,0,1,.109,2.014A.944.944,0,0,1,1565.075,328.639Z" fill="#e67960"/>
      <path id="Path_691" data-name="Path 691" d="M1569.977,328.332a.946.946,0,0,1,.9-1.066,1.01,1.01,0,0,1,.11,2.014A.944.944,0,0,1,1569.977,328.332Z" fill="#e67960"/>
      <path id="Path_692" data-name="Path 692" d="M1574.879,328.026a.947.947,0,0,1,.9-1.067,1.01,1.01,0,1,1-.9,1.067Z" fill="#e67960"/>
      <path id="Path_693" data-name="Path 693" d="M1579.781,327.719a.947.947,0,0,1,.9-1.066,1.01,1.01,0,0,1,.11,2.014A.944.944,0,0,1,1579.781,327.719Z" fill="#e67960"/>
      <path id="Path_694" data-name="Path 694" d="M1584.684,327.412a.946.946,0,0,1,.9-1.066,1.01,1.01,0,1,1-.9,1.066Z" fill="#e67960"/>
      <path id="Path_695" data-name="Path 695" d="M1589.586,327.106a.947.947,0,0,1,.9-1.067,1.011,1.011,0,1,1-.9,1.067Z" fill="#e67960"/>
      <path id="Path_696" data-name="Path 696" d="M1594.488,326.8a.946.946,0,0,1,.9-1.066,1.01,1.01,0,0,1,.11,2.014A.944.944,0,0,1,1594.488,326.8Z" fill="#e67960"/>
      <path id="Path_697" data-name="Path 697" d="M1599.39,326.492a.946.946,0,0,1,.9-1.066,1.01,1.01,0,1,1-.9,1.066Z" fill="#e67960"/>
      <path id="Path_698" data-name="Path 698" d="M1355.592,362.783a.946.946,0,0,1,.9-1.066,1.01,1.01,0,0,1,.109,2.014A.943.943,0,0,1,1355.592,362.783Z" fill="#e67960"/>
      <path id="Path_699" data-name="Path 699" d="M1360.494,362.476a.946.946,0,0,1,.9-1.066,1.01,1.01,0,0,1,.11,2.014A.944.944,0,0,1,1360.494,362.476Z" fill="#e67960"/>
      <path id="Path_700" data-name="Path 700" d="M1365.4,362.17a.947.947,0,0,1,.9-1.067,1.011,1.011,0,0,1,.109,2.015A.944.944,0,0,1,1365.4,362.17Z" fill="#e67960"/>
      <path id="Path_701" data-name="Path 701" d="M1370.3,361.863a.946.946,0,0,1,.9-1.066,1.01,1.01,0,0,1,.11,2.014A.944.944,0,0,1,1370.3,361.863Z" fill="#e67960"/>
      <path id="Path_702" data-name="Path 702" d="M1375.2,361.556a.946.946,0,0,1,.9-1.066,1.01,1.01,0,0,1,.109,2.014A.943.943,0,0,1,1375.2,361.556Z" fill="#e67960"/>
      <path id="Path_703" data-name="Path 703" d="M1380.1,361.25a.947.947,0,0,1,.9-1.067,1.011,1.011,0,1,1-.9,1.067Z" fill="#e67960"/>
      <path id="Path_704" data-name="Path 704" d="M1385.005,360.943a.946.946,0,0,1,.9-1.066,1.01,1.01,0,1,1-.9,1.066Z" fill="#e67960"/>
      <path id="Path_705" data-name="Path 705" d="M1389.907,360.637a.948.948,0,0,1,.9-1.067,1.01,1.01,0,1,1-.9,1.067Z" fill="#e67960"/>
      <path id="Path_706" data-name="Path 706" d="M1394.809,360.33a.946.946,0,0,1,.9-1.066,1.01,1.01,0,0,1,.11,2.014A.944.944,0,0,1,1394.809,360.33Z" fill="#e67960"/>
      <path id="Path_707" data-name="Path 707" d="M1399.711,360.023a.947.947,0,0,1,.9-1.066,1.01,1.01,0,0,1,.109,2.014A.944.944,0,0,1,1399.711,360.023Z" fill="#e67960"/>
      <path id="Path_708" data-name="Path 708" d="M1404.614,359.717a.947.947,0,0,1,.9-1.067,1.01,1.01,0,1,1-.9,1.067Z" fill="#e67960"/>
      <path id="Path_709" data-name="Path 709" d="M1409.516,359.41a.946.946,0,0,1,.9-1.066,1.01,1.01,0,0,1,.109,2.014A.944.944,0,0,1,1409.516,359.41Z" fill="#e67960"/>
      <path id="Path_710" data-name="Path 710" d="M1414.418,359.1a.946.946,0,0,1,.9-1.066,1.01,1.01,0,0,1,.11,2.014A.944.944,0,0,1,1414.418,359.1Z" fill="#e67960"/>
      <path id="Path_711" data-name="Path 711" d="M1419.32,358.8a.947.947,0,0,1,.9-1.067,1.011,1.011,0,1,1-.9,1.067Z" fill="#e67960"/>
      <path id="Path_712" data-name="Path 712" d="M1424.222,358.49a.946.946,0,0,1,.9-1.066,1.01,1.01,0,0,1,.11,2.014A.944.944,0,0,1,1424.222,358.49Z" fill="#e67960"/>
      <path id="Path_713" data-name="Path 713" d="M1429.125,358.183a.946.946,0,0,1,.9-1.066,1.01,1.01,0,1,1-.9,1.066Z" fill="#e67960"/>
      <path id="Path_714" data-name="Path 714" d="M1434.026,357.877a.946.946,0,0,1,.9-1.066,1.01,1.01,0,0,1,.11,2.014A.944.944,0,0,1,1434.026,357.877Z" fill="#e67960"/>
      <path id="Path_715" data-name="Path 715" d="M1438.929,357.57a.946.946,0,0,1,.9-1.066,1.01,1.01,0,0,1,.109,2.014A.944.944,0,0,1,1438.929,357.57Z" fill="#e67960"/>
      <path id="Path_716" data-name="Path 716" d="M1443.831,357.264a.947.947,0,0,1,.9-1.067,1.01,1.01,0,1,1-.9,1.067Z" fill="#e67960"/>
      <path id="Path_717" data-name="Path 717" d="M1448.733,356.957a.946.946,0,0,1,.9-1.066,1.01,1.01,0,1,1-.9,1.066Z" fill="#e67960"/>
      <path id="Path_718" data-name="Path 718" d="M1453.635,356.65a.947.947,0,0,1,.9-1.066,1.01,1.01,0,0,1,.109,2.014A.944.944,0,0,1,1453.635,356.65Z" fill="#e67960"/>
      <path id="Path_719" data-name="Path 719" d="M1458.538,356.344a.947.947,0,0,1,.9-1.067,1.011,1.011,0,1,1-.9,1.067Z" fill="#e67960"/>
      <path id="Path_720" data-name="Path 720" d="M1463.44,356.037a.946.946,0,0,1,.9-1.066,1.01,1.01,0,0,1,.109,2.014A.944.944,0,0,1,1463.44,356.037Z" fill="#e67960"/>
      <path id="Path_721" data-name="Path 721" d="M1468.342,355.73a.946.946,0,0,1,.9-1.066,1.01,1.01,0,1,1-.9,1.066Z" fill="#e67960"/>
      <path id="Path_722" data-name="Path 722" d="M1473.245,355.424a.947.947,0,0,1,.9-1.067,1.011,1.011,0,1,1-.9,1.067Z" fill="#e67960"/>
      <path id="Path_723" data-name="Path 723" d="M1478.146,355.117a.946.946,0,0,1,.9-1.066,1.01,1.01,0,0,1,.11,2.014A.944.944,0,0,1,1478.146,355.117Z" fill="#e67960"/>
      <path id="Path_724" data-name="Path 724" d="M1483.049,354.811a.946.946,0,0,1,.9-1.067,1.01,1.01,0,1,1-.9,1.067Z" fill="#e67960"/>
      <path id="Path_725" data-name="Path 725" d="M1487.951,354.5a.946.946,0,0,1,.9-1.066,1.01,1.01,0,0,1,.11,2.014A.944.944,0,0,1,1487.951,354.5Z" fill="#e67960"/>
      <path id="Path_726" data-name="Path 726" d="M1492.853,354.2a.946.946,0,0,1,.9-1.066,1.01,1.01,0,0,1,.109,2.014A.944.944,0,0,1,1492.853,354.2Z" fill="#e67960"/>
      <path id="Path_727" data-name="Path 727" d="M1497.755,353.891a.947.947,0,0,1,.9-1.067,1.011,1.011,0,1,1-.9,1.067Z" fill="#e67960"/>
      <path id="Path_728" data-name="Path 728" d="M1502.657,353.584a.946.946,0,0,1,.9-1.066,1.01,1.01,0,0,1,.109,2.014A.944.944,0,0,1,1502.657,353.584Z" fill="#e67960"/>
      <path id="Path_729" data-name="Path 729" d="M1507.559,353.277a.947.947,0,0,1,.9-1.066,1.01,1.01,0,1,1-.9,1.066Z" fill="#e67960"/>
      <path id="Path_730" data-name="Path 730" d="M1512.462,352.971a.947.947,0,0,1,.9-1.067,1.011,1.011,0,1,1-.9,1.067Z" fill="#e67960"/>
      <path id="Path_731" data-name="Path 731" d="M1517.363,352.664a.947.947,0,0,1,.9-1.066,1.01,1.01,0,0,1,.109,2.014A.944.944,0,0,1,1517.363,352.664Z" fill="#e67960"/>
      <path id="Path_732" data-name="Path 732" d="M1522.266,352.358a.947.947,0,0,1,.9-1.067,1.01,1.01,0,1,1-.9,1.067Z" fill="#e67960"/>
      <path id="Path_733" data-name="Path 733" d="M1527.168,352.051a.947.947,0,0,1,.9-1.066,1.01,1.01,0,0,1,.109,2.014A.944.944,0,0,1,1527.168,352.051Z" fill="#e67960"/>
      <path id="Path_734" data-name="Path 734" d="M1532.07,351.744a.946.946,0,0,1,.9-1.066,1.01,1.01,0,1,1-.9,1.066Z" fill="#e67960"/>
      <path id="Path_735" data-name="Path 735" d="M1536.973,351.438a.947.947,0,0,1,.9-1.067,1.011,1.011,0,1,1-.9,1.067Z" fill="#e67960"/>
      <path id="Path_736" data-name="Path 736" d="M1541.875,351.131a.946.946,0,0,1,.9-1.066,1.01,1.01,0,0,1,.11,2.014A.944.944,0,0,1,1541.875,351.131Z" fill="#e67960"/>
      <path id="Path_737" data-name="Path 737" d="M1546.777,350.824a.946.946,0,0,1,.9-1.066,1.01,1.01,0,0,1,.109,2.014A.944.944,0,0,1,1546.777,350.824Z" fill="#e67960"/>
      <path id="Path_738" data-name="Path 738" d="M1551.679,350.518a.947.947,0,0,1,.9-1.067,1.011,1.011,0,1,1-.9,1.067Z" fill="#e67960"/>
      <path id="Path_739" data-name="Path 739" d="M1556.582,350.211a.946.946,0,0,1,.9-1.066,1.01,1.01,0,0,1,.109,2.014A.944.944,0,0,1,1556.582,350.211Z" fill="#e67960"/>
      <path id="Path_740" data-name="Path 740" d="M1561.483,349.9a.947.947,0,0,1,.9-1.067,1.01,1.01,0,1,1-.9,1.067Z" fill="#e67960"/>
      <path id="Path_741" data-name="Path 741" d="M1566.386,349.6a.946.946,0,0,1,.9-1.066,1.01,1.01,0,0,1,.109,2.014A.944.944,0,0,1,1566.386,349.6Z" fill="#e67960"/>
      <path id="Path_742" data-name="Path 742" d="M1571.288,349.291a.946.946,0,0,1,.9-1.066,1.01,1.01,0,0,1,.11,2.014A.944.944,0,0,1,1571.288,349.291Z" fill="#e67960"/>
      <path id="Path_743" data-name="Path 743" d="M1576.19,348.985a.947.947,0,0,1,.9-1.067,1.011,1.011,0,0,1,.109,2.015A.944.944,0,0,1,1576.19,348.985Z" fill="#e67960"/>
      <path id="Path_744" data-name="Path 744" d="M1581.092,348.678a.946.946,0,0,1,.9-1.066,1.01,1.01,0,0,1,.11,2.014A.944.944,0,0,1,1581.092,348.678Z" fill="#e67960"/>
      <path id="Path_745" data-name="Path 745" d="M1585.995,348.371a.946.946,0,0,1,.9-1.066,1.01,1.01,0,0,1,.109,2.014A.944.944,0,0,1,1585.995,348.371Z" fill="#e67960"/>
      <path id="Path_746" data-name="Path 746" d="M1590.9,348.065a.947.947,0,0,1,.9-1.067,1.011,1.011,0,1,1-.9,1.067Z" fill="#e67960"/>
      <path id="Path_747" data-name="Path 747" d="M1595.8,347.758a.946.946,0,0,1,.9-1.066,1.01,1.01,0,0,1,.11,2.014A.944.944,0,0,1,1595.8,347.758Z" fill="#e67960"/>
      <path id="Path_748" data-name="Path 748" d="M1600.7,347.452a.946.946,0,0,1,.9-1.067,1.01,1.01,0,1,1-.9,1.067Z" fill="#e67960"/>
    </g>
    <path id="Path_749" data-name="Path 749" d="M1589.472,336.154l2.184,34.913,32.73-37.1Z" transform="translate(-758.701 -1378.648)" fill="#e67960"/>
    <g id="Group_189" data-name="Group 189" transform="translate(-758.701 -1378.648)">
      <path id="Path_750" data-name="Path 750" d="M1348.342,180.153c3.693-.158,7.332-.881,11.022-1.076a21.282,21.282,0,0,1,4.529,0L1358.342,53.16c-2.7,1.03-7.211.638-9.393.775-6.9.433-13.794.85-20.7,1.014l5.537,125.576C1338.488,179.609,1343.489,180.361,1348.342,180.153Z" fill="#ffab5e" opacity="0.8"/>
    </g>
  </g>
</svg>
