<svg xmlns="http://www.w3.org/2000/svg" width="350.326" height="338.524" viewBox="0 0 350.326 338.524">
  <g id="Group_201" data-name="Group 201" transform="translate(281.27 937.524)">
    <rect id="Rectangle_36" data-name="Rectangle 36" width="292.899" height="292.899" transform="translate(-247.264 -891.113) rotate(-4.198)" fill="#cfd0d2"/>
    <rect id="Rectangle_37" data-name="Rectangle 37" width="292.899" height="292.899" transform="translate(-252.264 -896.113) rotate(-4.198)" fill="#86cbca"/>
    <g id="Group_183" data-name="Group 183" transform="translate(-1583.701 -1736.648)">
      <g id="Group_168" data-name="Group 168">
        <rect id="Rectangle_38" data-name="Rectangle 38" width="0.25" height="292.899" transform="translate(1331.312 840.544) rotate(-4.198)" fill="#bed6de"/>
      </g>
      <g id="Group_169" data-name="Group 169">
        <rect id="Rectangle_39" data-name="Rectangle 39" width="0.25" height="292.899" transform="translate(1352.182 839.012) rotate(-4.197)" fill="#bed6de"/>
      </g>
      <g id="Group_170" data-name="Group 170">
        <rect id="Rectangle_40" data-name="Rectangle 40" width="0.25" height="292.899" transform="translate(1373.043 837.48) rotate(-4.198)" fill="#bed6de"/>
      </g>
      <g id="Group_171" data-name="Group 171">
        <rect id="Rectangle_41" data-name="Rectangle 41" width="0.25" height="292.899" transform="translate(1393.913 835.948) rotate(-4.197)" fill="#bed6de"/>
      </g>
      <g id="Group_172" data-name="Group 172">
        <rect id="Rectangle_42" data-name="Rectangle 42" width="0.25" height="292.899" transform="translate(1414.773 834.417) rotate(-4.198)" fill="#bed6de"/>
      </g>
      <g id="Group_173" data-name="Group 173">
        <rect id="Rectangle_43" data-name="Rectangle 43" width="0.25" height="292.899" transform="translate(1435.639 832.886) rotate(-4.198)" fill="#bed6de"/>
      </g>
      <g id="Group_174" data-name="Group 174">
        <rect id="Rectangle_44" data-name="Rectangle 44" width="0.25" height="292.899" transform="translate(1456.504 831.354) rotate(-4.198)" fill="#bed6de"/>
      </g>
      <g id="Group_175" data-name="Group 175">
        <rect id="Rectangle_45" data-name="Rectangle 45" width="0.25" height="292.899" transform="translate(1477.369 829.822) rotate(-4.198)" fill="#bed6de"/>
      </g>
      <g id="Group_176" data-name="Group 176">
        <rect id="Rectangle_46" data-name="Rectangle 46" width="0.25" height="292.899" transform="translate(1498.234 828.291) rotate(-4.198)" fill="#bed6de"/>
      </g>
      <g id="Group_177" data-name="Group 177">
        <rect id="Rectangle_47" data-name="Rectangle 47" width="0.25" height="292.899" transform="translate(1519.1 826.759) rotate(-4.198)" fill="#bed6de"/>
      </g>
      <g id="Group_178" data-name="Group 178">
        <rect id="Rectangle_48" data-name="Rectangle 48" width="0.25" height="292.899" transform="translate(1539.965 825.227) rotate(-4.198)" fill="#bed6de"/>
      </g>
      <g id="Group_179" data-name="Group 179">
        <rect id="Rectangle_49" data-name="Rectangle 49" width="0.25" height="292.899" transform="translate(1560.83 823.696) rotate(-4.198)" fill="#bed6de"/>
      </g>
      <g id="Group_180" data-name="Group 180">
        <rect id="Rectangle_50" data-name="Rectangle 50" width="0.25" height="292.899" transform="translate(1581.695 822.164) rotate(-4.198)" fill="#bed6de"/>
      </g>
      <g id="Group_181" data-name="Group 181">
        <rect id="Rectangle_51" data-name="Rectangle 51" width="0.25" height="292.899" transform="translate(1602.561 820.633) rotate(-4.198)" fill="#bed6de"/>
      </g>
      <g id="Group_182" data-name="Group 182">
        <rect id="Rectangle_52" data-name="Rectangle 52" width="0.25" height="292.899" transform="translate(1623.426 819.101) rotate(-4.198)" fill="#bed6de"/>
      </g>
    </g>
    <path id="Path_131" data-name="Path 131" d="M1624.427,829.767l-.036-.5-10.308.757-.757-10.308-.5.037.757,10.307-20.368,1.5-.756-10.307-.5.036.757,10.308-20.366,1.495-.757-10.308-.5.037.757,10.308-20.367,1.495-.757-10.308-.5.037.756,10.307-20.366,1.495-.756-10.307-.5.036.756,10.308-20.367,1.495L1509,827.375l-.5.037.757,10.308-20.366,1.5-.757-10.308-.5.036.757,10.308-20.367,1.495-.757-10.308-.5.037.756,10.308-20.366,1.495-.756-10.308-.5.037.757,10.307-20.367,1.495-.757-10.307-.5.036.757,10.308-20.366,1.495-.757-10.308-.5.037.757,10.308-20.367,1.495-.757-10.308-.5.037.756,10.307L1363.7,848.4l-.756-10.308-.5.037.757,10.308-20.367,1.495-.757-10.308-.5.037.757,10.307-10.308.757.037.5,10.307-.757,1.5,20.367-10.308.757.036.5,10.308-.757L1345.4,891.7l-10.308.757.037.5,10.308-.756,1.495,20.367-10.308.756.037.5,10.307-.757,1.495,20.367-10.307.756.036.5,10.308-.757,1.495,20.367-10.308.757.037.5,10.308-.757,1.495,20.366-10.308.757.036.5,10.308-.756,1.495,20.367-10.307.756.036.5,10.308-.757,1.495,20.367-10.308.756.037.5,10.307-.757,1.5,20.367-10.308.757.036.5,10.308-.757,1.495,20.366-10.308.757.037.5,10.308-.756,1.495,20.367-10.308.756.037.5,10.307-.757,1.495,20.366-10.307.757.036.5,10.308-.757,1.495,20.367-10.308.757.037.5,10.308-.757.756,10.308.5-.037-.757-10.308,20.367-1.495.757,10.308.5-.037-.757-10.307,20.366-1.495.757,10.307.5-.036-.756-10.308,20.367-1.495.756,10.308.5-.037-.757-10.308,20.367-1.495.756,10.308.5-.037-.757-10.307,20.367-1.495.757,10.307.5-.036-.757-10.308,20.366-1.495.757,10.308.5-.037-.756-10.307,20.367-1.5.756,10.308.5-.036-.757-10.308,20.367-1.495.756,10.308.5-.037-.757-10.308,20.367-1.495.757,10.308.5-.037-.757-10.307,20.366-1.495.757,10.307.5-.036-.756-10.308,20.367-1.495.756,10.308.5-.037-.757-10.308,20.366-1.495.757,10.308.5-.036-.757-10.308,20.367-1.495.757,10.307.5-.036-.757-10.308,10.308-.756-.037-.5-10.308.756-1.495-20.367,10.308-.756-.037-.5-10.307.757-1.495-20.366,10.307-.757-.036-.5-10.308.757-1.495-20.367,10.308-.757-.037-.5-10.308.756-1.495-20.366,10.308-.756-.036-.5-10.308.757-1.495-20.368,10.307-.756-.036-.5-10.308.757-1.5-20.366,10.308-.757-.037-.5-10.307.757-1.5-20.367,10.308-.757-.036-.5-10.308.756-1.495-20.366,10.308-.756-.037-.5-10.308.757-1.495-20.368,10.308-.756-.037-.5-10.307.757-1.495-20.366,10.307-.757-.036-.5-10.308.757-1.495-20.367,10.308-.757-.037-.5-10.308.756-1.495-20.366,10.308-.757-.036-.5-10.308.757-1.495-20.368Zm-31.672,2.325,1.495,20.367-20.366,1.495-1.495-20.367ZM1477.216,965.938l-1.495-20.366,20.367-1.495,1.495,20.366Zm20.4-1,1.495,20.367-20.367,1.495-1.495-20.367Zm-20.9,1.033-20.366,1.495-1.495-20.366,20.366-1.5Zm.037.5,1.495,20.367-20.366,1.495-1.5-20.367Zm1.531,20.866,1.495,20.366-20.366,1.495-1.495-20.366Zm.5-.037,20.367-1.495,1.495,20.366-20.367,1.5Zm20.866-1.532,20.366-1.495,1.495,20.366-20.366,1.5Zm-.037-.5-1.495-20.367,20.366-1.5,1.495,20.367Zm-1.532-20.866-1.495-20.366,20.367-1.495,1.495,20.366Zm-1.531-20.865-1.495-20.367,20.366-1.495,1.495,20.367Zm-.5.037-20.367,1.495-1.495-20.367,20.367-1.495Zm-20.866,1.532-20.366,1.495-1.495-20.368,20.366-1.495Zm-20.864,1.531-20.367,1.495-1.495-20.367,20.367-1.495Zm.036.5,1.495,20.366L1435.485,969l-1.495-20.366Zm1.532,20.865,1.495,20.367-20.367,1.495-1.495-20.368Zm1.532,20.865,1.494,20.366-20.366,1.495-1.495-20.366Zm1.531,20.865,1.495,20.367-20.367,1.495-1.495-20.367Zm.5-.037,20.366-1.495,1.495,20.367-20.366,1.495Zm20.865-1.531,20.367-1.495,1.495,20.367-20.367,1.5Zm20.865-1.532,20.366-1.495,1.495,20.367L1502.676,1027Zm20.865-1.531,20.367-1.495,1.495,20.367-20.367,1.495Zm-.037-.5-1.494-20.366,20.366-1.495,1.5,20.366Zm-1.531-20.865-1.495-20.367,20.367-1.495,1.495,20.367Zm-1.532-20.866-1.495-20.366,20.367-1.495,1.495,20.366Zm-1.531-20.864-1.495-20.368,20.367-1.494,1.495,20.367Zm-1.532-20.866-1.5-20.366,20.367-1.495,1.495,20.366Zm-.5.037-20.366,1.495-1.495-20.367,20.366-1.495Zm-20.864,1.531-20.367,1.495-1.5-20.366,20.368-1.495Zm-20.866,1.532-20.366,1.495-1.495-20.366,20.366-1.495Zm-20.865,1.531-20.367,1.495-1.495-20.366,20.367-1.495Zm-20.866,1.532-20.366,1.495-1.495-20.366,20.366-1.495Zm.037.5,1.495,20.367-20.366,1.5-1.495-20.367Zm1.532,20.865,1.5,20.367-20.367,1.495-1.494-20.367Zm1.531,20.865,1.495,20.367-20.366,1.495-1.495-20.367Zm1.532,20.866,1.495,20.366-20.366,1.495-1.495-20.366Zm1.531,20.865,1.5,20.367-20.367,1.495-1.495-20.367Zm1.532,20.865,1.495,20.366-20.366,1.495-1.495-20.366Zm.5-.036,20.367-1.495,1.495,20.366-20.367,1.495Zm20.866-1.532,20.366-1.495,1.494,20.366-20.366,1.495Zm20.864-1.531,20.367-1.495,1.495,20.366-20.367,1.495Zm20.866-1.532,20.366-1.495,1.495,20.366-20.366,1.495Zm20.865-1.532,20.367-1.495,1.495,20.366-20.367,1.495Zm20.865-1.531,20.366-1.495,1.5,20.366-20.367,1.495Zm-.036-.5-1.495-20.367,20.366-1.495,1.495,20.367Zm-1.532-20.866-1.495-20.366,20.366-1.495,1.495,20.366Zm-1.531-20.864-1.495-20.368,20.366-1.495,1.495,20.367Zm-1.532-20.866-1.495-20.366,20.366-1.495,1.495,20.366Zm-1.532-20.865-1.495-20.367,20.366-1.495,1.495,20.367Zm-1.531-20.866-1.495-20.366,20.366-1.495,1.495,20.366Zm-1.532-20.864-1.495-20.368,20.366-1.495,1.495,20.368Zm-.5.036-20.367,1.495-1.495-20.367,20.367-1.495Zm-20.865,1.532-20.366,1.495-1.5-20.367,20.366-1.495Zm-20.865,1.531-20.367,1.495-1.495-20.367,20.367-1.495Zm-20.866,1.532-20.366,1.495-1.495-20.367,20.366-1.495Zm-20.865,1.532-20.367,1.495-1.495-20.367,20.367-1.5Zm-20.865,1.531-20.366,1.495-1.495-20.367,20.366-1.495Zm-20.865,1.532-20.367,1.495-1.495-20.367,20.367-1.495Zm.037.5,1.494,20.367-20.366,1.495-1.495-20.366Zm1.531,20.865,1.495,20.367-20.367,1.495-1.495-20.367Zm1.532,20.866,1.495,20.366-20.367,1.5L1392.26,951.7Zm1.531,20.865,1.495,20.367-20.367,1.495-1.495-20.367Zm1.532,20.866,1.5,20.366-20.367,1.495-1.495-20.366Zm1.532,20.864,1.495,20.367-20.367,1.495-1.495-20.367Zm1.531,20.866,1.495,20.366-20.367,1.495-1.495-20.366Zm1.532,20.865,1.495,20.367-20.367,1.495-1.495-20.367Zm.5-.037L1441.15,1053l1.495,20.367-20.366,1.495Zm20.865-1.531,20.367-1.5,1.495,20.367-20.367,1.495Zm20.866-1.532,20.366-1.495,1.495,20.367-20.366,1.495Zm20.865-1.532,20.367-1.495,1.495,20.367-20.367,1.495Zm20.866-1.531,20.366-1.495,1.495,20.367-20.366,1.495Zm20.864-1.532,20.367-1.495,1.495,20.367L1526.6,1067.2Zm20.866-1.532,20.366-1.495,1.5,20.368-20.366,1.494Zm20.865-1.531,20.367-1.495,1.495,20.367-20.367,1.495Zm-.037-.5-1.495-20.366,20.367-1.495,1.495,20.366Zm-1.531-20.865-1.495-20.367,20.367-1.495,1.495,20.367Zm-1.532-20.865-1.495-20.366,20.367-1.495,1.495,20.366Zm-1.532-20.865-1.495-20.367,20.367-1.495,1.495,20.367Zm-1.531-20.866-1.495-20.366,20.367-1.495,1.495,20.366Zm-1.532-20.865-1.495-20.367,20.367-1.495,1.495,20.367Zm-1.532-20.865-1.494-20.366,20.366-1.5,1.495,20.366Zm-1.531-20.865-1.495-20.367,20.367-1.495,1.495,20.367Zm-1.532-20.866-1.495-20.366,20.367-1.495,1.495,20.366Zm-.5.037-20.366,1.495-1.494-20.366,20.366-1.495Zm-20.864,1.531-20.367,1.495-1.495-20.366,20.367-1.495Zm-20.866,1.532-20.366,1.495-1.495-20.366,20.366-1.495Zm-20.865,1.532-20.367,1.495-1.495-20.366,20.367-1.5Zm-20.865,1.531-20.366,1.495-1.5-20.366,20.367-1.5Zm-20.865,1.532-20.367,1.495-1.495-20.366,20.367-1.495Zm-20.866,1.532-20.366,1.495L1407,866.705l20.366-1.495Zm-20.865,1.531-20.367,1.5-1.495-20.366,20.367-1.495Zm-20.865,1.532-20.366,1.495-1.495-20.366,20.366-1.495Zm.036.5,1.495,20.368L1368.3,911l-1.495-20.367ZM1388.7,910l1.495,20.366-20.366,1.495-1.495-20.366Zm1.531,20.865,1.5,20.367-20.367,1.495-1.495-20.367Zm1.532,20.866,1.495,20.366L1372.89,973.6,1371.4,953.23Zm1.532,20.864,1.495,20.368-20.366,1.494-1.495-20.367Zm1.531,20.866,1.495,20.366-20.366,1.495-1.495-20.366Zm1.532,20.865,1.495,20.367-20.366,1.495-1.495-20.367Zm1.532,20.866,1.494,20.366-20.366,1.495-1.495-20.366Zm1.531,20.864,1.495,20.367-20.366,1.495-1.495-20.367Zm1.532,20.866,1.495,20.366-20.366,1.495-1.495-20.366Zm.5-.036,20.368-1.5,1.494,20.367-20.367,1.495Zm20.866-1.532,20.366-1.495,1.495,20.366-20.366,1.495Zm20.865-1.532,20.367-1.495,1.495,20.366-20.367,1.495Zm20.866-1.531,20.366-1.495,1.495,20.366-20.366,1.495Zm20.865-1.532,20.367-1.495,1.494,20.366-20.367,1.495Zm20.865-1.532,20.366-1.495,1.495,20.367-20.366,1.494Zm20.865-1.531,20.367-1.495,1.495,20.366-20.367,1.495Zm20.866-1.532,20.366-1.495,1.495,20.366-20.366,1.5Zm20.865-1.531,20.366-1.5,1.5,20.367L1569.866,1085Zm20.865-1.532,20.366-1.495,1.495,20.366-20.366,1.495Zm-.036-.5-1.495-20.367,20.366-1.495,1.495,20.367Zm-1.532-20.866-1.495-20.366,20.366-1.495,1.495,20.367Zm-1.532-20.864-1.495-20.367,20.366-1.495,1.495,20.367Zm-1.531-20.866-1.495-20.366,20.366-1.495,1.495,20.366Zm-1.532-20.865-1.495-20.367,20.366-1.495,1.495,20.367Zm-1.532-20.865-1.495-20.367,20.366-1.495,1.495,20.366Zm-1.531-20.865-1.495-20.367,20.366-1.495,1.495,20.367Zm-1.532-20.866-1.495-20.366,20.366-1.495,1.495,20.366Zm-1.531-20.865-1.5-20.367,20.367-1.495,1.495,20.367Zm-1.532-20.865-1.495-20.367,20.366-1.5,1.495,20.367Zm-3.525-41.2,1.495,20.367-20.367,1.495-1.495-20.367Zm-20.866,1.532,1.495,20.367-20.366,1.5-1.495-20.367Zm-20.865,1.531,1.495,20.368-20.367,1.495-1.495-20.367Zm-20.866,1.532,1.495,20.367-20.366,1.495-1.495-20.367Zm-20.864,1.532,1.495,20.367-20.367,1.495-1.495-20.367Zm-20.866,1.531,1.495,20.368-20.366,1.495-1.495-20.368Zm-20.865,1.532,1.495,20.367-20.367,1.495-1.495-20.367Zm-20.866,1.532,1.495,20.367-20.366,1.495-1.495-20.367Zm-20.864,1.531,1.495,20.367-20.367,1.495-1.495-20.367Zm-20.866,1.532,1.495,20.367-20.366,1.495-1.495-20.367Zm-41.232,3.027,20.367-1.495,1.495,20.367-20.367,1.495ZM1344.4,871.3l20.367-1.495,1.495,20.366-20.367,1.495Zm1.531,20.865,20.367-1.495,1.5,20.367-20.368,1.495Zm1.532,20.866,20.367-1.495,1.495,20.366-20.367,1.495ZM1349,933.9l20.367-1.5,1.495,20.367-20.367,1.5Zm1.531,20.865,20.367-1.495,1.495,20.366-20.367,1.495Zm1.532,20.865,20.367-1.495,1.495,20.367-20.367,1.495Zm1.531,20.866L1373.96,995l1.494,20.366-20.367,1.495Zm1.532,20.864,20.367-1.494,1.495,20.367-20.367,1.495Zm1.532,20.866,20.367-1.495,1.495,20.366-20.367,1.495Zm1.531,20.865,20.367-1.495,1.495,20.367-20.367,1.495Zm1.532,20.866,20.367-1.495,1.495,20.366-20.367,1.495Zm3.027,41.232-1.495-20.367,20.367-1.495,1.495,20.367Zm20.865-1.532-1.495-20.367,20.366-1.495,1.5,20.367Zm20.865-1.532-1.495-20.367,20.367-1.495,1.495,20.367Zm20.866-1.531-1.495-20.367,20.366-1.495,1.495,20.367Zm20.865-1.532-1.495-20.367,20.367-1.495,1.495,20.367Zm20.865-1.532-1.495-20.367,20.366-1.5,1.495,20.367Zm20.865-1.531-1.495-20.367,20.367-1.495,1.495,20.367Zm20.866-1.532-1.495-20.367,20.366-1.495,1.495,20.367Zm20.865-1.531-1.495-20.367,20.367-1.495,1.495,20.366Zm20.865-1.532-1.495-20.367,20.366-1.495,1.495,20.367Zm20.865-1.532L1569.9,1085.5l20.367-1.495,1.495,20.367Zm20.866-1.531-1.495-20.367,20.366-1.495,1.495,20.367Zm41.232-3.027-20.367,1.495-1.495-20.367,20.367-1.495Zm-1.532-20.866-20.367,1.495-1.495-20.366,20.367-1.495Zm-1.532-20.864-20.367,1.495-1.495-20.367,20.367-1.5Zm-1.531-20.866-20.367,1.495-1.5-20.366,20.367-1.495Zm-1.532-20.865L1607,1019.344l-1.495-20.367,20.367-1.495Zm-1.532-20.866-20.367,1.5-1.494-20.366,20.366-1.495Zm-1.531-20.864-20.367,1.495-1.495-20.367,20.367-1.495Zm-1.532-20.866-20.367,1.495-1.495-20.366,20.367-1.495Zm-1.531-20.865-20.367,1.495-1.5-20.367,20.368-1.495Zm-1.532-20.866-20.367,1.5-1.495-20.366,20.367-1.495Zm-1.532-20.864-20.367,1.495-1.495-20.367,20.367-1.495Zm-1.531-20.866-20.367,1.495-1.495-20.366,20.367-1.495Zm-1.532-20.865-20.367,1.495-1.495-20.367,20.367-1.495Z" transform="translate(-1583.701 -1736.648)" fill="#8dd6d5"/>
    <path id="Path_132" data-name="Path 132" d="M1623.791,818.949l-.125.009-.009-.125-292.363,21.461.009.125-.124.009,21.46,292.363.125-.009.009.125,292.363-21.462-.009-.124.125-.009ZM1487.985,976.138l1.494,20.366L1469.112,998l-1.5-20.366Zm-20.4,1-1.495-20.367,20.367-1.5,1.495,20.367Zm20.9-1.033,20.366-1.495,1.495,20.367-20.366,1.495Zm-.036-.5-1.5-20.367,20.367-1.495,1.495,20.367Zm-1.532-20.866-1.495-20.366,20.366-1.495,1.495,20.366Zm-.5.037-20.367,1.495-1.495-20.366,20.367-1.495ZM1465.55,956.3l-20.366,1.495-1.495-20.366,20.367-1.495Zm.037.5,1.495,20.367-20.366,1.495-1.495-20.367Zm1.532,20.866,1.495,20.366-20.366,1.495-1.495-20.366Zm1.531,20.864,1.495,20.368-20.366,1.495-1.495-20.367Zm.5-.036L1489.516,997l1.495,20.367-20.367,1.495Zm20.866-1.532,20.366-1.495,1.495,20.367-20.366,1.495Zm20.864-1.531,20.368-1.495,1.495,20.367-20.367,1.495Zm-.036-.5-1.495-20.366,20.367-1.495,1.495,20.366Zm-1.532-20.865-1.495-20.367,20.367-1.495,1.495,20.367Zm-1.531-20.865-1.495-20.367,20.367-1.495,1.495,20.366Zm-1.532-20.865-1.495-20.367,20.367-1.495,1.495,20.367Zm-.5.036-20.366,1.495-1.5-20.367,20.366-1.495Zm-20.864,1.532-20.367,1.495-1.5-20.367,20.368-1.495Zm-20.866,1.532-20.366,1.494-1.495-20.366,20.366-1.495Zm-20.865,1.531-20.367,1.495-1.495-20.367,20.367-1.495Zm.037.5,1.495,20.366-20.367,1.495-1.495-20.366Zm1.531,20.865,1.495,20.367L1425.85,980.2l-1.495-20.367Zm1.532,20.865,1.495,20.366-20.367,1.5-1.495-20.367Zm1.532,20.865,1.495,20.367-20.367,1.495-1.5-20.367Zm1.531,20.866,1.495,20.366-20.367,1.495-1.495-20.366Zm.5-.037,20.366-1.495,1.495,20.366-20.366,1.495Zm20.865-1.531,20.367-1.495,1.495,20.366-20.367,1.495Zm20.865-1.532,20.367-1.495,1.495,20.366-20.367,1.495Zm20.865-1.532,20.367-1.495,1.495,20.366-20.367,1.5Zm20.866-1.531,20.366-1.495,1.495,20.366-20.366,1.495Zm-.037-.5-1.495-20.367,20.366-1.495,1.495,20.367Zm-1.531-20.866-1.495-20.366,20.366-1.495,1.495,20.366Zm-1.532-20.864-1.495-20.367,20.366-1.5,1.495,20.368Zm-1.532-20.866-1.495-20.366,20.366-1.495,1.5,20.366Zm-1.531-20.865-1.495-20.367,20.366-1.495,1.495,20.367Zm-1.532-20.866-1.495-20.366,20.366-1.5,1.495,20.366Zm-.5.037-20.368,1.495-1.495-20.366,20.367-1.495Zm-20.866,1.532-20.366,1.495-1.495-20.366,20.366-1.495Zm-20.865,1.531-20.367,1.495-1.495-20.366,20.367-1.495Zm-20.866,1.532-20.366,1.495-1.495-20.366,20.366-1.495Zm-20.865,1.531-20.367,1.5-1.494-20.367,20.367-1.495Zm-20.865,1.532-20.366,1.495-1.495-20.366,20.366-1.5Zm.036.5,1.495,20.367L1401.922,940l-1.495-20.367ZM1422.325,939l1.495,20.366-20.366,1.494-1.495-20.366Zm1.532,20.864,1.495,20.367-20.366,1.495-1.495-20.367Zm1.531,20.866,1.5,20.366-20.366,1.495-1.495-20.366Zm1.532,20.865,1.495,20.367-20.366,1.495-1.495-20.367Zm1.531,20.865,1.5,20.367-20.367,1.495-1.495-20.367Zm1.532,20.865,1.495,20.367-20.366,1.495-1.5-20.367Zm.5-.036,20.367-1.495,1.495,20.367-20.367,1.5Zm20.865-1.532,20.367-1.495,1.495,20.367-20.366,1.495Zm20.865-1.532,20.367-1.495,1.495,20.367-20.367,1.495Zm20.866-1.531,20.366-1.495,1.495,20.367-20.366,1.495Zm20.865-1.532,20.367-1.495,1.495,20.367-20.367,1.495Zm20.865-1.532,20.367-1.494,1.495,20.367L1536.3,1056Zm20.865-1.531,20.367-1.495,1.495,20.367-20.367,1.495Zm-.036-.5-1.495-20.366,20.367-1.495,1.495,20.366Zm-1.532-20.865-1.495-20.367,20.367-1.495,1.495,20.367Zm-1.532-20.865-1.495-20.366,20.367-1.495,1.5,20.366Zm-1.531-20.865-1.495-20.367,20.367-1.495,1.5,20.367Zm-1.532-20.866-1.495-20.366,20.367-1.495,1.495,20.366Zm-1.531-20.864-1.495-20.368,20.367-1.495,1.495,20.367Zm-1.532-20.866-1.495-20.366,20.367-1.495,1.495,20.366Zm-1.532-20.865-1.495-20.367,20.367-1.495,1.495,20.367Zm-.5.037-20.366,1.495-1.5-20.367,20.367-1.495Zm-20.865,1.531-20.367,1.495-1.5-20.367,20.367-1.495Zm-20.866,1.532-20.366,1.5-1.495-20.367,20.366-1.495Zm-20.865,1.531-20.367,1.5-1.495-20.368,20.367-1.5Zm-20.865,1.532-20.366,1.495-1.5-20.367,20.367-1.495Zm-20.865,1.532-20.367,1.495-1.495-20.367,20.367-1.495Zm-20.866,1.531-20.366,1.495-1.495-20.367,20.366-1.495ZM1398.36,898.3l-20.367,1.495-1.495-20.367,20.367-1.495Zm.037.5,1.495,20.366-20.367,1.495L1378.03,900.3Zm1.532,20.864,1.495,20.367-20.367,1.5-1.495-20.367Zm1.531,20.866,1.495,20.366-20.367,1.495-1.495-20.366Zm1.532,20.865,1.5,20.367-20.367,1.495-1.495-20.367Zm1.531,20.866,1.5,20.366-20.368,1.495-1.494-20.366Zm1.532,20.864,1.495,20.367-20.367,1.495-1.495-20.367Zm1.532,20.866,1.495,20.366-20.367,1.495-1.495-20.366Zm1.531,20.865,1.495,20.367-20.367,1.495-1.495-20.367Zm1.532,20.866,1.495,20.366-20.367,1.495-1.495-20.366Zm.5-.037,20.366-1.495,1.495,20.366-20.366,1.495Zm20.864-1.532,20.367-1.495,1.5,20.366-20.368,1.495Zm20.866-1.531,20.366-1.495,1.495,20.366-20.366,1.495Zm20.865-1.532,20.367-1.495,1.495,20.366-20.367,1.495Zm20.866-1.532,20.366-1.494,1.495,20.366-20.366,1.495Zm20.864-1.531,20.367-1.495,1.5,20.366-20.368,1.495Zm20.866-1.532,20.366-1.495,1.495,20.366-20.366,1.495Zm20.865-1.531,20.367-1.5,1.495,20.367-20.367,1.495Zm20.866-1.532,20.366-1.495,1.495,20.366-20.366,1.495Zm-.037-.5-1.5-20.367,20.366-1.495,1.495,20.367Zm-1.532-20.865-1.495-20.367,20.366-1.494,1.5,20.366Zm-1.531-20.865-1.495-20.367,20.366-1.5,1.495,20.367Zm-1.532-20.866-1.495-20.366,20.366-1.495,1.495,20.366Zm-1.531-20.865-1.495-20.367,20.366-1.495,1.495,20.367Zm-1.532-20.865-1.495-20.366,20.366-1.5,1.495,20.367Zm-1.532-20.865-1.495-20.367,20.366-1.5,1.495,20.367Zm-1.531-20.866-1.495-20.366,20.366-1.495,1.495,20.366Zm-1.532-20.865-1.495-20.367,20.366-1.495,1.495,20.367Zm-1.532-20.865-1.495-20.366,20.367-1.495,1.495,20.366Zm-.5.036-20.367,1.5-1.495-20.366,20.367-1.495Zm-20.866,1.532-20.366,1.495-1.495-20.366,20.366-1.495Zm-20.865,1.531-20.367,1.5-1.495-20.367,20.367-1.495Zm-20.865,1.532-20.367,1.495-1.495-20.366,20.366-1.495Zm-20.865,1.532-20.367,1.495-1.495-20.366,20.367-1.495Zm-20.866,1.531-20.366,1.495-1.495-20.366,20.366-1.495Zm-20.865,1.532-20.367,1.495-1.495-20.366,20.367-1.495Zm-20.866,1.532-20.366,1.495-1.494-20.366,20.366-1.495Zm-20.864,1.531-20.367,1.495-1.495-20.366,20.367-1.495Zm-20.866,1.532-20.366,1.495L1354.1,860.1l20.366-1.495Zm.037.5,1.495,20.367-20.366,1.495-1.495-20.367Zm1.531,20.865,1.495,20.366L1358.66,922.2l-1.495-20.366Zm1.532,20.865,1.495,20.367-20.366,1.495L1358.7,922.7Zm1.532,20.866,1.495,20.366-20.367,1.495-1.495-20.366Zm1.531,20.865,1.495,20.367-20.366,1.494-1.495-20.366Zm1.532,20.865,1.495,20.366-20.366,1.495-1.495-20.366Zm1.531,20.865,1.495,20.367-20.366,1.495-1.495-20.367Zm1.532,20.866,1.495,20.366-20.366,1.495-1.495-20.366Zm1.532,20.864,1.495,20.368-20.366,1.495-1.495-20.368Zm1.531,20.866,1.495,20.366-20.366,1.495-1.495-20.366Zm1.532,20.865,1.495,20.367-20.366,1.495-1.495-20.367Zm.5-.037,20.367-1.495,1.495,20.367-20.367,1.495Zm20.865-1.531,20.366-1.495,1.495,20.367-20.366,1.495Zm20.865-1.532,20.367-1.495,1.495,20.367-20.367,1.495Zm20.866-1.532,20.366-1.494,1.495,20.367-20.366,1.495Zm20.864-1.531,20.368-1.495,1.495,20.367-20.367,1.495Zm20.866-1.532,20.366-1.495L1518,1099.3l-20.366,1.495Zm20.865-1.531,20.367-1.495,1.495,20.367-20.367,1.495Zm20.866-1.532,20.366-1.495,1.495,20.367-20.366,1.495Zm20.864-1.532,20.368-1.495,1.495,20.367-20.367,1.495Zm20.866-1.531,20.366-1.495,1.495,20.367-20.366,1.495Zm20.865-1.532,20.367-1.495,1.495,20.367-20.367,1.495Zm-.037-.5-1.495-20.367,20.367-1.495,1.5,20.366Zm-1.531-20.865-1.495-20.367,20.367-1.495,1.495,20.367Zm-1.532-20.866-1.495-20.366,20.367-1.495,1.495,20.366Zm-1.531-20.865-1.5-20.367,20.367-1.495,1.495,20.367ZM1594.3,988.81l-1.495-20.367,20.367-1.495,1.495,20.366Zm-1.532-20.865-1.495-20.367,20.367-1.495,1.495,20.367Zm-1.531-20.866-1.495-20.366,20.367-1.495,1.495,20.366Zm-1.532-20.865-1.495-20.367,20.367-1.495,1.495,20.367Zm-1.532-20.865-1.495-20.367,20.368-1.495,1.495,20.366Zm-1.531-20.865-1.495-20.367,20.367-1.495,1.495,20.367Zm-1.532-20.866-1.495-20.366,20.367-1.495,1.495,20.366Zm-1.531-20.865-1.5-20.367,20.368-1.495,1.495,20.367Zm-.5.037-20.366,1.495-1.495-20.367,20.366-1.5Zm-20.865,1.531-20.367,1.5-1.495-20.368,20.367-1.495Zm-20.866,1.532-20.366,1.495-1.5-20.367,20.366-1.495Zm-20.864,1.532-20.367,1.495-1.495-20.367,20.367-1.495Zm-20.866,1.531-20.366,1.495-1.495-20.367,20.366-1.495Zm-20.865,1.532-20.367,1.495-1.495-20.367,20.367-1.495Zm-20.866,1.532-20.366,1.495-1.495-20.367,20.366-1.495Zm-20.864,1.531-20.367,1.495-1.495-20.367,20.367-1.495Zm-20.866,1.532-20.366,1.495-1.495-20.367,20.366-1.495Zm-20.865,1.531-20.367,1.5-1.495-20.368,20.367-1.5Zm-20.866,1.532-20.366,1.495-1.495-20.367,20.366-1.495Zm-20.864,1.532-20.367,1.495-1.495-20.367,20.367-1.495Zm.036.5L1355.1,880.5l-20.367,1.5-1.495-20.367ZM1355.135,881l1.495,20.367-20.367,1.495-1.495-20.367Zm1.531,20.866,1.5,20.366-20.367,1.5-1.495-20.366Zm1.532,20.865,1.495,20.367-20.367,1.495-1.495-20.367Zm1.532,20.865,1.495,20.366-20.367,1.5-1.495-20.367Zm1.531,20.865,1.495,20.367-20.367,1.495-1.495-20.367Zm1.532,20.866,1.495,20.366-20.367,1.5-1.495-20.366Zm1.532,20.865,1.495,20.367-20.367,1.495-1.495-20.367Zm1.531,20.865,1.495,20.366-20.367,1.495-1.495-20.366Zm1.532,20.865,1.5,20.367-20.367,1.495-1.495-20.367Zm1.532,20.866,1.494,20.366-20.367,1.495-1.495-20.366Zm1.531,20.865,1.495,20.367-20.367,1.495-1.495-20.367Zm1.532,20.865,1.495,20.366-20.367,1.495-1.495-20.366Zm.5-.036,20.366-1.495,1.495,20.366-20.366,1.495Zm20.865-1.532,20.367-1.495,1.495,20.366-20.367,1.495Zm20.866-1.532,20.366-1.495,1.495,20.367-20.366,1.495Zm20.865-1.531,20.367-1.495,1.495,20.366-20.367,1.495Zm20.865-1.532,20.366-1.495,1.5,20.366-20.367,1.495Zm20.865-1.531,20.367-1.5,1.495,20.367-20.367,1.495Zm20.866-1.532,20.366-1.495,1.5,20.366-20.366,1.5Zm20.865-1.532,20.367-1.495,1.495,20.366-20.367,1.495Zm20.865-1.531,20.367-1.495,1.495,20.366L1540.9,1118.6Zm20.865-1.532,20.367-1.495,1.495,20.366-20.367,1.495Zm20.866-1.532,20.366-1.494,1.495,20.366-20.366,1.495Zm20.865-1.531,20.367-1.495,1.495,20.366L1603.494,1114Zm20.865-1.532,20.366-1.495,1.5,20.366-20.367,1.495Zm-.036-.5-1.495-20.367,20.366-1.495,1.495,20.367Zm-1.532-20.866-1.495-20.366,20.366-1.495,1.495,20.366Zm-1.531-20.865-1.495-20.367,20.366-1.495,1.495,20.367Zm-1.532-20.866-1.495-20.366,20.366-1.5,1.495,20.366Zm-1.532-20.864-1.495-20.367,20.366-1.495,1.495,20.367Zm-1.531-20.866-1.495-20.366,20.366-1.495,1.495,20.366Zm-1.532-20.865-1.495-20.367,20.366-1.495L1634,964.918Zm-1.532-20.866-1.495-20.366,20.367-1.5,1.494,20.366Zm-1.531-20.864-1.495-20.367,20.366-1.5,1.495,20.368Zm-1.532-20.866-1.495-20.366,20.366-1.495,1.5,20.366Zm-1.531-20.865-1.5-20.367,20.367-1.495,1.495,20.367Zm-1.532-20.866-1.495-20.366,20.366-1.495,1.495,20.366Zm-1.532-20.864-1.495-20.367,20.366-1.495,1.495,20.367Z" transform="translate(-1583.701 -1736.648)" fill="#7dbdbc"/>
    <g id="Group_184" data-name="Group 184" transform="translate(-1583.701 -1736.648)">
      <path id="Path_133" data-name="Path 133" d="M1648.385,867.478c1.9-3.174.017-9.156,1.878-12.349a20.111,20.111,0,0,1,2.494-3.781l-90.174-52.224c-.572,2.85-3.41,6.388-4.491,8.288-3.418,6-6.851,12-10.514,17.861l89.868,52.039C1639.224,872.856,1645.894,871.648,1648.385,867.478Z" fill="#ffab5e" opacity="0.8"/>
    </g>
    <g id="Group_185" data-name="Group 185" transform="translate(-1583.701 -1736.648)">
      <path id="Path_134" data-name="Path 134" d="M1391.985,821.364c-2.406-2.807-5.335-5.126-7.775-7.9a16.991,16.991,0,0,1-2.764-3.591l-79.015,66.759c2.657,1.332.291,6.53,1.755,8.154,4.627,5.132,13.972,8.97,18.341,14.321l78.693-66.484C1397.453,829.611,1395.146,825.052,1391.985,821.364Z" fill="#ffab5e" opacity="0.8"/>
    </g>
  </g>
</svg>
