<svg xmlns="http://www.w3.org/2000/svg" width="319.945" height="345.762" viewBox="0 0 319.945 345.762">
  <g id="Group_203" data-name="Group 203" transform="translate(-556.938 936.185)">
    <rect id="Rectangle_33" data-name="Rectangle 33" width="292.899" height="292.899" transform="translate(561.938 -882.422) rotate(-4.493)" fill="#cfd0d2"/>
    <rect id="Rectangle_34" data-name="Rectangle 34" width="292.899" height="292.899" transform="translate(556.938 -887.422) rotate(-4.493)" fill="#ffab5e"/>
    <g id="Group_164" data-name="Group 164" transform="translate(-348.701 -1359.648)">
      <path id="Path_113" data-name="Path 113" d="M1195.389,471.734l-1,.078-2.991.235-.995.078-2.991.235-1,.078-2.991.235-.995.078-2.992.235-.995.078-2.991.235-1,.078-2.991.235-.995.078-2.991.235-1,.078-2.991.235-.995.078-2.991.235-1,.078-2.991.235-.995.078-2.992.235-.995.078-2.991.235-1,.078-2.991.235-.995.078-2.991.235-1,.078-2.991.235-1,.078-2.991.235-1,.078-2.991.235-.995.078-2.992.235-.995.078-2.991.235-1,.078-2.991.235-.995.078-2.991.235-1,.078-2.991.235-.995.078-2.991.235-1,.078-2.991.235-.995.078-2.992.235-.995.078-2.991.235-1,.078-2.991.235-.995.078-2.991.235-1,.078-2.991.235-.995.078-2.991.235-1,.078-2.991.235-.995.078-2.992.235-1,.078-2.991.235-1,.078-2.991.235-.995.078-2.991.235-1,.078-2.991.235-.995.078-2.991.235-1,.078-2.991.235-.995.078-2.992.235-.995.078-2.991.235-1,.078-2.991.235-.995.078-2.991.235-1,.078-2.991.235-.995.078-2.992.235-.995.078-2.991.235-1,.078-2.991.235-.995.078-2.991.235-1,.078-2.991.235-.995.078-2.991.235-1,.078-2.991.235-.995.078-2.992.235-.995.078-2.991.235-1,.078-2.991.235-.995.078-2.991.235-1,.078-2.991.235-.995.078-2.991.235-1,.078-2.991.235-.995.078-2.992.235-.995.078-2.991.235-1,.078-2.991.235-.995.078-2.991.235-1,.078-2.991.235-.995.078-2.991.235-1,.078-2.991.235-.995.078-2.992.235-.995.078-2.991.235-1,.078-2.991.235-.995.078-2.991.235-1,.078-2.991.235-1,.078-2.991.235-1,.078-2.991.235-.995.078-3.987.313.039.5,3.987-.313.995-.078,2.991-.235,1-.078,2.991-.235.995-.078,2.991-.235,1-.078,2.991-.235.995-.078,2.991-.235,1-.078,2.991-.235.995-.078,2.992-.235.995-.078,2.991-.235,1-.078,2.991-.235.995-.078,2.991-.235,1-.078,2.991-.235.995-.078,2.991-.235,1-.078,2.991-.235.995-.078,2.992-.235.995-.078,2.991-.235,1-.078,2.991-.235.995-.078,2.991-.235,1-.078,2.991-.235.995-.078,2.991-.235,1-.078,2.991-.235.995-.078,2.992-.235,1-.078,2.991-.235,1-.078,2.991-.235.995-.078,2.991-.235,1-.078,2.991-.235.995-.078,2.991-.235,1-.078,2.991-.235.995-.078,2.992-.235.995-.078,2.991-.235,1-.078,2.991-.235.995-.078,2.991-.235,1-.078,2.991-.235.995-.078,2.992-.235.995-.078,2.991-.235,1-.078,2.991-.235.995-.078,2.991-.235,1-.078,2.991-.235.995-.078,2.991-.235,1-.078,2.991-.235.995-.078,2.992-.235.995-.078,2.991-.235,1-.078,2.991-.235.995-.078,2.991-.235,1-.078,2.991-.235.995-.078,2.991-.235,1-.078,2.991-.235.995-.078,2.992-.235.995-.078,2.991-.235,1-.078,2.991-.235.995-.078,2.991-.235,1-.078,2.991-.235.995-.078,2.991-.235,1-.078,2.991-.235.995-.078,2.992-.235.995-.078,2.991-.235,1-.078,2.991-.235.995-.078,2.991-.235,1-.078,2.991-.235.995-.078,2.991-.235,1-.078,2.991-.235.995-.078,2.992-.235.995-.078,2.991-.235,1-.078,2.991-.235.995-.078,2.991-.235,1-.078,2.991-.235.995-.078,2.991-.235,1-.078,2.991-.235.995-.078,2.992-.235.995-.078,2.991-.235,1-.078,2.991-.235.995-.078,2.991-.235,1-.078,3.986-.313-.039-.5Z" fill="#ff886b"/>
      <path id="Path_114" data-name="Path 114" d="M1196.117,493.748l-2.991.235-.995.078-2.991.235-1,.078-2.991.235-.995.078-2.992.235-.995.078-2.991.235-1,.078-2.991.235-.995.078-2.991.235-1,.078-2.991.235-.995.078-2.991.235-1,.078-2.991.235-.995.078-2.992.235-.995.078-2.991.235-1,.078-2.991.235-.995.078-2.991.235-1,.078-2.991.235-.995.078-2.991.235-1,.078-2.991.235-.995.078-2.992.235-.995.078-2.991.235-1,.078-2.991.235-.995.078-2.991.235-1,.078-2.991.235-.995.078-2.991.235-1,.078-2.991.235-.995.078-2.992.235-.995.078-2.991.235-1,.078-2.991.235-.995.078-2.991.235-1,.078-2.991.235-.995.078-2.991.235-1,.078-2.991.235-.995.078-2.992.235-.995.078-2.991.235-1,.078-2.991.235-.995.078-2.991.235-1,.078-2.991.235-.995.078-2.991.235-1,.078-2.991.235-.995.078-2.992.235-.995.078-2.991.235-1,.078-2.991.235-.995.078-2.991.235-1,.078-2.991.235-.995.078-2.992.235-.995.078-2.991.235-1,.078-2.991.235-.995.078-2.991.235-1,.078-2.991.235-.995.078-2.991.235-1,.078-2.991.235-.995.078-2.992.235-.995.078-2.991.235-1,.078-2.991.235-.995.078-2.991.235-1,.078-2.991.235-.995.078-2.991.235-1,.078-2.991.235-.995.078-2.992.235-.995.078-2.991.235-1,.078-2.991.235-.995.078-2.991.235-1,.078-2.991.235-.995.078-2.991.235-1,.078-2.991.235-.995.078-2.992.235-.995.078-2.991.235-1,.078-2.991.235-.995.078-2.991.235-1,.078-2.991.235-.995.078-2.991.235-1,.078-2.991.235-.995.078-3.987.313.039.5,3.987-.313.995-.078,2.991-.235,1-.078,2.991-.235.995-.078,2.991-.235,1-.078,2.991-.235.995-.078,2.991-.235,1-.078,2.991-.235.995-.078,2.992-.235.995-.078,2.991-.235,1-.078,2.991-.235.995-.078,2.991-.235,1-.078,2.991-.235.995-.078,2.991-.235,1-.078,2.991-.235.995-.078,2.992-.235.995-.078,2.991-.235,1-.078,2.991-.235.995-.078,2.991-.235,1-.078,2.991-.235.995-.078,2.991-.235,1-.078,2.991-.235,1-.078,2.992-.235.995-.078,2.991-.235,1-.078,2.991-.235.995-.078,2.991-.235,1-.078,2.991-.235,1-.078,2.991-.235,1-.078,2.991-.235.995-.078,2.992-.235.995-.078,2.991-.235,1-.078,2.991-.235.995-.078,2.991-.235,1-.078,2.991-.235.995-.078,2.992-.235.995-.078,2.991-.235,1-.078,2.991-.235.995-.078,2.991-.235,1-.078,2.991-.235.995-.078,2.991-.235,1-.078,2.991-.235.995-.078,2.992-.235.995-.078,2.991-.235,1-.078,2.991-.235.995-.078,2.991-.235,1-.078,2.991-.235.995-.078,2.991-.235,1-.078,2.991-.235.995-.078,2.992-.235.995-.078,2.991-.235,1-.078,2.991-.235.995-.078,2.991-.235,1-.078,2.991-.235.995-.078,2.991-.235,1-.078,2.991-.235.995-.078,2.992-.235.995-.078,2.991-.235,1-.078,2.991-.235.995-.078,2.991-.235,1-.078,2.991-.235.995-.078,2.991-.235,1-.078,2.991-.235.995-.078,2.992-.235.995-.078,2.991-.235,1-.078,2.991-.235.995-.078,2.991-.235,1-.078,2.991-.235.995-.078,2.991-.235,1-.078,2.991-.235.995-.078,2.992-.235.995-.078,2.991-.235,1-.078,2.991-.235.995-.078,2.991-.235,1-.078,3.986-.313-.039-.5-3.986.313Z" fill="#ff886b"/>
      <path id="Path_115" data-name="Path 115" d="M1197.841,515.684l-2.991.235-.995.078-2.991.235-1,.078-2.991.235-.995.078-2.992.235-.995.078-2.991.235-1,.078-2.991.235-.995.078-2.991.235-1,.078-2.991.235-.995.078-2.991.235-1,.078-2.991.235-.995.078-2.992.235-.995.078-2.991.235-1,.078-2.991.235-.995.078-2.991.235-1,.078-2.991.235-.995.078-2.991.235-1,.078-2.991.235-.995.078-2.992.235-.995.078-2.991.235-1,.078-2.991.235-.995.078-2.991.235-1,.078-2.991.235-.995.078-2.991.235-1,.078-2.991.235-.995.078-2.992.235-.995.078-2.991.235-1,.078-2.991.235-.995.078-2.991.235-1,.078-2.991.235-.995.078-2.991.235-1,.078-2.991.235-.995.078-2.992.235-.995.078-2.991.235-1,.078-2.991.235-.995.078-2.991.235-1,.078-2.991.235-.995.078-2.991.235-1,.078-2.991.235-.995.078-2.992.235-.995.078-2.991.235-1,.078-2.991.235-1,.078-2.991.235-1,.078-2.991.235-.995.078-2.992.235-.995.078-2.991.235-1,.078-2.991.235-.995.078-2.991.235-1,.078-2.991.235-.995.078-2.991.235-1,.078-2.991.235-.995.078-2.992.235-.995.078-2.991.235-1,.078-2.991.235-.995.078-2.991.235-1,.078-2.991.235-.995.078-2.991.235-1,.078-2.991.235-.995.078-2.992.235-.995.078-2.991.235-1,.078-2.991.235-.995.078-2.991.235-1,.078-2.991.235-.995.078-2.991.235-1,.078-2.991.235-.995.078-2.992.235-.995.078-2.991.235-1,.078-2.991.235-.995.078-2.991.235-1,.078-2.991.235-.995.078-2.991.235-1,.078-2.991.235-.995.078-3.987.313.039.5,3.987-.313.995-.078,2.991-.235,1-.078,2.991-.235.995-.078,2.991-.235,1-.078,2.991-.235.995-.078,2.991-.235,1-.078,2.991-.235.995-.078,2.992-.235,1-.078,2.991-.235,1-.078,2.991-.235.995-.078,2.991-.235,1-.078,2.991-.235.995-.078,2.991-.235,1-.078,2.991-.235.995-.078,2.992-.235.995-.078,2.991-.235,1-.078,2.991-.235.995-.078,2.991-.235,1-.078,2.991-.235.995-.078,2.991-.235,1-.078,2.991-.235.995-.078,2.992-.235.995-.078,2.991-.235,1-.078,2.991-.235.995-.078,2.991-.235,1-.078,2.991-.235.995-.078,2.991-.235,1-.078,2.991-.235.995-.078,2.992-.235.995-.078,2.991-.235,1-.078,2.991-.235.995-.078,2.991-.235,1-.078,2.991-.235.995-.078,2.992-.235.995-.078,2.991-.235,1-.078,2.991-.235.995-.078,2.991-.235,1-.078,2.991-.235.995-.078,2.991-.235,1-.078,2.991-.235.995-.078,2.992-.235.995-.078,2.991-.235,1-.078,2.991-.235.995-.078,2.991-.235,1-.078,2.991-.235.995-.078,2.991-.235,1-.078,2.991-.235.995-.078,2.992-.235.995-.078,2.991-.235,1-.078,2.991-.235.995-.078,2.991-.235,1-.078,2.991-.235.995-.078,2.991-.235,1-.078,2.991-.235.995-.078,2.992-.235.995-.078,2.991-.235,1-.078,2.991-.235.995-.078,2.991-.235,1-.078,2.991-.235.995-.078,2.991-.235,1-.078,2.991-.235.995-.078,2.992-.235.995-.078L1162,519l1-.078,2.991-.235.995-.078,2.991-.235,1-.078,2.991-.235.995-.078,2.991-.235,1-.078,2.991-.235.995-.078,2.992-.235.995-.078,2.991-.235,1-.078,2.991-.235.995-.078,2.991-.235,1-.078,3.986-.313-.039-.5-3.986.313Z" fill="#ff886b"/>
      <path id="Path_116" data-name="Path 116" d="M1199.565,537.62l-2.991.235-.995.078-2.991.235-1,.078-2.991.235-.995.078-2.992.235-.995.078-2.991.235-1,.078-2.991.235-.995.078-2.991.235-1,.078-2.991.235-.995.078-2.991.235-1,.078-2.991.235-.995.078-2.992.235-.995.078-2.991.235-1,.078-2.991.235-1,.078-2.991.235-1,.078-2.991.235-.995.078-2.991.235-1,.078-2.991.235-.995.078-2.992.235-.995.078-2.991.235-1,.078-2.991.235-.995.078-2.991.235-1,.078-2.991.235-.995.078-2.991.235-1,.078-2.991.235-.995.078-2.992.235-.995.078-2.991.235-1,.078-2.991.235-.995.078-2.991.235-1,.078-2.991.235-.995.078-2.991.235-1,.078-2.991.235-.995.078-2.992.235-.995.078-2.991.235-1,.078-2.991.235-.995.078-2.991.235-1,.078-2.991.235-.995.078-2.991.235-1,.078-2.991.235-.995.078-2.992.235-.995.078-2.991.235-1,.078-2.991.235-.995.078-2.991.235-1,.078-2.991.235-.995.078-2.992.235-.995.078-2.991.235-1,.078-2.991.235-.995.078-2.991.235-1,.078-2.991.235-.995.078-2.991.235-1,.078-2.991.235-.995.078-2.992.235-.995.078-2.991.235-1,.078-2.991.235-.995.078-2.991.235-1,.078-2.991.235-.995.078-2.991.235-1,.078-2.991.235-.995.078-2.992.235-.995.078-2.991.235-1,.078-2.991.235-.995.078-2.991.235-1,.078-2.991.235-1,.078-2.991.235-1,.078-2.991.235-.995.078-2.992.235-.995.078-2.991.235-1,.078-2.991.235-1,.078-2.991.235-1,.078-2.991.235-.995.078-2.991.235-1,.078-2.991.235-.995.078-3.987.313.039.5,3.987-.313.995-.078,2.991-.235,1-.078,2.991-.235.995-.078,2.991-.235,1-.078,2.991-.235.995-.078,2.991-.235,1-.078,2.991-.235.995-.078,2.992-.235.995-.078,2.991-.235,1-.078,2.991-.235.995-.078,2.991-.235,1-.078,2.991-.235,1-.078,2.991-.235,1-.078,2.991-.235.995-.078,2.992-.235.995-.078,2.991-.235,1-.078,2.991-.235,1-.078,2.991-.235,1-.078,2.991-.235.995-.078,2.991-.235,1-.078,2.991-.235.995-.078,2.992-.235,1-.078,2.991-.235,1-.078,2.991-.235.995-.078,2.991-.235,1-.078,2.991-.235.995-.078,2.991-.235,1-.078,2.991-.235.995-.078,2.992-.235.995-.078,2.991-.235,1-.078,2.991-.235.995-.078,2.991-.235,1-.078,2.991-.235.995-.078,2.992-.235.995-.078,2.991-.235,1-.078,2.991-.235.995-.078,2.991-.235,1-.078,2.991-.235.995-.078,2.991-.235,1-.078,2.991-.235.995-.078,2.992-.235.995-.078,2.991-.235,1-.078L1084,547.2l.995-.078,2.991-.235,1-.078,2.991-.235.995-.078,2.991-.235,1-.078,2.991-.235.995-.078,2.992-.235.995-.078,2.991-.235,1-.078,2.991-.235.995-.078,2.991-.235,1-.078,2.991-.235.995-.078,2.991-.235,1-.078,2.991-.235.995-.078,2.992-.235.995-.078,2.991-.235,1-.078,2.991-.235.995-.078,2.991-.235,1-.078,2.991-.235.995-.078,2.991-.235,1-.078,2.991-.235.995-.078,2.992-.235.995-.078,2.991-.235,1-.078,2.991-.235.995-.078,2.991-.235,1-.078,2.991-.235.995-.078,2.991-.235,1-.078,2.991-.235.995-.078,2.992-.235.995-.078,2.991-.235,1-.078,2.991-.235,1-.078,2.991-.235,1-.078,3.986-.313-.039-.5-3.986.313Z" fill="#ff886b"/>
      <path id="Path_117" data-name="Path 117" d="M1201.289,559.556l-2.991.235-.995.078-2.991.235-1,.078-2.991.235-.995.078-2.992.235-.995.078-2.991.235-1,.078-2.991.235-.995.078-2.991.235-1,.078-2.991.235-.995.078-2.991.235-1,.078-2.991.235-.995.078-2.992.235-.995.078-2.991.235-1,.078-2.991.235-.995.078-2.991.235-1,.078-2.991.235-.995.078-2.991.235-1,.078-2.991.235-.995.078-2.992.235-.995.078-2.991.235-1,.078-2.991.235-.995.078-2.991.235-1,.078-2.991.235-.995.078-2.991.235-1,.078-2.991.235-.995.078-2.992.235-.995.078-2.991.235-1,.078-2.991.235-.995.078-2.991.235-1,.078-2.991.235-.995.078-2.991.235-1,.078-2.991.235-.995.078-2.992.235-.995.078-2.991.235-1,.078-2.991.235-.995.078-2.991.235-1,.078-2.991.235-.995.078-2.991.235-1,.078-2.991.235-.995.078-2.992.235-.995.078-2.991.235-1,.078-2.991.235-.995.078-2.991.235-1,.078-2.991.235-1,.078-2.992.235-.995.078-2.991.235-1,.078-2.991.235-1,.078-2.991.235-1,.078-2.991.235-.995.078-2.991.235-1,.078-2.991.235-.995.078-2.992.235-1,.078-2.991.235-1,.078-2.991.235-.995.078-2.991.235-1,.078-2.991.235-.995.078-2.991.235-1,.078-2.991.235-.995.078-2.992.235-.995.078-2.991.235-1,.078-2.991.235-.995.078-2.991.235-1,.078-2.991.235-.995.078-2.991.235-1,.078-2.991.235-.995.078-2.992.235-.995.078-2.991.235-1,.078-2.991.235-.995.078-2.991.235-1,.078-2.991.235-.995.078-2.991.235-1,.078-2.991.235-.995.078-3.987.313.039.5,3.987-.313.995-.078,2.991-.235,1-.078,2.991-.235.995-.078,2.991-.235,1-.078,2.991-.235.995-.078,2.991-.235,1-.078,2.991-.235.995-.078,2.992-.235.995-.078,2.991-.235,1-.078,2.991-.235.995-.078,2.991-.235,1-.078,2.991-.235.995-.078,2.991-.235,1-.078,2.991-.235.995-.078,2.992-.235.995-.078,2.991-.235,1-.078,2.991-.235.995-.078,2.991-.235,1-.078,2.991-.235.995-.078,2.991-.235,1-.078,2.991-.235.995-.078,2.992-.235.995-.078L1006,575.4l1-.078,2.991-.235.995-.078,2.991-.235,1-.078,2.991-.235.995-.078,2.991-.235,1-.078,2.991-.235.995-.078,2.992-.235.995-.078,2.991-.235,1-.078,2.991-.235.995-.078,2.991-.235,1-.078,2.991-.235.995-.078,2.992-.235.995-.078,2.991-.235,1-.078,2.991-.235.995-.078,2.991-.235,1-.078,2.991-.235.995-.078,2.991-.235,1-.078,2.991-.235.995-.078,2.992-.235.995-.078,2.991-.235,1-.078,2.991-.235.995-.078,2.991-.235,1-.078,2.991-.235.995-.078,2.991-.235,1-.078,2.991-.235.995-.078,2.992-.235.995-.078,2.991-.235,1-.078,2.991-.235.995-.078,2.991-.235,1-.078,2.991-.235.995-.078,2.991-.235,1-.078,2.991-.235.995-.078,2.992-.235.995-.078,2.991-.235,1-.078,2.991-.235.995-.078,2.991-.235,1-.078,2.991-.235.995-.078,2.991-.235,1-.078,2.991-.235.995-.078,2.992-.235.995-.078,2.991-.235,1-.078,2.991-.235.995-.078,2.991-.235,1-.078,2.991-.235.995-.078,2.991-.235,1-.078,2.991-.235.995-.078,2.992-.235.995-.078,2.991-.235,1-.078,2.991-.235.995-.078,2.991-.235,1-.078,3.986-.313-.039-.5-3.986.313Z" fill="#ff886b"/>
      <path id="Path_118" data-name="Path 118" d="M1203.012,581.492l-2.991.235-.995.078-2.991.235-1,.078-2.991.235-.995.078-2.992.235-.995.078-2.991.235-1,.078-2.991.235-.995.078-2.991.235-1,.078-2.991.235-.995.078-2.991.235-1,.078-2.991.235-.995.078-2.992.235-.995.078-2.991.235-1,.078-2.991.235-.995.078-2.991.235-1,.078-2.991.235-.995.078-2.991.235-1,.078-2.991.235-.995.078-2.992.235-.995.078-2.991.235-1,.078-2.991.235-.995.078-2.991.235-1,.078-2.991.235-1,.078-2.991.235-1,.078-2.991.235-.995.078-2.992.235-.995.078-2.991.235-1,.078-2.991.235-.995.078-2.991.235-1,.078-2.991.235-.995.078-2.991.235-1,.078-2.991.235-.995.078-2.992.235-.995.078-2.991.235-1,.078-2.991.235-.995.078-2.991.235-1,.078-2.991.235-.995.078-2.991.235-1,.078-2.991.235-.995.078-2.992.235-1,.078-2.991.235-1,.078-2.991.235-.995.078-2.991.235-1,.078-2.991.235-.995.078-2.992.235-.995.078-2.991.235-1,.078-2.991.235-.995.078-2.991.235-1,.078-2.991.235-.995.078-2.991.235-1,.078-2.991.235-.995.078-2.992.235-.995.078-2.991.235-1,.078-2.991.235-.995.078-2.991.235-1,.078-2.991.235-.995.078-2.991.235-1,.078-2.991.235-.995.078-2.992.235-.995.078-2.991.235-1,.078-2.991.235-.995.078-2.991.235-1,.078-2.991.235-.995.078-2.991.235-1,.078-2.991.235-.995.078-2.992.235-.995.078-2.991.235-1,.078-2.991.235-.995.078-2.991.235-1,.078-2.991.235-.995.078-2.991.235-1,.078-2.991.235-.995.078-3.987.313.039.5,3.987-.313.995-.078,2.991-.235,1-.078L928,603.6l1-.078,2.991-.235,1-.078,2.991-.235.995-.078,2.991-.235,1-.078,2.991-.235.995-.078,2.992-.235,1-.078,2.991-.235,1-.078,2.991-.235.995-.078,2.991-.235,1-.078,2.991-.235.995-.078,2.991-.235,1-.078,2.991-.235.995-.078,2.992-.235.995-.078,2.991-.235,1-.078,2.991-.235.995-.078,2.991-.235,1-.078,2.991-.235.995-.078,2.991-.235,1-.078,2.991-.235.995-.078,2.992-.235.995-.078,2.991-.235,1-.078,2.991-.235.995-.078,2.991-.235,1-.078,2.991-.235.995-.078,2.991-.235,1-.078,2.991-.235.995-.078,2.992-.235.995-.078,2.991-.235,1-.078,2.991-.235.995-.078,2.991-.235,1-.078,2.991-.235.995-.078,2.992-.235.995-.078,2.991-.235,1-.078,2.991-.235.995-.078,2.991-.235,1-.078,2.991-.235.995-.078,2.991-.235,1-.078,2.991-.235.995-.078,2.992-.235.995-.078,2.991-.235,1-.078,2.991-.235.995-.078,2.991-.235,1-.078,2.991-.235.995-.078,2.991-.235,1-.078,2.991-.235.995-.078,2.992-.235.995-.078,2.991-.235,1-.078,2.991-.235.995-.078,2.991-.235,1-.078,2.991-.235.995-.078,2.991-.235,1-.078,2.991-.235.995-.078,2.992-.235.995-.078,2.991-.235,1-.078,2.991-.235.995-.078,2.991-.235,1-.078,2.991-.235.995-.078,2.991-.235,1-.078,2.991-.235.995-.078,2.992-.235,1-.078,2.991-.235,1-.078,2.991-.235.995-.078,2.991-.235,1-.078,2.991-.235.995-.078,2.991-.235,1-.078,2.991-.235.995-.078,2.992-.235.995-.078,2.991-.235,1-.078,2.991-.235.995-.078,2.991-.235,1-.078,3.986-.313-.039-.5-3.986.313Z" fill="#ff886b"/>
      <path id="Path_119" data-name="Path 119" d="M1204.736,603.428l-2.991.235-.995.078-2.991.235-1,.078-2.991.235-.995.078-2.992.235-.995.078-2.991.235-1,.078-2.991.235-.995.078-2.991.235-1,.078-2.991.235-.995.078-2.991.235-1,.078-2.991.235-.995.078-2.992.235-.995.078-2.991.235-1,.078-2.991.235-.995.078-2.991.235-1,.078-2.991.235-.995.078-2.991.235-1,.078-2.991.235-.995.078-2.992.235-.995.078-2.991.235-1,.078-2.991.235-.995.078-2.991.235-1,.078-2.991.235-.995.078-2.991.235-1,.078-2.991.235-.995.078-2.992.235-.995.078-2.991.235-1,.078-2.991.235-.995.078-2.991.235-1,.078-2.991.235-.995.078-2.991.235-1,.078-2.991.235-.995.078-2.992.235-.995.078-2.991.235-1,.078L1070.2,614l-.995.078-2.991.235-1,.078-2.991.235-.995.078-2.991.235-1,.078-2.991.235-.995.078-2.992.235-.995.078-2.991.235-1,.078-2.991.235-.995.078-2.991.235-1,.078-2.991.235-.995.078-2.992.235-.995.078-2.991.235-1,.078-2.991.235-.995.078-2.991.235-1,.078-2.991.235-.995.078-2.991.235-1,.078-2.991.235-.995.078-2.992.235-.995.078-2.991.235-1,.078-2.991.235-.995.078-2.991.235-1,.078-2.991.235-.995.078-2.991.235-1,.078-2.991.235-.995.078-2.992.235-.995.078-2.991.235-1,.078-2.991.235-1,.078-2.991.235-1,.078-2.991.235-.995.078-2.991.235-1,.078-2.991.235-.995.078-2.992.235-.995.078-2.991.235-1,.078-2.991.235-.995.078-2.991.235-1,.078-2.991.235-.995.078-2.991.235-1,.078-2.991.235-.995.078-3.987.313.039.5,3.987-.313.995-.078,2.991-.235,1-.078,2.991-.235.995-.078,2.991-.235,1-.078,2.991-.235.995-.078,2.991-.235,1-.078,2.991-.235.995-.078,2.992-.235.995-.078,2.991-.235,1-.078,2.991-.235.995-.078,2.991-.235,1-.078,2.991-.235.995-.078,2.991-.235,1-.078,2.991-.235,1-.078,2.992-.235.995-.078,2.991-.235,1-.078,2.991-.235.995-.078,2.991-.235,1-.078,2.991-.235,1-.078,2.991-.235,1-.078,2.991-.235.995-.078,2.992-.235.995-.078,2.991-.235,1-.078,2.991-.235,1-.078,2.991-.235,1-.078,2.991-.235.995-.078,2.991-.235,1-.078,2.991-.235.995-.078,2.992-.235.995-.078,2.991-.235,1-.078,2.991-.235.995-.078,2.991-.235,1-.078,2.991-.235.995-.078,2.992-.235.995-.078,2.991-.235,1-.078,2.991-.235.995-.078,2.991-.235,1-.078,2.991-.235.995-.078,2.991-.235,1-.078,2.991-.235.995-.078,2.992-.235.995-.078,2.991-.235,1-.078,2.991-.235.995-.078,2.991-.235,1-.078,2.991-.235.995-.078,2.991-.235,1-.078,2.991-.235.995-.078,2.992-.235.995-.078,2.991-.235,1-.078,2.991-.235.995-.078,2.991-.235,1-.078,2.991-.235.995-.078,2.991-.235,1-.078,2.991-.235.995-.078,2.992-.235.995-.078,2.991-.235,1-.078,2.991-.235.995-.078,2.991-.235,1-.078,2.991-.235.995-.078,2.991-.235,1-.078,2.991-.235.995-.078,2.992-.235.995-.078,2.991-.235,1-.078,2.991-.235.995-.078,2.991-.235,1-.078,2.991-.235.995-.078,2.991-.235,1-.078,2.991-.235.995-.078,2.992-.235.995-.078,2.991-.235,1-.078,2.991-.235.995-.078,2.991-.235,1-.078,3.986-.313-.039-.5-3.986.313Z" fill="#ff886b"/>
      <path id="Path_120" data-name="Path 120" d="M1206.46,625.363l-2.991.235-.995.078-2.991.235-1,.078-2.991.235-.995.078-2.992.235-.995.078-2.991.235-1,.078-2.991.235-.995.078-2.991.235-1,.078-2.991.235-.995.078-2.991.235-1,.078-2.991.235-.995.078-2.992.235-.995.078-2.991.235-1,.078-2.991.235-.995.078-2.991.235-1,.078-2.991.235-.995.078-2.991.235-1,.078-2.991.235-.995.078-2.992.235-.995.078-2.991.235-1,.078-2.991.235-.995.078-2.991.235-1,.078-2.991.235-.995.078-2.991.235-1,.078-2.991.235-.995.078-2.992.235-.995.078-2.991.235-1,.078-2.991.235-.995.078-2.991.235-1,.078-2.991.235-.995.078-2.991.235-1,.078-2.991.235-1,.078-2.992.235-.995.078-2.991.235-1,.078-2.991.235-.995.078-2.991.235-1,.078-2.991.235-.995.078-2.991.235-1,.078-2.991.235-.995.078-2.992.235-.995.078-2.991.235-1,.078-2.991.235-.995.078-2.991.235-1,.078-2.991.235-.995.078-2.992.235-.995.078-2.991.235-1,.078-2.991.235-.995.078-2.991.235-1,.078-2.991.235-.995.078-2.991.235-1,.078-2.991.235-1,.078-2.992.235-.995.078-2.991.235-1,.078-2.991.235-.995.078-2.991.235-1,.078-2.991.235-.995.078-2.991.235-1,.078-2.991.235-.995.078-2.992.235-.995.078-2.991.235-1,.078-2.991.235-.995.078-2.991.235-1,.078-2.991.235-.995.078-2.991.235-1,.078-2.991.235-.995.078-2.992.235-.995.078-2.991.235-1,.078-2.991.235-.995.078-2.991.235-1,.078-2.991.235-.995.078-2.991.235-1,.078-2.991.235-.995.078-3.987.313.039.5,3.987-.313.995-.078,2.991-.235,1-.078,2.991-.235.995-.078,2.991-.235,1-.078,2.991-.235.995-.078,2.991-.235,1-.078,2.991-.235.995-.078,2.992-.235.995-.078,2.991-.235,1-.078,2.991-.235.995-.078,2.991-.235,1-.078,2.991-.235.995-.078,2.991-.235,1-.078,2.991-.235.995-.078,2.992-.235.995-.078,2.991-.235,1-.078,2.991-.235.995-.078,2.991-.235,1-.078,2.991-.235.995-.078,2.991-.235,1-.078,2.991-.235.995-.078,2.992-.235.995-.078,2.991-.235,1-.078,2.991-.235.995-.078,2.991-.235,1-.078,2.991-.235,1-.078,2.991-.235,1-.078,2.991-.235.995-.078,2.992-.235.995-.078,2.991-.235,1-.078,2.991-.235.995-.078,2.991-.235,1-.078,2.991-.235.995-.078,2.992-.235.995-.078,2.991-.235,1-.078,2.991-.235.995-.078,2.991-.235,1-.078,2.991-.235.995-.078,2.991-.235,1-.078,2.991-.235.995-.078,2.992-.235.995-.078,2.991-.235,1-.078,2.991-.235.995-.078,2.991-.235,1-.078,2.991-.235.995-.078,2.991-.235,1-.078,2.991-.235.995-.078,2.992-.235.995-.078,2.991-.235,1-.078,2.991-.235.995-.078,2.991-.235,1-.078,2.991-.235.995-.078,2.991-.235,1-.078,2.991-.235.995-.078,2.992-.235.995-.078,2.991-.235,1-.078,2.991-.235.995-.078,2.991-.235,1-.078,2.991-.235.995-.078,2.991-.235,1-.078,2.991-.235.995-.078,2.992-.235.995-.078,2.991-.235,1-.078,2.991-.235.995-.078,2.991-.235,1-.078,2.991-.235.995-.078,2.991-.235,1-.078,2.991-.235.995-.078,2.992-.235.995-.078,2.991-.235,1-.078,2.991-.235.995-.078,2.991-.235,1-.078,3.986-.313-.039-.5-3.986.313Z" fill="#ff886b"/>
      <path id="Path_121" data-name="Path 121" d="M1208.184,647.3l-2.991.235-.995.078-2.991.235-1,.078-2.991.235-.995.078-2.992.235-.995.078-2.991.235-1,.078-2.991.235-.995.078-2.991.235-1,.078-2.991.235-.995.078-2.991.235-1,.078-2.991.235-.995.078-2.992.235-.995.078-2.991.235-1,.078-2.991.235-.995.078-2.991.235-1,.078-2.991.235-.995.078-2.991.235-1,.078-2.991.235-.995.078-2.992.235-.995.078-2.991.235-1,.078-2.991.235-.995.078-2.991.235-1,.078-2.991.235-.995.078-2.991.235-1,.078-2.991.235-.995.078-2.992.235-.995.078-2.991.235-1,.078-2.991.235-.995.078-2.991.235-1,.078-2.991.235-.995.078-2.991.235-1,.078-2.991.235-.995.078-2.992.235-.995.078-2.991.235-1,.078-2.991.235-.995.078-2.991.235-1,.078-2.991.235-.995.078-2.991.235-1,.078-2.991.235-.995.078-2.992.235-.995.078-2.991.235-1,.078-2.991.235-.995.078-2.991.235-1,.078-2.991.235-.995.078-2.992.235-.995.078-2.991.235-1,.078-2.991.235-.995.078-2.991.235-1,.078-2.991.235-.995.078-2.991.235-1,.078-2.991.235-.995.078-2.992.235-.995.078-2.991.235-1,.078-2.991.235-.995.078-2.991.235-1,.078-2.991.235-.995.078-2.991.235-1,.078-2.991.235-.995.078-2.992.235-.995.078-2.991.235-1,.078-2.991.235-.995.078-2.991.235-1,.078-2.991.235-.995.078-2.991.235-1,.078-2.991.235-.995.078-2.992.235-.995.078-2.991.235-1,.078-2.991.235-.995.078-2.991.235-1,.078-2.991.235-1,.078-2.991.235-1,.078-2.991.235-.995.078-3.987.313.039.5,3.987-.313.995-.078,2.991-.235,1-.078,2.991-.235.995-.078,2.991-.235,1-.078,2.991-.235.995-.078,2.991-.235,1-.078,2.991-.235.995-.078,2.992-.235.995-.078,2.991-.235,1-.078,2.991-.235,1-.078,2.991-.235,1-.078,2.991-.235.995-.078,2.991-.235,1-.078,2.991-.235.995-.078,2.992-.235,1-.078,2.991-.235,1-.078,2.991-.235.995-.078,2.991-.235,1-.078,2.991-.235.995-.078,2.991-.235,1-.078,2.991-.235.995-.078,2.992-.235.995-.078,2.991-.235,1-.078,2.991-.235.995-.078,2.991-.235,1-.078,2.991-.235.995-.078,2.991-.235,1-.078,2.991-.235.995-.078,2.992-.235.995-.078,2.991-.235,1-.078,2.991-.235.995-.078,2.991-.235,1-.078,2.991-.235.995-.078,2.992-.235.995-.078,2.991-.235,1-.078,2.991-.235.995-.078,2.991-.235,1-.078,2.991-.235.995-.078,2.991-.235,1-.078,2.991-.235.995-.078,2.992-.235.995-.078,2.991-.235,1-.078,2.991-.235.995-.078,2.991-.235,1-.078,2.991-.235.995-.078,2.991-.235,1-.078,2.991-.235,1-.078,2.992-.235.995-.078,2.991-.235,1-.078,2.991-.235.995-.078,2.991-.235,1-.078,2.991-.235.995-.078,2.991-.235,1-.078,2.991-.235.995-.078,2.992-.235.995-.078,2.991-.235,1-.078,2.991-.235.995-.078,2.991-.235,1-.078,2.991-.235.995-.078,2.991-.235,1-.078,2.991-.235.995-.078,2.992-.235.995-.078,2.991-.235,1-.078,2.991-.235,1-.078,2.991-.235,1-.078,2.991-.235.995-.078,2.991-.235,1-.078,2.991-.235.995-.078,2.992-.235.995-.078,2.991-.235,1-.078,2.991-.235.995-.078,2.991-.235,1-.078,3.986-.313-.039-.5-3.986.313Z" fill="#ff886b"/>
      <path id="Path_122" data-name="Path 122" d="M1209.907,669.235l-2.991.235-.995.078-2.991.235-1,.078-2.991.235-.995.078-2.992.235-.995.078-2.991.235-1,.078-2.991.235-.995.078-2.991.235-1,.078-2.991.235-.995.078-2.991.235-1,.078-2.991.235-.995.078-2.992.235-.995.078-2.991.235-1,.078-2.991.235-.995.078-2.991.235-1,.078-2.991.235-.995.078-2.991.235-1,.078-2.991.235-.995.078-2.992.235-.995.078-2.991.235-1,.078-2.991.235-.995.078-2.991.235-1,.078-2.991.235-.995.078-2.991.235-1,.078-2.991.235-.995.078-2.992.235-.995.078-2.991.235-1,.078-2.991.235-.995.078-2.991.235-1,.078-2.991.235-.995.078-2.991.235-1,.078-2.991.235-.995.078-2.992.235-.995.078-2.991.235-1,.078-2.991.235-.995.078-2.991.235-1,.078-2.991.235-.995.078-2.991.235-1,.078-2.991.235-.995.078-2.992.235-.995.078-2.991.235-1,.078-2.991.235-.995.078-2.991.235-1,.078-2.991.235-.995.078-2.992.235-.995.078-2.991.235-1,.078-2.991.235-.995.078-2.991.235-1,.078-2.991.235-.995.078-2.991.235-1,.078-2.991.235-.995.078-2.992.235-.995.078-2.991.235-1,.078-2.991.235-.995.078-2.991.235-1,.078-2.991.235-.995.078-2.991.235-1,.078-2.991.235-.995.078-2.992.235-.995.078-2.991.235-1,.078-2.991.235-.995.078-2.991.235-1,.078-2.991.235-.995.078-2.991.235-1,.078-2.991.235-.995.078-2.992.235-.995.078-2.991.235-1,.078-2.991.235-.995.078-2.991.235-1,.078-2.991.235-.995.078-2.991.235-1,.078-2.991.235-.995.078-3.987.313.039.5,3.987-.313.995-.078,2.991-.235,1-.078,2.991-.235.995-.078,2.991-.235,1-.078,2.991-.235.995-.078,2.991-.235,1-.078,2.991-.235.995-.078,2.992-.235.995-.078,2.991-.235,1-.078,2.991-.235.995-.078,2.991-.235,1-.078,2.991-.235.995-.078,2.991-.235,1-.078,2.991-.235,1-.078,2.992-.235.995-.078,2.991-.235,1-.078,2.991-.235.995-.078,2.991-.235,1-.078,2.991-.235.995-.078,2.991-.235,1-.078,2.991-.235.995-.078,2.992-.235.995-.078,2.991-.235,1-.078,2.991-.235.995-.078,2.991-.235,1-.078,2.991-.235.995-.078,2.991-.235,1-.078,2.991-.235.995-.078,2.992-.235.995-.078,2.991-.235,1-.078,2.991-.235.995-.078,2.991-.235,1-.078,2.991-.235.995-.078,2.992-.235.995-.078,2.991-.235,1-.078,2.991-.235.995-.078,2.991-.235,1-.078,2.991-.235.995-.078,2.991-.235,1-.078,2.991-.235.995-.078,2.992-.235.995-.078,2.991-.235,1-.078,2.991-.235.995-.078,2.991-.235,1-.078,2.991-.235.995-.078,2.991-.235,1-.078,2.991-.235.995-.078,2.992-.235.995-.078,2.991-.235,1-.078,2.991-.235.995-.078,2.991-.235,1-.078,2.991-.235.995-.078,2.991-.235,1-.078,2.991-.235.995-.078,2.992-.235.995-.078,2.991-.235,1-.078,2.991-.235.995-.078,2.991-.235,1-.078,2.991-.235.995-.078,2.991-.235,1-.078,2.991-.235.995-.078,2.992-.235.995-.078,2.991-.235,1-.078,2.991-.235.995-.078,2.991-.235,1-.078,2.991-.235.995-.078,2.991-.235,1-.078,2.991-.235,1-.078,2.992-.235.995-.078,2.991-.235,1-.078,2.991-.235.995-.078,2.991-.235,1-.078,3.986-.313-.039-.5-3.986.313Z" fill="#ff886b"/>
      <path id="Path_123" data-name="Path 123" d="M1211.631,691.171l-2.991.235-.995.078-2.991.235-1,.078-2.991.235-.995.078-2.992.235-.995.078-2.991.235-1,.078-2.991.235-.995.078-2.991.235-1,.078-2.991.235-.995.078-2.991.235-1,.078-2.991.235-.995.078-2.992.235-.995.078-2.991.235-1,.078-2.991.235-.995.078-2.991.235-1,.078-2.991.235-.995.078-2.991.235-1,.078-2.991.235-.995.078-2.992.235-.995.078-2.991.235-1,.078-2.991.235-.995.078-2.991.235-1,.078-2.991.235-.995.078-2.991.235-1,.078-2.991.235-.995.078-2.992.235-.995.078-2.991.235-1,.078-2.991.235-.995.078-2.991.235-1,.078-2.991.235-.995.078-2.991.235-1,.078-2.991.235-.995.078-2.992.235-.995.078-2.991.235-1,.078-2.991.235-.995.078-2.991.235-1,.078-2.991.235-.995.078-2.991.235-1,.078-2.991.235-.995.078-2.992.235-.995.078-2.991.235-1,.078-2.991.235-.995.078-2.991.235-1,.078-2.991.235-.995.078-2.992.235-.995.078-2.991.235-1,.078-2.991.235-1,.078-2.991.235-1,.078-2.991.235-.995.078-2.991.235-1,.078-2.991.235-.995.078-2.992.235-.995.078-2.991.235-1,.078-2.991.235-.995.078-2.991.235-1,.078-2.991.235-.995.078-2.991.235-1,.078-2.991.235-.995.078-2.992.235-.995.078-2.991.235-1,.078-2.991.235-.995.078-2.991.235-1,.078-2.991.235-.995.078-2.991.235-1,.078-2.991.235-.995.078-2.992.235-.995.078-2.991.235-1,.078-2.991.235-.995.078-2.991.235-1,.078-2.991.235-.995.078-2.991.235-1,.078-2.991.235-.995.078-3.987.313.039.5,3.987-.313,1-.078,2.991-.235,1-.078,2.991-.235.995-.078,2.991-.235,1-.078,2.991-.235.995-.078,2.991-.235,1-.078,2.991-.235.995-.078,2.992-.235.995-.078,2.991-.235,1-.078,2.991-.235.995-.078,2.991-.235,1-.078,2.991-.235.995-.078,2.991-.235,1-.078,2.991-.235.995-.078,2.992-.235.995-.078,2.991-.235,1-.078,2.991-.235.995-.078,2.991-.235,1-.078,2.991-.235.995-.078,2.991-.235,1-.078,2.991-.235.995-.078,2.992-.235.995-.078,2.991-.235,1-.078,2.991-.235.995-.078,2.991-.235,1-.078,2.991-.235.995-.078,2.991-.235,1-.078,2.991-.235.995-.078,2.992-.235.995-.078,2.991-.235,1-.078,2.991-.235.995-.078,2.991-.235,1-.078,2.991-.235.995-.078,2.992-.235.995-.078,2.991-.235,1-.078,2.991-.235.995-.078,2.991-.235,1-.078,2.991-.235,1-.078,2.991-.235,1-.078,2.991-.235.995-.078,2.992-.235.995-.078,2.991-.235,1-.078,2.991-.235.995-.078,2.991-.235,1-.078,2.991-.235.995-.078,2.991-.235,1-.078,2.991-.235.995-.078,2.992-.235.995-.078,2.991-.235,1-.078,2.991-.235.995-.078,2.991-.235,1-.078,2.991-.235.995-.078,2.991-.235,1-.078,2.991-.235.995-.078,2.992-.235,1-.078,2.991-.235,1-.078,2.991-.235.995-.078,2.991-.235,1-.078,2.991-.235.995-.078,2.991-.235,1-.078,2.991-.235.995-.078,2.992-.235.995-.078,2.991-.235,1-.078,2.991-.235.995-.078,2.991-.235,1-.078,2.991-.235.995-.078,2.991-.235,1-.078,2.991-.235.995-.078,2.992-.235.995-.078,2.991-.235,1-.078,2.991-.235.995-.078,2.991-.235,1-.078,3.986-.313-.039-.5-3.986.313Z" fill="#ff886b"/>
      <path id="Path_124" data-name="Path 124" d="M1213.355,713.106l-2.991.235-.995.078-2.991.235-1,.078-2.991.235-.995.078-2.992.235-.995.078-2.991.235-1,.078-2.991.235-.995.078-2.991.235-1,.078-2.991.235-.995.078-2.991.235-1,.078-2.991.235-.995.078-2.992.235-.995.078-2.991.235-1,.078-2.991.235-.995.078-2.991.235-1,.078-2.991.235-.995.078-2.991.235-1,.078-2.991.235-.995.078-2.992.235-.995.078-2.991.235-1,.078-2.991.235-.995.078-2.991.235-1,.078-2.991.235-.995.078-2.991.235-1,.078-2.991.235-.995.078-2.992.235-.995.078-2.991.235-1,.078-2.991.235-.995.078-2.991.235-1,.078-2.991.235-.995.078-2.991.235-1,.078-2.991.235-.995.078-2.992.235-.995.078-2.991.235-1,.078-2.991.235-.995.078-2.991.235-1,.078-2.991.235-.995.078-2.991.235-1,.078-2.991.235-.995.078-2.992.235-.995.078-2.991.235-1,.078-2.991.235-.995.078-2.991.235-1,.078-2.991.235-.995.078-2.992.235-.995.078-2.991.235-1,.078-2.991.235-.995.078-2.991.235-1,.078-2.991.235-.995.078-2.991.235-1,.078-2.991.235-.995.078-2.992.235-.995.078-2.991.235-1,.078-2.991.235-.995.078-2.991.235-1,.078-2.991.235-.995.078-2.991.235-1,.078-2.991.235-.995.078-2.992.235-.995.078-2.991.235-1,.078-2.991.235-.995.078-2.991.235-1,.078-2.991.235-.995.078-2.991.235-1,.078-2.991.235-.995.078-2.992.235-.995.078-2.991.235-1,.078-2.991.235-.995.078-2.991.235-1,.078-2.991.235-.995.078-2.991.235-1,.078-2.991.235-.995.078-3.987.313.039.5,3.987-.313.995-.078,2.991-.235,1-.078,2.991-.235.995-.078,2.991-.235,1-.078,2.991-.235,1-.078,2.991-.235,1-.078,2.991-.235.995-.078,2.992-.235.995-.078,2.991-.235,1-.078,2.991-.235.995-.078,2.991-.235,1-.078,2.991-.235.995-.078,2.991-.235,1-.078,2.991-.235.995-.078,2.992-.235.995-.078,2.991-.235,1-.078,2.991-.235.995-.078,2.991-.235,1-.078,2.991-.235.995-.078,2.991-.235,1-.078,2.991-.235.995-.078,2.992-.235.995-.078,2.991-.235,1-.078,2.991-.235.995-.078,2.991-.235,1-.078,2.991-.235.995-.078,2.991-.235,1-.078,2.991-.235.995-.078,2.992-.235.995-.078,2.991-.235,1-.078,2.991-.235.995-.078,2.991-.235,1-.078,2.991-.235.995-.078,2.992-.235.995-.078,2.991-.235,1-.078,2.991-.235.995-.078,2.991-.235,1-.078,2.991-.235.995-.078,2.991-.235,1-.078,2.991-.235.995-.078,2.992-.235.995-.078L1093.8,723l1-.078,2.991-.235.995-.078,2.991-.235,1-.078,2.991-.235.995-.078,2.991-.235,1-.078,2.991-.235.995-.078,2.992-.235.995-.078,2.991-.235,1-.078,2.991-.235.995-.078,2.991-.235,1-.078,2.991-.235.995-.078,2.991-.235,1-.078,2.991-.235.995-.078,2.992-.235.995-.078,2.991-.235,1-.078,2.991-.235.995-.078,2.991-.235,1-.078,2.991-.235,1-.078,2.991-.235,1-.078,2.991-.235.995-.078,2.992-.235.995-.078,2.991-.235,1-.078,2.991-.235.995-.078,2.991-.235,1-.078,2.991-.235.995-.078,2.991-.235,1-.078,2.991-.235.995-.078,2.992-.235.995-.078,2.991-.235,1-.078,2.991-.235.995-.078,2.991-.235,1-.078,3.986-.313-.039-.5-3.986.313Z" fill="#ff886b"/>
      <path id="Path_125" data-name="Path 125" d="M1215.079,735.043l-2.991.235-.995.078-2.991.235-1,.078-2.991.235-1,.078-2.992.235-.995.078-2.991.235-1,.078-2.991.235-.995.078-2.991.235-1,.078-2.991.235-.995.078-2.991.235-1,.078-2.991.235-.995.078-2.992.235-.995.078-2.991.235-1,.078-2.991.235-.995.078-2.991.235-1,.078-2.991.235-.995.078-2.991.235-1,.078-2.991.235-.995.078-2.992.235-.995.078-2.991.235-1,.078-2.991.235-.995.078-2.991.235-1,.078-2.991.235-.995.078-2.991.235-1,.078-2.991.235-.995.078-2.992.235-.995.078-2.991.235-1,.078-2.991.235-.995.078-2.991.235-1,.078-2.991.235-.995.078-2.991.235-1,.078-2.991.235-.995.078-2.992.235-.995.078-2.991.235-1,.078-2.991.235-.995.078-2.991.235-1,.078-2.991.235-.995.078-2.991.235-1,.078-2.991.235-.995.078-2.992.235-.995.078-2.991.235-1,.078-2.991.235-.995.078-2.991.235-1,.078-2.991.235-.995.078-2.992.235-.995.078-2.991.235-1,.078-2.991.235-.995.078-2.991.235-1,.078-2.991.235-1,.078-2.991.235-1,.078-2.991.235-.995.078-2.992.235-.995.078-2.991.235-1,.078-2.991.235-.995.078-2.991.235-1,.078-2.991.235-.995.078-2.991.235-1,.078-2.991.235-1,.078-2.992.235-.995.078-2.991.235-1,.078-2.991.235-.995.078-2.991.235-1,.078-2.991.235-.995.078-2.991.235-1,.078-2.991.235-.995.078-2.992.235-.995.078-2.991.235-1,.078-2.991.235-.995.078-2.991.235-1,.078-2.991.235-.995.078-2.991.235-1,.078-2.991.235-.995.078-3.987.313.039.5,3.987-.313.995-.078,2.991-.235,1-.078,2.991-.235.995-.078,2.991-.235,1-.078,2.991-.235.995-.078,2.991-.235,1-.078,2.991-.235.995-.078,2.992-.235.995-.078,2.991-.235,1-.078,2.991-.235.995-.078,2.991-.235,1-.078,2.991-.235.995-.078,2.991-.235,1-.078,2.991-.235.995-.078,2.992-.235.995-.078,2.991-.235,1-.078,2.991-.235.995-.078,2.991-.235,1-.078,2.991-.235.995-.078,2.991-.235,1-.078,2.991-.235,1-.078,2.992-.235.995-.078,2.991-.235,1-.078,2.991-.235.995-.078,2.991-.235,1-.078,2.991-.235.995-.078,2.991-.235,1-.078,2.991-.235.995-.078,2.992-.235,1-.078,2.991-.235,1-.078,2.991-.235.995-.078,2.991-.235,1-.078,2.991-.235.995-.078,2.992-.235.995-.078,2.991-.235,1-.078,2.991-.235.995-.078,2.991-.235,1-.078,2.991-.235.995-.078,2.991-.235,1-.078,2.991-.235.995-.078,2.992-.235.995-.078,2.991-.235,1-.078,2.991-.235.995-.078,2.991-.235,1-.078,2.991-.235.995-.078,2.991-.235,1-.078,2.991-.235.995-.078,2.992-.235.995-.078,2.991-.235,1-.078,2.991-.235.995-.078,2.991-.235,1-.078,2.991-.235.995-.078,2.991-.235,1-.078,2.991-.235.995-.078,2.992-.235.995-.078,2.991-.235,1-.078,2.991-.235.995-.078,2.991-.235,1-.078,2.991-.235.995-.078,2.991-.235,1-.078,2.991-.235.995-.078,2.992-.235.995-.078,2.991-.235,1-.078,2.991-.235.995-.078,2.991-.235,1-.078,2.991-.235.995-.078,2.991-.235,1-.078,2.991-.235.995-.078,2.992-.235.995-.078,2.991-.235,1-.078,2.991-.235.995-.078,2.991-.235,1-.078,3.986-.313-.039-.5-3.986.313Z" fill="#ff886b"/>
    </g>
    <rect id="Rectangle_35" data-name="Rectangle 35" width="0.725" height="292.899" transform="matrix(0.997, -0.078, 0.078, 0.997, 608.389, -891.465)" fill="#a22430"/>
    <g id="Group_165" data-name="Group 165" transform="translate(-348.701 -1359.648)">
      <path id="Path_126" data-name="Path 126" d="M934.574,501.417a36.313,36.313,0,0,0,8.957-3.09c3.56-1.778,6.928-4.169,10.836-4.881L938.46,439.979c-1.445.639-3.369.99-4.686,1.443q-5.73,1.967-11.526,3.734c-4.185,1.277-8.395,2.473-12.606,3.662l16.524,55.539c1.228-.567,2.417-1.309,3.677-1.8A28.559,28.559,0,0,1,934.574,501.417Z" fill="#86cbca" opacity="0.8"/>
    </g>
    <path id="Path_127" data-name="Path 127" d="M1155.959,423.463l-5.758,57.553a93.787,93.787,0,0,1,12.636,1.034,16.491,16.491,0,0,0,5.253.278,5.671,5.671,0,0,1,2.035-.2,10.059,10.059,0,0,1,1.46.572,7,7,0,0,0,2.332.292c1.779.178,4.624-.565,6.363.146l5.93-59.269a149.147,149.147,0,0,0-17.55-.172C1164.427,423.916,1160.068,424.29,1155.959,423.463Z" transform="translate(-348.701 -1359.648)" fill="#86cbca" opacity="0.8"/>
  </g>
</svg>
