<svg xmlns="http://www.w3.org/2000/svg" width="329.24" height="331.85" viewBox="0 0 329.24 331.85">
  <g id="Group_198" data-name="Group 198" transform="translate(-149.167 1310.025)">
    <path id="Path_110" data-name="Path 110" d="M812.412,65.708,521.343,98.4l32.7,291.069,291.068-32.7ZM537.006,117.27a7,7,0,1,1,7.741,6.178A7,7,0,0,1,537.006,117.27Zm3.558,31.674a7,7,0,1,1,7.742,6.178A7,7,0,0,1,540.564,148.944Zm3.558,31.674a7,7,0,1,1,7.742,6.178A7,7,0,0,1,544.122,180.618Zm3.558,31.674a7,7,0,1,1,7.742,6.178A7,7,0,0,1,547.68,212.292Zm3.558,31.674a7,7,0,1,1,7.742,6.178A7,7,0,0,1,551.238,243.966ZM554.8,275.64a7,7,0,1,1,7.742,6.178A7,7,0,0,1,554.8,275.64Zm3.558,31.674a7,7,0,1,1,7.742,6.178A7,7,0,0,1,558.354,307.314Zm3.558,31.674a7,7,0,1,1,7.742,6.178A7,7,0,0,1,561.912,338.988Zm11.3,37.852a7,7,0,1,1,6.178-7.742A7,7,0,0,1,573.212,376.84Z" transform="translate(-366.701 -1367.648)" fill="#cfd0d2"/>
    <path id="Path_111" data-name="Path 111" d="M806.936,61.233l-291.068,32.7L548.564,385l291.069-32.7ZM531.53,112.795a7,7,0,1,1,7.742,6.178A7.005,7.005,0,0,1,531.53,112.795Zm3.558,31.674a7,7,0,1,1,7.742,6.178A7.005,7.005,0,0,1,535.088,144.469Zm3.559,31.674a7,7,0,1,1,7.741,6.178A7,7,0,0,1,538.647,176.143Zm3.558,31.674a7,7,0,1,1,7.741,6.178A7,7,0,0,1,542.205,207.817Zm3.558,31.674a7,7,0,1,1,7.741,6.178A7,7,0,0,1,545.763,239.491Zm3.558,31.674a7,7,0,1,1,7.741,6.178A7,7,0,0,1,549.321,271.165Zm3.558,31.674a7,7,0,1,1,7.741,6.178A7,7,0,0,1,552.879,302.839Zm3.558,31.674a7,7,0,1,1,7.741,6.178A7,7,0,0,1,556.437,334.513Zm11.3,37.852a7,7,0,1,1,6.178-7.742A7,7,0,0,1,567.736,372.365Z" transform="translate(-366.701 -1367.648)" fill="#ffc2c7"/>
    <g id="Group_162" data-name="Group 162" transform="translate(-366.701 -1367.648)" opacity="0.8">
      <path id="Path_112" data-name="Path 112" d="M549.077,84.189q1.372,5.9,2.54,11.847c.843,4.294,1.6,8.6,2.357,12.913L669.569,87.076a93.843,93.843,0,0,1-2.581-12.413,16.494,16.494,0,0,0-1.22-5.117,5.684,5.684,0,0,1-.762-1.9,9.951,9.951,0,0,1,.136-1.563,6.989,6.989,0,0,0-.38-2.318c-.332-1.757-1.85-4.276-1.659-6.145L548.119,79.38C548.608,80.883,548.762,82.833,549.077,84.189Z" fill="#87cbcb" opacity="0.8"/>
    </g>
  </g>
</svg>
