<svg xmlns="http://www.w3.org/2000/svg" width="310.313" height="310.312" viewBox="0 0 310.313 310.312">
  <g id="Group_202" data-name="Group 202" transform="translate(-149.632 908.912)">
    <path id="Path_128" data-name="Path 128" d="M1320.333,746.36l292.624,12.688,12.689-292.624-292.624-12.688Zm31.556-84.829a9.246,9.246,0,1,1-9.246-9.246A9.245,9.245,0,0,1,1351.889,661.531Zm5.3-122.2a9.246,9.246,0,1,1-9.246-9.246A9.247,9.247,0,0,1,1357.188,539.334Z" transform="translate(-1165.701 -1357.648)" fill="#cfd0d2"/>
    <path id="Path_129" data-name="Path 129" d="M1315.333,741.36l292.624,12.688,12.689-292.624-292.624-12.688Zm31.556-84.829a9.246,9.246,0,1,1-9.246-9.246A9.245,9.245,0,0,1,1346.889,656.531Zm5.3-122.2a9.246,9.246,0,1,1-9.246-9.246A9.247,9.247,0,0,1,1352.188,534.334Z" transform="translate(-1165.701 -1357.648)" fill="#b29ec3"/>
    <path id="Path_130" data-name="Path 130" d="M1315.333,741.36l37.23,1.614,12.689-292.624-37.23-1.614Zm31.556-84.829a9.246,9.246,0,1,1-9.246-9.246A9.245,9.245,0,0,1,1346.889,656.531Zm5.3-122.2a9.246,9.246,0,1,1-9.246-9.246A9.247,9.247,0,0,1,1352.188,534.334Z" transform="translate(-1165.701 -1357.648)" fill="#a591b8"/>
  </g>
</svg>
