<?xml version="1.0"?><svg width="82" height="60" xmlns="http://www.w3.org/2000/svg">
 <title>del icon</title>

 <metadata id="metadata2638">image/svg+xmlorange power button08 12 2006molumenorange power buttoniconbuttondesignUIinterfacepowerswitchonofforangeglossytoggle</metadata>
 <g>
  <title>Layer 1</title>
  <path fill="#ffffff" fill-rule="evenodd" stroke-miterlimit="4" id="path3758" d="m18.731462,7.356937c-8.89287,2.822605 -15.356839,10.888596 -15.356839,20.475277c0,11.930984 9.965476,21.60886 22.251023,21.60886c12.285471,0 22.251024,-9.677876 22.251024,-21.60886c0,-9.587717 -6.495193,-17.654447 -15.393394,-20.475277l0,7.722522c4.747601,2.421002 8.061455,7.18757 8.061455,12.752755c0,7.987518 -6.694271,14.488594 -14.919085,14.488594c-8.22489,0 -14.91916,-6.501076 -14.91916,-14.488594c0,-5.562006 3.278518,-10.330938 8.024976,-12.752755l0,-7.722522z"/>
  <path fill="#ffffff" fill-rule="evenodd" stroke-miterlimit="4" id="path3760" d="m21.868479,2.716325l0,25.64729l7.514261,0l0,-25.64729l-7.514261,0z"/>
 </g>
</svg>